<?xml version="1.0" encoding="UTF-8"?>
<svg xmlns="http://www.w3.org/2000/svg" xmlns:xlink="http://www.w3.org/1999/xlink" width="287px" height="204px" viewBox="0 0 306 204" version="1.1">
<defs>
<filter id="alpha" filterUnits="objectBoundingBox" x="0%" y="0%" width="100%" height="100%">
  <feColorMatrix type="matrix" in="SourceGraphic" values="0 0 0 0 1 0 0 0 0 1 0 0 0 0 1 0 0 0 1 0"/>
</filter>
<mask id="mask0">
  <g filter="url(#alpha)">
<rect x="0" y="0" width="306" height="204" style="fill:rgb(0%,0%,0%);fill-opacity:0.701961;stroke:none;"/>
  </g>
</mask>
<clipPath id="clip1">
  <rect x="0" y="0" width="306" height="204"/>
</clipPath>
<g id="surface5" clip-path="url(#clip1)">
<path style=" stroke:none;fill-rule:nonzero;fill:rgb(100%,100%,100%);fill-opacity:1;" d="M 282.925781 87.433594 C 281.027344 83.5 278.230469 80.066406 274.769531 77.402344 C 260.136719 66.003906 191.667969 14.066406 157.976562 12.992188 C 120.132812 11.765625 -3.699219 153.476562 7.804688 166.808594 C 19.3125 180.136719 161.621094 200.109375 178.261719 196.183594 C 194.90625 192.257812 273.328125 116.972656 280.597656 108.382812 C 286.996094 100.820312 285.570312 93.023438 282.925781 87.433594 Z M 282.925781 87.433594 "/>
</g>
<mask id="mask1">
  <g filter="url(#alpha)">
<rect x="0" y="0" width="306" height="204" style="fill:rgb(0%,0%,0%);fill-opacity:0.301961;stroke:none;"/>
  </g>
</mask>
<clipPath id="clip2">
  <rect x="0" y="0" width="306" height="204"/>
</clipPath>
<g id="surface8" clip-path="url(#clip2)">
<path style="fill:none;stroke-width:1;stroke-linecap:butt;stroke-linejoin:miter;stroke:rgb(0%,0%,0%);stroke-opacity:1;stroke-miterlimit:10;" d="M 661.77428 139.437806 C 661.77428 139.437806 655.091529 106.789982 632.822074 109.020757 C 622.702206 110.016468 615.933287 115.100337 610.064338 123.018153 C 602.529488 133.128447 599.82958 127.249923 589.05867 130.572151 C 579.417509 133.568857 580.901501 141.697304 574.955959 143.181296 C 569.019991 144.655714 564.577589 137.992111 556.410846 139.466529 C 548.244102 140.950521 543.8017 149.117264 543.8017 149.117264 L 692.19133 149.117264 C 691.396676 143.449372 687.318091 138.786765 681.803385 137.245328 C 672.162224 134.248621 667.700674 141.668581 661.77428 139.437806 Z M 661.77428 139.437806 " transform="matrix(0.408,0,0,0.408,0,0)"/>
</g>
<mask id="mask2">
  <g filter="url(#alpha)">
<rect x="0" y="0" width="306" height="204" style="fill:rgb(0%,0%,0%);fill-opacity:0.301961;stroke:none;"/>
  </g>
</mask>
<clipPath id="clip3">
  <rect x="0" y="0" width="306" height="204"/>
</clipPath>
<g id="surface11" clip-path="url(#clip3)">
<path style="fill:none;stroke-width:1;stroke-linecap:butt;stroke-linejoin:miter;stroke:rgb(0%,0%,0%);stroke-opacity:1;stroke-miterlimit:10;" d="M 207.280178 70.465686 C 207.280178 70.465686 202.722886 48.148361 187.5 49.680224 C 180.577895 50.369562 175.963159 53.835401 171.951593 59.216069 C 166.800705 66.1286 164.952895 62.10746 157.59038 64.376532 C 151.00337 66.40625 151.999081 71.997549 147.997089 73.002834 C 144.004672 73.998545 140.90265 69.450827 135.330499 70.465686 C 129.758349 71.490119 126.713771 77.06227 126.713771 77.06227 L 228.06564 77.06227 C 227.519914 73.213465 224.743413 70.044424 220.999923 69.000843 C 214.384191 66.923254 211.339614 71.997549 207.280178 70.465686 Z M 207.280178 70.465686 " transform="matrix(0.408,0,0,0.408,0,0)"/>
</g>
<mask id="mask3">
  <g filter="url(#alpha)">
<rect x="0" y="0" width="306" height="204" style="fill:rgb(0%,0%,0%);fill-opacity:0.301961;stroke:none;"/>
  </g>
</mask>
<clipPath id="clip4">
  <rect x="0" y="0" width="306" height="204"/>
</clipPath>
<g id="surface14" clip-path="url(#clip4)">
<path style="fill:none;stroke-width:1;stroke-linecap:butt;stroke-linejoin:miter;stroke:rgb(0%,0%,0%);stroke-opacity:1;stroke-miterlimit:10;" d="M 517.942234 39.714908 L 565.863149 39.718529 L 565.864479 122.683098 L 517.943564 122.679477 Z M 517.942234 39.714908 " transform="matrix(0.175391,-0.368377,0.368377,0.175391,96.12888,218.5044)"/>
<path style="fill:none;stroke-width:1;stroke-linecap:butt;stroke-linejoin:miter;stroke:rgb(0%,0%,0%);stroke-opacity:1;stroke-miterlimit:10;" d="M 523.456648 51.001455 C 522.087546 53.883272 518.640855 55.099188 515.759038 53.730086 C 515.538833 53.62477 515.328202 53.509881 515.127145 53.375843 L 503.303079 78.249464 C 503.532858 78.326057 503.753064 78.412224 503.973269 78.507966 C 506.845512 79.886642 508.071002 83.333333 506.7019 86.224724 C 506.654029 86.33004 506.596584 86.425781 506.529565 86.531097 L 560.04902 111.998315 C 560.04902 111.892999 560.144761 111.77811 560.192632 111.672794 C 561.561734 108.790977 565.008425 107.565487 567.890242 108.934589 C 568.110447 109.039905 568.321078 109.154795 568.522135 109.288833 L 580.346201 84.453508 C 580.116422 84.376915 579.896216 84.281173 579.676011 84.175858 C 576.822917 82.787607 575.626149 79.360064 576.995251 76.497396 C 577.100567 76.277191 577.215456 76.066559 577.349494 75.865502 L 523.724724 50.359988 C 523.648131 50.580193 523.561964 50.790824 523.456648 51.001455 Z M 550.455729 85.238588 C 548.818551 88.714001 545.247396 90.849035 541.408165 90.647978 C 537.578508 90.456495 534.237132 87.967218 532.954197 84.348192 C 531.671262 80.729167 532.70527 76.688879 535.558364 74.132583 C 538.421032 71.566713 542.537914 70.973116 546.003753 72.639017 C 550.723805 74.898514 552.715227 80.547258 550.455729 85.26731 Z M 550.455729 85.238588 " transform="matrix(0.408,0,0,0.408,0,0)"/>
</g>
<mask id="mask4">
  <g filter="url(#alpha)">
<rect x="0" y="0" width="306" height="204" style="fill:rgb(0%,0%,0%);fill-opacity:0.301961;stroke:none;"/>
  </g>
</mask>
<clipPath id="clip5">
  <rect x="0" y="0" width="306" height="204"/>
</clipPath>
<g id="surface17" clip-path="url(#clip5)">
<path style="fill:none;stroke-width:1;stroke-linecap:butt;stroke-linejoin:miter;stroke:rgb(0%,0%,0%);stroke-opacity:1;stroke-miterlimit:10;" d="M 71.978217 64.221423 L 119.899132 64.225044 L 119.896347 147.180968 L 71.975432 147.177347 Z M 71.978217 64.221423 " transform="matrix(0.175391,-0.368377,0.368377,0.175391,-16.62192,59.92704)"/>
<path style="fill:none;stroke-width:1;stroke-linecap:butt;stroke-linejoin:miter;stroke:rgb(0%,0%,0%);stroke-opacity:1;stroke-miterlimit:10;" d="M 77.502681 75.530407 C 76.842065 76.918658 75.664445 77.981388 74.21875 78.488817 C 72.773055 79.005821 71.183747 78.919654 69.795496 78.259038 C 69.584865 78.163297 69.374234 78.038833 69.173177 77.914369 L 57.339537 102.749694 C 57.569317 102.816713 57.789522 102.90288 58.000153 102.998621 C 59.388404 103.659237 60.451134 104.836857 60.958563 106.282552 C 61.475567 107.728248 61.3894 109.317555 60.728784 110.696232 C 60.680913 110.811121 60.623468 110.906863 60.556449 111.021752 L 114.075904 136.498545 L 114.219516 136.173024 C 114.880132 134.784773 116.057751 133.722044 117.503447 133.20504 C 118.949142 132.69761 120.53845 132.783778 121.917126 133.444393 C 122.137331 133.540135 122.347963 133.655025 122.54902 133.789062 L 134.392233 109.001608 C 134.162454 108.915441 133.942249 108.838848 133.722044 108.743107 C 132.324219 108.082491 131.261489 106.885723 130.744485 105.440028 C 130.237056 103.984758 130.332797 102.385876 131.002987 100.997626 C 131.098729 100.786994 131.213618 100.576363 131.347656 100.375306 L 77.761183 74.860218 C 77.694164 75.089997 77.607996 75.310202 77.502681 75.530407 Z M 104.501762 109.76754 C 102.251838 114.487592 96.603094 116.498162 91.883042 114.257813 C 87.16299 112.007889 85.15242 106.368719 87.39277 101.639093 C 89.633119 96.919041 95.272289 94.908471 100.001915 97.139246 C 104.731541 99.38917 106.742111 105.037914 104.501762 109.76754 Z M 104.501762 109.76754 " transform="matrix(0.408,0,0,0.408,0,0)"/>
</g>
<mask id="mask5">
  <g filter="url(#alpha)">
<rect x="0" y="0" width="306" height="204" style="fill:rgb(0%,0%,0%);fill-opacity:0.301961;stroke:none;"/>
  </g>
</mask>
<clipPath id="clip6">
  <rect x="0" y="0" width="306" height="204"/>
</clipPath>
<g id="surface20" clip-path="url(#clip6)">
<path style="fill:none;stroke-width:1;stroke-linecap:butt;stroke-linejoin:miter;stroke:rgb(0%,0%,0%);stroke-opacity:1;stroke-miterlimit:10;" d="M 607.017754 197.792469 L 654.934553 197.787446 L 654.935884 280.752015 L 607.014969 280.748394 Z M 607.017754 197.792469 " transform="matrix(0.175391,-0.368377,0.368377,0.175391,58.61736,288.08064)"/>
<path style="fill:none;stroke-width:1;stroke-linecap:butt;stroke-linejoin:miter;stroke:rgb(0%,0%,0%);stroke-opacity:1;stroke-miterlimit:10;" d="M 612.544041 209.099265 C 611.883425 210.487515 610.696232 211.559819 609.250536 212.067249 C 607.804841 212.584252 606.215533 212.498085 604.827282 211.837469 C 604.607077 211.732154 604.40602 211.60769 604.214537 211.4928 L 592.380898 236.328125 C 592.610677 236.404718 592.830882 236.490885 593.051088 236.586627 C 595.932904 237.965303 597.14882 241.421569 595.779718 244.303385 L 595.607384 244.609758 L 649.126838 270.096124 C 649.165135 269.981235 649.213006 269.875919 649.27045 269.770604 C 649.921492 268.372779 651.099112 267.290901 652.554381 266.773897 C 654.009651 266.247319 655.608532 266.333487 656.996783 267.003676 C 657.216988 267.108992 657.427619 267.233456 657.628676 267.348346 L 669.452742 242.513021 C 669.222963 242.436428 669.002757 242.35026 668.792126 242.254519 C 665.910309 240.875843 664.684819 237.429151 666.053922 234.53776 C 666.159237 234.327129 666.283701 234.116498 666.408165 233.915441 L 612.802543 208.438649 C 612.72595 208.668428 612.639782 208.888634 612.544041 209.099265 Z M 639.543122 243.345971 C 637.293199 248.075597 631.634881 250.086167 626.905254 247.836244 C 622.175628 245.58632 620.165058 239.928002 622.424556 235.198376 C 624.674479 230.46875 630.332797 228.467754 635.062423 230.717678 C 639.782475 232.977175 641.783471 238.625919 639.533548 243.345971 Z M 639.543122 243.345971 " transform="matrix(0.408,0,0,0.408,0,0)"/>
</g>
<mask id="mask6">
  <g filter="url(#alpha)">
<rect x="0" y="0" width="306" height="204" style="fill:rgb(0%,0%,0%);fill-opacity:0.301961;stroke:none;"/>
  </g>
</mask>
<clipPath id="clip7">
  <rect x="0" y="0" width="306" height="204"/>
</clipPath>
<g id="surface23" clip-path="url(#clip7)">
<path style="fill:none;stroke-width:1;stroke-linecap:butt;stroke-linejoin:miter;stroke:rgb(0%,0%,0%);stroke-opacity:1;stroke-miterlimit:10;" d="M 391.809121 82.125854 L 439.730335 82.135133 L 439.72661 165.086912 L 391.807528 165.091004 Z M 391.809121 82.125854 " transform="matrix(-0.239471,-0.33033,0.33033,-0.239471,228.37392,217.37424)"/>
<path style="fill:none;stroke-width:1;stroke-linecap:butt;stroke-linejoin:miter;stroke:rgb(0%,0%,0%);stroke-opacity:1;stroke-miterlimit:10;" d="M 380.457261 125.363817 C 382.333793 127.948836 381.74977 131.558287 379.174326 133.425245 C 378.973269 133.568857 378.772212 133.702895 378.561581 133.808211 L 394.713159 156.08724 C 394.885493 155.924479 395.067402 155.771293 395.258885 155.627681 C 397.843903 153.760723 401.462929 154.335172 403.339461 156.92019 C 403.40648 157.015931 403.473499 157.111673 403.530944 157.216988 L 451.526118 122.424556 L 451.305913 122.146906 C 449.438955 119.561887 450.00383 115.952436 452.588848 114.06633 C 452.789905 113.932292 453.000536 113.807828 453.201593 113.692938 L 437.002145 91.423483 C 436.82981 91.586244 436.638327 91.73943 436.446844 91.883042 C 433.861826 93.75 430.252374 93.165977 428.375843 90.590533 C 428.241805 90.39905 428.117341 90.207567 428.002451 89.996936 L 379.997702 124.827665 C 380.170037 125 380.323223 125.172335 380.457261 125.363817 Z M 423.464308 118.049173 C 426.528033 122.280944 425.580193 128.207338 421.348422 131.271063 C 417.116651 134.344363 411.190257 133.396523 408.126532 129.164752 C 405.053232 124.932981 406.001072 119.006587 410.232843 115.942862 C 414.464614 112.879136 420.37186 113.817402 423.435585 118.049173 Z M 423.464308 118.049173 " transform="matrix(0.408,0,0,0.408,0,0)"/>
</g>
<mask id="mask7">
  <g filter="url(#alpha)">
<rect x="0" y="0" width="306" height="204" style="fill:rgb(0%,0%,0%);fill-opacity:0.14902;stroke:none;"/>
  </g>
</mask>
<clipPath id="clip8">
  <rect x="0" y="0" width="306" height="204"/>
</clipPath>
<g id="surface26" clip-path="url(#clip8)">
<path style=" stroke:none;fill-rule:nonzero;fill:rgb(0%,0%,0%);fill-opacity:1;" d="M 19.773438 82.921875 C 22.359375 83.007812 27.703125 80.738281 27.707031 80.738281 C 27.710938 80.738281 25.140625 77.671875 24.953125 77.5 C 22.785156 75.496094 17.417969 72.898438 14.542969 74.519531 C 12.464844 75.691406 12.117188 78.371094 13.433594 80.234375 C 14.753906 82.09375 17.570312 82.851562 19.773438 82.921875 Z M 19.773438 82.921875 "/>
<path style=" stroke:none;fill-rule:nonzero;fill:rgb(0%,0%,0%);fill-opacity:1;" d="M 27.851562 97.796875 C 30.269531 97.222656 34.523438 93.910156 34.863281 93.644531 C 36.746094 96.082031 38.792969 98.390625 40.984375 100.554688 C 42.257812 101.828125 43.578125 103.066406 44.917969 104.289062 C 44.222656 103.824219 43.597656 103.40625 43.503906 103.359375 C 40.882812 102 35.019531 100.910156 32.671875 103.242188 C 30.980469 104.917969 31.355469 107.589844 33.117188 109.046875 C 34.878906 110.503906 37.792969 110.472656 39.9375 109.960938 C 42.085938 109.445312 45.796875 106.695312 46.765625 105.949219 L 48.316406 107.347656 C 50.816406 109.570312 53.316406 111.773438 55.703125 114.007812 C 56.542969 114.792969 57.335938 115.601562 58.152344 116.40625 C 57.53125 116 57.011719 115.648438 56.929688 115.589844 C 54.308594 114.230469 48.445312 113.140625 46.097656 115.472656 C 44.402344 117.144531 44.777344 119.820312 46.539062 121.273438 C 48.304688 122.726562 51.214844 122.707031 53.363281 122.191406 C 55.4375 121.699219 58.863281 119.1875 60.011719 118.316406 C 60.828125 119.164062 61.613281 120.011719 62.347656 120.871094 C 62.835938 121.464844 63.351562 122.007812 63.808594 122.636719 L 65.191406 124.453125 C 66.007812 125.640625 66.898438 126.859375 67.6875 128.039062 C 68.242188 128.855469 68.753906 129.636719 69.273438 130.433594 C 68.457031 129.617188 66.789062 128.117188 66.632812 127.984375 C 64.25 126.242188 58.621094 124.28125 55.945312 126.226562 C 54.019531 127.625 53.988281 130.328125 55.507812 132.03125 C 57.03125 133.738281 59.914062 134.152344 62.109375 133.972656 C 64.527344 133.769531 69.066406 131.265625 69.628906 130.953125 C 70.484375 132.261719 71.300781 133.546875 72.058594 134.773438 C 72.734375 135.867188 73.363281 136.917969 73.953125 137.917969 L 75.878906 137.152344 C 75.207031 136.0625 74.488281 134.925781 73.710938 133.726562 C 72.847656 132.390625 71.902344 130.980469 70.914062 129.539062 C 72.121094 128.390625 73.261719 127.171875 74.328125 125.890625 C 76.578125 126.96875 81.398438 127.355469 82.019531 127.402344 C 82.019531 128.96875 81.984375 130.492188 81.933594 131.929688 C 81.90625 132.917969 81.871094 133.871094 81.824219 134.785156 L 83.863281 133.972656 C 83.863281 133.316406 83.890625 132.65625 83.894531 131.972656 C 83.914062 130.378906 83.894531 128.679688 83.894531 126.933594 C 84.515625 126.828125 89.628906 125.902344 91.644531 124.53125 C 93.464844 123.28125 95.429688 121.1875 95.542969 118.855469 C 95.652344 116.519531 93.910156 114.5 91.535156 114.632812 C 88.234375 114.8125 85.105469 119.886719 84.359375 122.742188 C 84.3125 122.910156 84.035156 124.78125 83.886719 125.980469 C 83.886719 125.269531 83.859375 124.578125 83.835938 123.84375 C 83.796875 122.390625 83.714844 120.945312 83.628906 119.386719 C 83.5625 118.632812 83.496094 117.878906 83.429688 117.113281 C 83.359375 116.34375 83.226562 115.554688 83.128906 114.765625 C 82.859375 112.945312 82.503906 111.113281 82.101562 109.277344 C 83.375 109.238281 87.882812 109.042969 89.878906 108.078125 C 91.875 107.117188 94.128906 105.351562 94.589844 103.0625 C 95.050781 100.773438 93.640625 98.507812 91.269531 98.277344 C 87.980469 97.957031 84.121094 102.5 82.945312 105.214844 C 82.871094 105.382812 82.25 107.421875 81.929688 108.546875 C 81.675781 107.445312 81.433594 106.34375 81.144531 105.234375 C 80.328125 102.039062 79.363281 98.832031 78.4375 95.628906 C 78.152344 94.644531 77.882812 93.664062 77.621094 92.679688 C 78.074219 92.679688 83.441406 92.550781 85.675781 91.457031 C 87.664062 90.503906 89.925781 88.730469 90.386719 86.441406 C 90.847656 84.152344 89.4375 81.890625 87.066406 81.660156 C 83.777344 81.339844 79.914062 85.882812 78.742188 88.597656 C 78.652344 88.800781 77.761719 91.738281 77.574219 92.492188 C 76.964844 90.332031 76.378906 88.171875 75.886719 86.019531 C 75.210938 83.113281 74.726562 80.167969 74.429688 77.203125 C 74.640625 77.203125 80.246094 77.101562 82.535156 75.976562 C 84.515625 75.023438 86.78125 73.253906 87.242188 70.964844 C 87.703125 68.675781 86.292969 66.410156 83.921875 66.175781 C 80.632812 65.859375 76.773438 70.40625 75.597656 73.113281 C 75.507812 73.328125 74.550781 76.484375 74.414062 77.070312 C 74.414062 76.898438 74.363281 76.71875 74.351562 76.550781 C 74.132812 73.558594 74.1875 70.554688 74.503906 67.574219 C 74.660156 65.941406 74.914062 64.367188 75.164062 62.847656 C 76.214844 62.9375 80.996094 63.289062 83.167969 62.523438 C 85.242188 61.789062 87.691406 60.277344 88.398438 58.054688 C 89.101562 55.832031 87.953125 53.421875 85.621094 52.933594 C 82.386719 52.257812 78.050781 56.347656 76.589844 58.910156 C 76.507812 59.050781 75.855469 60.542969 75.398438 61.660156 C 75.527344 60.980469 75.652344 60.269531 75.804688 59.621094 C 76.320312 57.171875 76.941406 54.964844 77.507812 53.015625 C 77.839844 51.90625 78.160156 50.910156 78.46875 49.984375 C 79.539062 49.535156 83.835938 47.675781 85.378906 46.027344 C 86.921875 44.378906 88.359375 41.945312 87.964844 39.644531 C 87.570312 37.34375 85.4375 35.746094 83.140625 36.382812 C 79.960938 37.269531 77.996094 42.910156 77.878906 45.851562 C 77.878906 46.105469 78.167969 50.109375 78.222656 50.085938 L 78.285156 50.0625 C 77.96875 50.945312 77.640625 51.902344 77.304688 52.949219 C 76.691406 54.890625 76.023438 57.09375 75.453125 59.539062 C 74.808594 62.167969 74.320312 64.832031 73.988281 67.515625 C 73.601562 70.519531 73.480469 73.550781 73.632812 76.578125 L 73.632812 76.6875 C 73.289062 75.78125 72.25 73.28125 72.148438 73.097656 C 70.710938 70.519531 66.433594 66.378906 63.171875 67.023438 C 60.835938 67.484375 59.675781 69.921875 60.34375 72.109375 C 61.011719 74.296875 63.453125 75.878906 65.523438 76.632812 C 67.863281 77.488281 73.234375 77.074219 73.664062 77.042969 C 73.894531 80.117188 74.328125 83.175781 74.964844 86.195312 C 75.328125 87.953125 75.746094 89.714844 76.191406 91.472656 C 75.867188 90.703125 75.574219 90.011719 75.519531 89.917969 C 74.085938 87.339844 69.808594 83.199219 66.542969 83.84375 C 64.210938 84.308594 63.042969 86.746094 63.714844 88.933594 C 64.382812 91.117188 66.828125 92.703125 68.898438 93.457031 C 70.972656 94.210938 75.589844 93.964844 76.800781 93.863281 C 76.980469 94.539062 77.148438 95.210938 77.328125 95.90625 C 78.183594 99.136719 79.058594 102.351562 79.816406 105.539062 C 80.082031 106.660156 80.304688 107.773438 80.53125 108.886719 C 80.246094 108.199219 80 107.621094 79.953125 107.539062 C 78.515625 104.957031 74.238281 100.816406 70.976562 101.460938 C 68.640625 101.925781 67.476562 104.367188 68.144531 106.554688 C 68.8125 108.738281 71.257812 110.324219 73.328125 111.078125 C 75.332031 111.808594 79.570312 111.609375 81.015625 111.515625 C 81.210938 112.660156 81.425781 113.8125 81.554688 114.933594 C 81.632812 115.699219 81.757812 116.433594 81.796875 117.210938 C 81.832031 117.984375 81.898438 118.734375 81.945312 119.488281 C 81.992188 120.9375 82.042969 122.4375 82.054688 123.855469 C 82.054688 124.839844 82.054688 125.78125 82.054688 126.710938 C 81.800781 125.59375 81.238281 123.410156 81.191406 123.238281 C 80.199219 120.832031 78.605469 118.726562 76.566406 117.117188 C 76.46875 116.84375 76.34375 116.582031 76.199219 116.332031 C 75.023438 114.371094 72.4375 113.597656 70.523438 115.019531 C 67.871094 116.988281 68.074219 122.949219 69.011719 125.746094 C 69.070312 125.910156 69.878906 127.628906 70.40625 128.707031 C 69.996094 128.125 69.609375 127.550781 69.179688 126.949219 C 68.363281 125.761719 67.480469 124.597656 66.550781 123.347656 L 65.128906 121.558594 C 64.664062 120.957031 64.101562 120.371094 63.582031 119.769531 C 62.359375 118.398438 61.050781 117.066406 59.699219 115.757812 C 60.738281 115.023438 64.390625 112.371094 65.523438 110.453125 C 66.660156 108.535156 67.566406 105.835938 66.6875 103.671875 C 65.808594 101.511719 63.382812 100.410156 61.277344 101.515625 C 58.355469 103.0625 57.644531 108.980469 58.160156 111.886719 C 58.191406 112.070312 58.796875 114.113281 59.152344 115.230469 C 58.335938 114.449219 57.519531 113.664062 56.671875 112.902344 C 54.222656 110.695312 51.652344 108.539062 49.109375 106.375 C 48.332031 105.710938 47.566406 105.042969 46.792969 104.378906 C 47.164062 104.121094 51.574219 101.058594 52.84375 98.929688 C 53.972656 97.035156 54.882812 94.304688 54.007812 92.144531 C 53.128906 89.980469 50.703125 88.878906 48.597656 89.984375 C 45.675781 91.535156 44.960938 97.453125 45.480469 100.359375 C 45.515625 100.582031 46.390625 103.519531 46.652344 104.257812 C 44.953125 102.789062 43.273438 101.304688 41.675781 99.769531 C 39.511719 97.71875 37.480469 95.53125 35.59375 93.21875 C 35.769531 93.097656 40.382812 89.921875 41.683594 87.742188 C 42.816406 85.847656 43.726562 83.121094 42.847656 80.960938 C 41.972656 78.796875 39.542969 77.695312 37.441406 78.800781 C 34.515625 80.347656 33.808594 86.265625 34.320312 89.171875 C 34.363281 89.402344 35.304688 92.5625 35.515625 93.125 C 35.40625 92.992188 35.28125 92.863281 35.171875 92.71875 C 33.347656 90.382812 31.730469 87.890625 30.34375 85.273438 C 29.5625 83.816406 28.902344 82.378906 28.304688 80.96875 C 29.222656 80.464844 33.402344 78.113281 34.789062 76.285156 C 36.121094 74.523438 37.328125 71.914062 36.691406 69.671875 C 36.054688 67.425781 33.765625 66.054688 31.554688 66.933594 C 28.476562 68.15625 27.121094 73.953125 27.3125 76.898438 C 27.3125 77.058594 27.609375 78.675781 27.835938 79.851562 C 27.570312 79.210938 27.28125 78.550781 27.023438 77.933594 C 26.101562 75.605469 25.390625 73.445312 24.796875 71.480469 C 24.464844 70.375 24.183594 69.367188 23.929688 68.425781 C 24.574219 67.457031 27.128906 63.53125 27.507812 61.308594 C 27.886719 59.089844 27.742188 56.265625 26.144531 54.566406 C 24.546875 52.863281 21.886719 52.707031 20.324219 54.5 C 18.15625 56.996094 19.625 62.777344 21.136719 65.304688 C 21.269531 65.519531 23.730469 68.695312 23.761719 68.644531 L 23.800781 68.589844 C 24.027344 69.503906 24.28125 70.480469 24.574219 71.542969 C 25.136719 73.5 25.796875 75.703125 26.667969 78.070312 C 27.578125 80.617188 28.640625 83.109375 29.84375 85.53125 C 31.179688 88.253906 32.753906 90.847656 34.550781 93.285156 L 34.617188 93.371094 C 33.832031 92.804688 31.582031 91.292969 31.394531 91.195312 C 28.777344 89.835938 22.914062 88.75 20.566406 91.078125 C 18.875 92.753906 19.246094 95.425781 21.011719 96.882812 C 22.777344 98.339844 25.703125 98.328125 27.851562 97.796875 Z M 27.851562 97.796875 "/>
<path style=" stroke:none;fill-rule:nonzero;fill:rgb(0%,0%,0%);fill-opacity:1;" d="M 74.773438 62.394531 C 74.835938 62.394531 74.328125 58.421875 74.269531 58.175781 C 73.5625 55.320312 70.519531 50.179688 67.222656 49.949219 C 64.847656 49.777344 63.082031 51.824219 63.140625 54.105469 C 63.203125 56.386719 65.144531 58.5625 66.945312 59.839844 C 69.0625 61.339844 74.769531 62.394531 74.773438 62.394531 Z M 74.773438 62.394531 "/>
</g>
<mask id="mask8">
  <g filter="url(#alpha)">
<rect x="0" y="0" width="306" height="204" style="fill:rgb(0%,0%,0%);fill-opacity:0.14902;stroke:none;"/>
  </g>
</mask>
<clipPath id="clip9">
  <rect x="0" y="0" width="306" height="204"/>
</clipPath>
<g id="surface29" clip-path="url(#clip9)">
<path style=" stroke:none;fill-rule:nonzero;fill:rgb(0%,0%,0%);fill-opacity:1;" d="M 159.71875 125.367188 C 162.714844 125.464844 168.898438 122.839844 168.90625 122.835938 C 168.917969 122.832031 165.9375 119.285156 165.722656 119.085938 C 163.207031 116.765625 156.996094 113.757812 153.660156 115.640625 C 151.257812 116.992188 150.859375 120.09375 152.382812 122.257812 C 153.910156 124.417969 157.164062 125.285156 159.71875 125.367188 Z M 159.71875 125.367188 "/>
<path style=" stroke:none;fill-rule:nonzero;fill:rgb(0%,0%,0%);fill-opacity:1;" d="M 220.265625 185.441406 L 220.503906 185.847656 L 223.207031 185.847656 C 222.878906 185.320312 222.535156 184.792969 222.183594 184.246094 C 221.183594 182.699219 220.085938 181.0625 218.945312 179.398438 C 220.34375 178.066406 221.664062 176.65625 222.898438 175.175781 C 225.5 176.417969 231.082031 176.867188 231.804688 176.921875 C 231.804688 178.738281 231.761719 180.5 231.707031 182.164062 C 231.671875 183.308594 231.625 184.40625 231.578125 185.46875 L 233.9375 184.53125 C 233.9375 183.777344 233.96875 183.007812 233.976562 182.207031 C 233.976562 180.367188 233.976562 178.402344 233.945312 176.378906 C 234.671875 176.25 240.589844 175.1875 242.921875 173.597656 C 245.027344 172.152344 247.308594 169.722656 247.4375 167.027344 C 247.5625 164.332031 245.550781 161.984375 242.792969 162.132812 C 238.972656 162.339844 235.351562 168.21875 234.484375 171.515625 C 234.433594 171.710938 234.113281 173.890625 233.933594 175.265625 C 233.933594 174.449219 233.90625 173.632812 233.878906 172.789062 C 233.832031 171.105469 233.738281 169.429688 233.640625 167.625 C 233.5625 166.757812 233.484375 165.882812 233.410156 164.996094 C 233.351562 164.113281 233.175781 163.191406 233.0625 162.277344 C 232.75 160.171875 232.339844 158.050781 231.875 155.925781 C 233.34375 155.878906 238.570312 155.648438 240.878906 154.535156 C 243.1875 153.421875 245.800781 151.375 246.335938 148.726562 C 246.867188 146.082031 245.234375 143.457031 242.492188 143.1875 C 238.679688 142.816406 234.207031 148.082031 232.851562 151.214844 C 232.765625 151.410156 232.035156 153.769531 231.671875 155.074219 C 231.382812 153.800781 231.097656 152.523438 230.765625 151.242188 C 229.796875 147.539062 228.703125 143.824219 227.632812 140.109375 C 227.300781 138.976562 226.988281 137.839844 226.667969 136.703125 C 227.191406 136.703125 233.40625 136.554688 235.992188 135.304688 C 238.292969 134.199219 240.914062 132.148438 241.445312 129.5 C 241.976562 126.851562 240.347656 124.226562 237.601562 123.957031 C 233.792969 123.585938 229.324219 128.855469 227.964844 131.984375 C 227.863281 132.21875 226.828125 135.621094 226.605469 136.496094 C 225.90625 133.992188 225.226562 131.492188 224.660156 128.996094 C 223.878906 125.636719 223.3125 122.230469 222.972656 118.796875 C 223.210938 118.796875 229.703125 118.679688 232.355469 117.402344 C 234.65625 116.292969 237.277344 114.238281 237.8125 111.59375 C 238.34375 108.945312 236.714844 106.320312 233.96875 106.054688 C 230.15625 105.679688 225.6875 110.953125 224.328125 114.082031 C 224.21875 114.324219 223.101562 117.980469 222.957031 118.660156 C 222.957031 118.457031 222.898438 118.25 222.882812 118.054688 C 222.632812 114.601562 222.691406 111.132812 223.0625 107.6875 C 223.242188 105.78125 223.519531 103.96875 223.828125 102.214844 C 225.054688 102.316406 230.578125 102.722656 233.089844 101.835938 C 235.496094 100.988281 238.328125 99.238281 239.144531 96.664062 C 239.960938 94.089844 238.636719 91.304688 235.933594 90.734375 C 232.1875 89.949219 227.171875 94.6875 225.472656 97.671875 C 225.382812 97.835938 224.625 99.578125 224.09375 100.859375 C 224.246094 100.066406 224.386719 99.25 224.546875 98.496094 C 225.140625 95.640625 225.863281 93.105469 226.515625 90.84375 C 226.902344 89.5625 227.273438 88.398438 227.636719 87.335938 C 228.859375 86.816406 233.84375 84.660156 235.632812 82.753906 C 237.417969 80.847656 239.089844 78.03125 238.628906 75.371094 C 238.164062 72.710938 235.703125 70.847656 233.046875 71.585938 C 229.375 72.617188 227.085938 79.136719 226.949219 82.550781 C 226.949219 82.84375 227.28125 87.484375 227.359375 87.445312 L 227.433594 87.417969 C 227.066406 88.441406 226.6875 89.546875 226.292969 90.765625 C 225.585938 93.011719 224.8125 95.5625 224.152344 98.394531 C 223.40625 101.4375 222.839844 104.519531 222.453125 107.625 C 222.007812 111.105469 221.871094 114.617188 222.046875 118.121094 C 222.046875 118.160156 222.046875 118.207031 222.046875 118.246094 C 221.636719 117.199219 220.441406 114.300781 220.324219 114.089844 C 218.664062 111.101562 213.695312 106.308594 209.941406 107.054688 C 207.234375 107.59375 205.890625 110.417969 206.675781 112.945312 C 207.464844 115.476562 210.277344 117.3125 212.675781 118.183594 C 215.378906 119.175781 221.605469 118.695312 222.097656 118.65625 C 222.367188 122.21875 222.871094 125.765625 223.609375 129.261719 C 224.015625 131.300781 224.511719 133.34375 225.023438 135.382812 C 224.648438 134.484375 224.308594 133.683594 224.253906 133.578125 C 222.589844 130.59375 217.625 125.796875 213.867188 126.546875 C 211.160156 127.082031 209.8125 129.90625 210.601562 132.4375 C 211.390625 134.964844 214.203125 136.800781 216.601562 137.675781 C 219.003906 138.546875 224.355469 138.261719 225.757812 138.164062 C 225.960938 138.945312 226.167969 139.726562 226.363281 140.507812 C 227.359375 144.246094 228.371094 147.96875 229.246094 151.65625 C 229.558594 152.957031 229.8125 154.246094 230.0625 155.535156 C 229.734375 154.742188 229.445312 154.074219 229.390625 153.976562 C 227.730469 150.988281 222.765625 146.195312 219.007812 146.941406 C 216.300781 147.480469 214.953125 150.304688 215.742188 152.832031 C 216.53125 155.363281 219.34375 157.199219 221.742188 158.070312 C 224.066406 158.921875 228.972656 158.6875 230.644531 158.578125 C 230.875 159.90625 231.101562 161.238281 231.265625 162.535156 C 231.355469 163.425781 231.503906 164.273438 231.546875 165.175781 C 231.59375 166.078125 231.667969 166.941406 231.722656 167.808594 C 231.773438 169.492188 231.835938 171.226562 231.847656 172.871094 C 231.847656 174.007812 231.847656 175.097656 231.847656 176.195312 C 231.550781 174.898438 230.925781 172.371094 230.851562 172.167969 C 229.699219 169.390625 227.855469 166.953125 225.492188 165.089844 C 225.378906 164.773438 225.234375 164.472656 225.066406 164.183594 C 223.707031 161.910156 220.707031 161.015625 218.496094 162.660156 C 215.425781 164.941406 215.640625 171.84375 216.746094 175.082031 C 216.8125 175.273438 217.746094 177.265625 218.378906 178.511719 C 217.90625 177.835938 217.457031 177.167969 216.964844 176.472656 C 216 175.097656 214.996094 173.75 213.917969 172.296875 L 212.285156 170.230469 C 211.753906 169.527344 211.097656 168.855469 210.5 168.15625 C 209.078125 166.570312 207.566406 165.027344 206.011719 163.515625 C 207.214844 162.664062 211.445312 159.589844 212.753906 157.394531 C 214.066406 155.199219 215.117188 152.046875 214.101562 149.539062 C 213.085938 147.035156 210.277344 145.75 207.839844 147.042969 C 204.457031 148.835938 203.632812 155.6875 204.226562 159.054688 C 204.265625 159.261719 204.96875 161.628906 205.375 162.921875 C 204.429688 162.015625 203.488281 161.109375 202.519531 160.226562 C 199.664062 157.671875 196.714844 155.175781 193.765625 152.671875 C 192.867188 151.90625 191.976562 151.136719 191.082031 150.359375 C 191.515625 150.0625 196.621094 146.515625 198.09375 144.050781 C 199.398438 141.859375 200.453125 138.699219 199.433594 136.199219 C 198.414062 133.699219 195.613281 132.410156 193.175781 133.699219 C 189.792969 135.492188 188.964844 142.34375 189.5625 145.710938 C 189.605469 145.960938 190.617188 149.382812 190.917969 150.222656 C 188.953125 148.519531 187.007812 146.804688 185.160156 145.042969 C 182.652344 142.667969 180.296875 140.136719 178.117188 137.460938 C 178.320312 137.320312 183.664062 133.644531 185.171875 131.117188 C 186.480469 128.925781 187.53125 125.769531 186.515625 123.265625 C 185.5 120.761719 182.691406 119.476562 180.253906 120.769531 C 176.871094 122.558594 176.046875 129.414062 176.644531 132.777344 C 176.6875 133.039062 177.78125 136.703125 178.027344 137.351562 C 177.898438 137.199219 177.753906 137.050781 177.617188 136.890625 C 175.476562 134.140625 173.582031 131.203125 171.960938 128.113281 C 171.058594 126.421875 170.292969 124.761719 169.582031 123.125 C 170.644531 122.542969 175.488281 119.824219 177.097656 117.703125 C 178.632812 115.664062 180.03125 112.644531 179.296875 110.046875 C 178.5625 107.445312 175.910156 105.855469 173.347656 106.871094 C 169.785156 108.28125 168.214844 115.003906 168.449219 118.414062 C 168.449219 118.601562 168.796875 120.453125 169.058594 121.832031 C 168.75 121.089844 168.414062 120.328125 168.132812 119.609375 C 167.066406 116.921875 166.257812 114.390625 165.558594 112.144531 C 165.171875 110.863281 164.84375 109.695312 164.554688 108.601562 C 165.300781 107.484375 168.257812 102.941406 168.695312 100.363281 C 169.125 97.847656 168.96875 94.519531 167.121094 92.554688 C 165.273438 90.589844 162.183594 90.402344 160.375 92.480469 C 157.867188 95.375 159.5625 102.066406 161.339844 104.988281 C 161.496094 105.238281 164.339844 108.914062 164.378906 108.859375 L 164.425781 108.792969 C 164.683594 109.851562 164.976562 110.984375 165.320312 112.210938 C 165.96875 114.476562 166.730469 117.035156 167.742188 119.757812 C 168.796875 122.703125 170.019531 125.589844 171.414062 128.394531 C 172.957031 131.542969 174.78125 134.546875 176.859375 137.371094 L 176.941406 137.46875 C 176.03125 136.8125 173.425781 135.0625 173.210938 134.949219 C 170.175781 133.375 163.386719 132.117188 160.671875 134.8125 C 158.710938 136.753906 159.144531 139.851562 161.183594 141.535156 C 163.222656 143.21875 166.597656 143.1875 169.082031 142.597656 C 171.882812 141.925781 176.8125 138.109375 177.203125 137.785156 C 179.386719 140.609375 181.757812 143.285156 184.300781 145.789062 C 185.773438 147.257812 187.304688 148.691406 188.855469 150.113281 C 188.039062 149.570312 187.328125 149.089844 187.222656 149.035156 C 184.1875 147.460938 177.402344 146.203125 174.679688 148.894531 C 172.722656 150.832031 173.15625 153.933594 175.199219 155.617188 C 177.242188 157.296875 180.609375 157.273438 183.09375 156.675781 C 185.578125 156.082031 189.878906 152.894531 190.996094 152.03125 C 191.601562 152.570312 192.191406 153.113281 192.796875 153.664062 C 195.6875 156.234375 198.585938 158.785156 201.363281 161.375 C 202.339844 162.285156 203.265625 163.21875 204.195312 164.15625 C 203.476562 163.671875 202.875 163.273438 202.777344 163.21875 C 199.742188 161.648438 192.953125 160.390625 190.234375 163.082031 C 188.273438 165.023438 188.707031 168.121094 190.75 169.804688 C 192.789062 171.492188 196.164062 171.457031 198.648438 170.867188 C 201.050781 170.292969 205.015625 167.390625 206.347656 166.378906 C 207.273438 167.363281 208.199219 168.34375 209.050781 169.339844 C 209.617188 170.03125 210.210938 170.660156 210.738281 171.378906 L 212.339844 173.480469 C 213.3125 174.855469 214.316406 176.269531 215.230469 177.636719 C 215.871094 178.578125 216.457031 179.488281 217.066406 180.40625 C 216.109375 179.488281 214.191406 177.726562 214.015625 177.597656 C 211.253906 175.582031 204.734375 173.308594 201.636719 175.558594 C 199.40625 177.191406 199.363281 180.3125 201.132812 182.28125 C 202.898438 184.253906 206.230469 184.730469 208.773438 184.527344 C 211.578125 184.296875 216.828125 181.398438 217.480469 181.03125 C 218.449219 182.535156 219.394531 184.007812 220.265625 185.441406 Z M 220.265625 185.441406 "/>
<path style=" stroke:none;fill-rule:nonzero;fill:rgb(0%,0%,0%);fill-opacity:1;" d="M 223.40625 101.59375 C 223.472656 101.59375 222.886719 96.988281 222.816406 96.695312 C 222 93.375 218.476562 87.4375 214.65625 87.167969 C 211.902344 86.972656 209.859375 89.339844 209.941406 91.984375 C 210.023438 94.628906 212.261719 97.144531 214.34375 98.625 C 216.789062 100.367188 223.402344 101.59375 223.40625 101.59375 Z M 223.40625 101.59375 "/>
</g>
<mask id="mask9">
  <g filter="url(#alpha)">
<rect x="0" y="0" width="306" height="204" style="fill:rgb(0%,0%,0%);fill-opacity:0.34902;stroke:none;"/>
  </g>
</mask>
<clipPath id="clip10">
  <rect x="0" y="0" width="306" height="204"/>
</clipPath>
<g id="surface32" clip-path="url(#clip10)">
<path style=" stroke:none;fill-rule:nonzero;fill:rgb(100%,100%,100%);fill-opacity:1;" d="M 180.355469 121.671875 C 180.355469 114.570312 174.410156 108.808594 167.070312 108.808594 C 159.734375 108.808594 153.789062 114.570312 153.789062 121.671875 C 153.789062 128.777344 159.734375 134.539062 167.070312 134.539062 C 174.410156 134.539062 180.355469 128.777344 180.355469 121.671875 Z M 180.355469 121.671875 "/>
</g>
</defs>
<g id="surface1">
<path style=" stroke:none;fill-rule:nonzero;fill:rgb(18.039216%,76.862745%,71.372549%);fill-opacity:1;" d="M 282.925781 87.433594 C 281.027344 83.5 278.230469 80.066406 274.769531 77.402344 C 260.136719 66.003906 191.667969 14.066406 157.976562 12.992188 C 120.132812 11.765625 -3.699219 153.476562 7.804688 166.808594 C 19.3125 180.136719 161.621094 200.109375 178.261719 196.183594 C 194.90625 192.257812 273.328125 116.972656 280.597656 108.382812 C 286.996094 100.820312 285.570312 93.023438 282.925781 87.433594 Z M 282.925781 87.433594 "/>
<use xlink:href="#surface5" mask="url(#mask0)"/>
<use xlink:href="#surface8" mask="url(#mask1)"/>
<use xlink:href="#surface11" mask="url(#mask2)"/>
<use xlink:href="#surface14" mask="url(#mask3)"/>
<use xlink:href="#surface17" mask="url(#mask4)"/>
<use xlink:href="#surface20" mask="url(#mask5)"/>
<use xlink:href="#surface23" mask="url(#mask6)"/>
<use xlink:href="#surface26" mask="url(#mask7)"/>
<use xlink:href="#surface29" mask="url(#mask8)"/>
<path style="fill-rule:nonzero;fill:rgb(100%,100%,100%);fill-opacity:1;stroke-width:1;stroke-linecap:round;stroke-linejoin:round;stroke:rgb(14.901961%,19.607843%,21.960784%);stroke-opacity:1;stroke-miterlimit:4;" d="M 55.338542 338.493796 L 171.195236 338.493796 L 171.195236 361.15579 L 55.338542 361.15579 Z M 55.338542 338.493796 " transform="matrix(0.408,0,0,0.408,0,0)"/>
<path style="fill-rule:nonzero;fill:rgb(100%,100%,100%);fill-opacity:1;stroke-width:1;stroke-linecap:round;stroke-linejoin:round;stroke:rgb(14.901961%,19.607843%,21.960784%);stroke-opacity:1;stroke-miterlimit:4;" d="M 87.421492 314.67333 L 203.278186 314.67333 L 203.278186 338.493796 L 87.421492 338.493796 Z M 87.421492 314.67333 " transform="matrix(0.408,0,0,0.408,0,0)"/>
<path style="fill-rule:nonzero;fill:rgb(100%,100%,100%);fill-opacity:1;stroke-width:1;stroke-linecap:round;stroke-linejoin:round;stroke:rgb(14.901961%,19.607843%,21.960784%);stroke-opacity:1;stroke-miterlimit:4;" d="M 119.514017 290.84329 L 235.370711 290.84329 L 235.370711 314.663756 L 119.514017 314.663756 Z M 119.514017 290.84329 " transform="matrix(0.408,0,0,0.408,0,0)"/>
<path style="fill-rule:nonzero;fill:rgb(100%,100%,100%);fill-opacity:1;stroke-width:1;stroke-linecap:round;stroke-linejoin:round;stroke:rgb(14.901961%,19.607843%,21.960784%);stroke-opacity:1;stroke-miterlimit:4;" d="M 151.587393 267.022825 L 267.453661 267.022825 L 267.453661 290.84329 L 151.587393 290.84329 Z M 151.587393 267.022825 " transform="matrix(0.408,0,0,0.408,0,0)"/>
<path style="fill-rule:nonzero;fill:rgb(14.901961%,19.607843%,21.960784%);fill-opacity:1;stroke-width:1;stroke-linecap:round;stroke-linejoin:round;stroke:rgb(14.901961%,19.607843%,21.960784%);stroke-opacity:1;stroke-miterlimit:4;" d="M 300.733379 455.470665 L 300.733379 267.022825 L 267.463235 267.022825 L 267.463235 290.84329 L 235.370711 290.84329 L 235.370711 314.67333 L 203.28776 314.67333 L 203.28776 338.493796 L 171.195236 338.493796 L 171.195236 455.470665 Z M 300.733379 455.470665 " transform="matrix(0.408,0,0,0.408,0,0)"/>
<path style="fill-rule:nonzero;fill:rgb(100%,100%,100%);fill-opacity:1;stroke-width:1;stroke-linecap:round;stroke-linejoin:round;stroke:rgb(14.901961%,19.607843%,21.960784%);stroke-opacity:1;stroke-miterlimit:4;" d="M 184.867111 432.789522 L 300.733379 432.789522 L 300.733379 455.461091 L 184.867111 455.461091 Z M 184.867111 432.789522 " transform="matrix(0.408,0,0,0.408,0,0)"/>
<path style="fill-rule:nonzero;fill:rgb(100%,100%,100%);fill-opacity:1;stroke-width:1;stroke-linecap:round;stroke-linejoin:round;stroke:rgb(14.901961%,19.607843%,21.960784%);stroke-opacity:1;stroke-miterlimit:4;" d="M 152.779571 408.970478 L 268.636265 408.970478 L 268.636265 432.790944 L 152.779571 432.790944 Z M 152.779571 408.970478 " transform="matrix(-0.408,0.00000000000000005,-0.00000000000000005,-0.408,171.94344,343.43808)"/>
<path style="fill-rule:nonzero;fill:rgb(100%,100%,100%);fill-opacity:1;stroke-width:1;stroke-linecap:round;stroke-linejoin:round;stroke:rgb(14.901961%,19.607843%,21.960784%);stroke-opacity:1;stroke-miterlimit:4;" d="M 120.692096 385.140944 L 236.54879 385.140944 L 236.54879 408.970983 L 120.692096 408.970983 Z M 120.692096 385.140944 " transform="matrix(-0.408,0.00000000000000005,-0.00000000000000005,-0.408,145.758,323.99688)"/>
<path style="fill-rule:nonzero;fill:rgb(100%,100%,100%);fill-opacity:1;stroke-width:1;stroke-linecap:round;stroke-linejoin:round;stroke:rgb(14.901961%,19.607843%,21.960784%);stroke-opacity:1;stroke-miterlimit:4;" d="M 88.61462 361.320983 L 204.471314 361.320983 L 204.471314 385.141449 L 88.61462 385.141449 Z M 88.61462 361.320983 " transform="matrix(-0.408,0.00000000000000005,-0.00000000000000005,-0.408,119.57664,304.55568)"/>
<path style="fill-rule:nonzero;fill:rgb(14.901961%,19.607843%,21.960784%);fill-opacity:1;stroke-width:1;stroke-linecap:round;stroke-linejoin:round;stroke:rgb(14.901961%,19.607843%,21.960784%);stroke-opacity:1;stroke-miterlimit:4;" d="M 55.338542 455.470665 L 55.338542 361.318551 L 88.608686 361.318551 L 88.608686 385.139017 L 120.691636 385.139017 L 120.691636 408.969056 L 152.784161 408.969056 L 152.784161 432.789522 L 184.867111 432.789522 L 184.867111 455.470665 Z M 55.338542 455.470665 " transform="matrix(0.408,0,0,0.408,0,0)"/>
<path style="fill-rule:nonzero;fill:rgb(100%,100%,100%);fill-opacity:1;stroke-width:1;stroke-linecap:round;stroke-linejoin:round;stroke:rgb(14.901961%,19.607843%,21.960784%);stroke-opacity:1;stroke-miterlimit:4;" d="M 648.542816 312.308517 L 640.998392 337.00023 L 624.281939 324.151731 C 624.023438 322.543275 623.697917 320.953968 623.276654 319.393382 C 622.951134 318.608303 620.959712 316.29136 620.509727 315.391391 C 620.059743 314.491422 619.408701 315.276501 619.408701 315.946691 C 619.408701 316.616881 620.959712 318.828508 620.959712 318.828508 L 620.184206 319.604013 L 613.980162 316.645604 C 613.83655 316.578585 613.664216 316.578585 613.520604 316.636029 C 613.367417 316.693474 613.242953 316.79879 613.175934 316.951976 C 613.061045 317.200904 613.137638 317.507276 613.357843 317.670037 L 616.747089 320.274203 L 616.306679 321.14545 L 610.657935 318.828508 C 610.514323 318.771063 610.351562 318.771063 610.20795 318.838082 C 610.073912 318.905101 609.959023 319.019991 609.911152 319.173177 C 609.834559 319.422105 609.9303 319.690181 610.16008 319.833793 L 615.310968 322.830499 L 611.950444 323.491115 C 611.787684 323.519838 611.653646 323.615579 611.577053 323.759191 C 611.490885 323.902803 611.471737 324.065564 611.519608 324.21875 C 611.596201 324.448529 611.816406 324.61129 612.05576 324.61129 L 615.531173 324.61129 L 612.534467 325.712316 C 612.534467 325.712316 612.917433 326.583563 613.530178 326.545267 L 617.082184 326.382506 L 622.290518 326.708027 C 622.290518 326.708027 639.217601 344.458487 639.782475 345.004213 C 640.337776 345.540365 643.660003 346.746706 644.320619 346.086091 C 644.981235 345.425475 652.410769 336.454504 652.410769 336.454504 L 651.300169 313.198912 C 651.300169 313.198912 650.199142 310.99686 648.542816 312.308517 Z M 648.542816 312.308517 " transform="matrix(0.408,0,0,0.408,0,0)"/>
<path style="fill-rule:nonzero;fill:rgb(14.901961%,19.607843%,21.960784%);fill-opacity:1;stroke-width:1;stroke-linecap:round;stroke-linejoin:round;stroke:rgb(14.901961%,19.607843%,21.960784%);stroke-opacity:1;stroke-miterlimit:4;" d="M 652.535233 283.825444 C 652.535233 283.825444 649.308747 284.04565 647.786458 278.827742 C 646.273744 273.609835 650.17042 272.125843 652.334176 271.70458 C 654.488358 271.273744 654.919194 266.515395 658.586091 265.873928 C 662.262561 265.222886 666.140089 268.248315 667.011336 270.87163 C 667.882583 273.485371 673.49303 269.569547 676.719516 273.025812 C 679.946002 276.491651 679.716222 283.174403 679.716222 285.54879 C 679.716222 287.932751 687.059589 288.363588 687.059589 293.974035 C 687.059589 299.584482 686.188343 302.389706 686.619179 303.251379 C 687.050015 304.113051 690.286075 321.786918 690.286075 321.786918 L 649.998085 321.786918 C 649.998085 321.786918 648.705576 308.8714 650.21829 305.625766 C 651.731005 302.389706 653.033088 302.169501 653.674556 299.153646 C 654.306449 296.128217 653.674556 291.379442 653.243719 289.215686 C 652.918199 287.434896 652.678845 285.634957 652.535233 283.825444 Z M 652.535233 283.825444 " transform="matrix(0.408,0,0,0.408,0,0)"/>
<path style="fill-rule:nonzero;fill:rgb(14.901961%,19.607843%,21.960784%);fill-opacity:1;stroke-width:1;stroke-linecap:round;stroke-linejoin:round;stroke:rgb(14.901961%,19.607843%,21.960784%);stroke-opacity:1;stroke-miterlimit:4;" d="M 660.31901 306.497013 L 648.226869 306.717218 L 650.601256 336.291743 L 673.49303 338.024663 L 684.283088 307.358686 L 671.329274 306.286382 Z M 660.31901 306.497013 " transform="matrix(0.408,0,0,0.408,0,0)"/>
<path style="fill-rule:nonzero;fill:rgb(100%,100%,100%);fill-opacity:1;stroke-width:1;stroke-linecap:round;stroke-linejoin:round;stroke:rgb(14.901961%,19.607843%,21.960784%);stroke-opacity:1;stroke-miterlimit:4;" d="M 656.431909 276.922488 C 656.431909 276.922488 653.186275 281.460631 652.535233 283.825444 C 651.692708 286.573223 651.501225 289.474188 651.999081 292.29856 C 652.650123 295.544194 654.488358 300.886566 655.780867 301.298254 C 657.073376 301.709942 660.529642 301.298254 660.529642 301.298254 L 660.31901 306.477865 L 658.586091 306.477865 L 658.796722 314.252068 L 667.011336 314.682904 L 671.329274 306.257659 L 669.165518 305.826823 L 667.662377 293.102788 C 667.662377 293.102788 669.806985 290.718827 670.027191 288.985907 C 670.151654 288.133808 670.228248 287.262561 670.247396 286.400888 C 670.247396 286.400888 667.662377 288.354013 665.498621 286.400888 C 663.344439 284.447763 662.693398 282.303156 662.042356 280.1394 C 661.391314 277.975643 660.098805 276.261872 659.036075 276.261872 C 658.136106 276.338465 657.255285 276.55867 656.431909 276.922488 Z M 656.431909 276.922488 " transform="matrix(0.408,0,0,0.408,0,0)"/>
<path style="fill-rule:nonzero;fill:rgb(14.901961%,19.607843%,21.960784%);fill-opacity:1;stroke-width:1;stroke-linecap:round;stroke-linejoin:round;stroke:rgb(14.901961%,19.607843%,21.960784%);stroke-opacity:1;stroke-miterlimit:4;" d="M 660.529642 301.317402 L 664.196538 300.015319 L 660.749847 303.911994 Z M 660.529642 301.317402 " transform="matrix(0.408,0,0,0.408,0,0)"/>
<path style="fill-rule:nonzero;fill:rgb(72.941176%,72.941176%,72.941176%);fill-opacity:1;stroke-width:1;stroke-linecap:round;stroke-linejoin:round;stroke:rgb(14.901961%,19.607843%,21.960784%);stroke-opacity:1;stroke-miterlimit:4;" d="M 650.601256 336.291743 L 648.226869 343.845741 C 648.226869 343.845741 639.590993 353.132659 637.858073 370.404412 C 636.134727 387.66659 638.939951 404.727711 639.811198 411.640242 C 640.682445 418.552773 649.002374 449.094286 649.002374 449.094286 L 654.622396 449.094286 C 654.622396 449.094286 652.535233 420.706955 652.535233 417.901731 L 652.535233 402.142693 L 668.409161 445.781633 L 673.598346 446.001838 C 673.598346 446.001838 671.520757 425.38871 670.228248 417.001762 C 669.337852 411.487056 668.121936 406.029795 666.580499 400.658701 C 666.580499 400.658701 678.002451 377.996706 678.002451 362.419577 C 678.002451 346.842448 674.105775 343.424479 674.105775 343.424479 L 673.473882 338.024663 Z M 650.601256 336.291743 " transform="matrix(0.408,0,0,0.408,0,0)"/>
<path style="fill:none;stroke-width:1;stroke-linecap:round;stroke-linejoin:round;stroke:rgb(14.901961%,19.607843%,21.960784%);stroke-opacity:1;stroke-miterlimit:4;" d="M 657.532935 359.997319 C 658.279718 356.627221 658.796722 354.40602 658.796722 354.40602 " transform="matrix(0.408,0,0,0.408,0,0)"/>
<path style="fill:none;stroke-width:1;stroke-linecap:round;stroke-linejoin:round;stroke:rgb(14.901961%,19.607843%,21.960784%);stroke-opacity:1;stroke-miterlimit:4;" d="M 652.535233 402.142693 C 652.535233 402.142693 651.683134 397.824755 652.334176 388.537837 C 652.707567 383.061428 654.890472 372.175628 656.623392 364.181219 " transform="matrix(0.408,0,0,0.408,0,0)"/>
<path style="fill-rule:nonzero;fill:rgb(100%,100%,100%);fill-opacity:1;stroke-width:1;stroke-linecap:round;stroke-linejoin:round;stroke:rgb(14.901961%,19.607843%,21.960784%);stroke-opacity:1;stroke-miterlimit:4;" d="M 649.002374 449.094286 C 649.002374 449.094286 638.863358 453.843061 638.863358 454.915365 C 638.863358 455.997243 655.053232 454.915365 655.053232 454.915365 C 655.426624 453.881357 655.570236 452.780331 655.484069 451.679305 C 655.350031 450.769761 655.053232 449.898514 654.622396 449.094286 Z M 649.002374 449.094286 " transform="matrix(0.408,0,0,0.408,0,0)"/>
<path style="fill-rule:nonzero;fill:rgb(100%,100%,100%);fill-opacity:1;stroke-width:1;stroke-linecap:round;stroke-linejoin:round;stroke:rgb(14.901961%,19.607843%,21.960784%);stroke-opacity:1;stroke-miterlimit:4;" d="M 668.409161 445.781633 C 668.409161 445.781633 663.66996 451.832491 662.147672 453.335631 C 660.625383 454.848346 661.065794 455.930224 662.367877 455.930224 C 663.66996 455.930224 671.013327 455.499387 672.296262 454.637714 C 673.033471 454.168581 673.684513 453.584559 674.239813 452.914369 L 673.598346 446.001838 Z M 668.409161 445.781633 " transform="matrix(0.408,0,0,0.408,0,0)"/>
<path style="fill-rule:nonzero;fill:rgb(100%,100%,100%);fill-opacity:1;stroke-width:1;stroke-linecap:round;stroke-linejoin:round;stroke:rgb(14.901961%,19.607843%,21.960784%);stroke-opacity:1;stroke-miterlimit:4;" d="M 683.000153 311.245787 C 683.000153 311.245787 684.953278 339.95864 683.220358 342.993643 C 681.487439 346.019072 676.528033 344.276578 676.097197 342.993643 C 675.66636 341.701134 676.528033 330.461091 676.528033 330.461091 Z M 683.000153 311.245787 " transform="matrix(0.408,0,0,0.408,0,0)"/>
<path style="fill-rule:nonzero;fill:rgb(18.039216%,76.862745%,71.372549%);fill-opacity:1;stroke-width:1;stroke-linecap:round;stroke-linejoin:round;stroke:rgb(14.901961%,19.607843%,21.960784%);stroke-opacity:1;stroke-miterlimit:4;" d="M 549.953825 248.447116 L 642.428852 248.453347 L 642.427501 408.559006 L 549.951094 408.562248 Z M 549.953825 248.447116 " transform="matrix(0.403737,-0.0588269,0.0588269,0.403737,-16.77696,36.45888)"/>
<path style="fill-rule:nonzero;fill:rgb(100%,100%,100%);fill-opacity:1;stroke-width:1;stroke-linecap:round;stroke-linejoin:round;stroke:rgb(14.901961%,19.607843%,21.960784%);stroke-opacity:1;stroke-miterlimit:4;" d="M 624.818091 266.563266 C 621.888404 266.984528 618.910846 266.237745 616.536458 264.466529 C 614.171645 262.695312 612.591912 260.062423 612.17065 257.132736 C 612.113205 256.673177 612.074908 256.213618 612.065334 255.754059 L 559.522442 263.403799 C 559.646906 263.84421 559.752221 264.294194 559.81924 264.753753 C 560.700061 270.852482 556.477865 276.5108 550.379136 277.401195 C 550.149357 277.401195 549.929151 277.449066 549.699372 277.468214 L 566.176471 390.672871 C 566.40625 390.615426 566.626455 390.567555 566.856235 390.538833 C 569.795496 390.107996 572.773055 390.864354 575.147442 392.645144 C 577.521829 394.41636 579.091988 397.068398 579.513251 399.998085 C 579.58027 400.457644 579.608992 400.917203 579.618566 401.376762 L 632.161458 393.727022 C 632.02742 393.286612 631.931679 392.827053 631.874234 392.367494 C 631.443398 389.447381 632.190181 386.469822 633.961397 384.095435 C 635.732613 381.721048 638.375077 380.150888 641.304764 379.729626 C 641.754749 379.662607 642.214308 379.624311 642.683441 379.624311 L 626.168045 266.266468 C 625.727635 266.390931 625.27765 266.486673 624.818091 266.563266 Z M 598.824295 346.555224 C 588.828891 348.020067 579.541973 341.097963 578.086703 331.102558 C 576.62186 321.107154 583.543964 311.820236 593.539369 310.364966 C 603.534773 308.900123 612.821691 315.822227 614.276961 325.817632 C 614.995021 330.623851 613.759957 335.516238 610.858992 339.422488 C 607.958027 343.319164 603.630515 345.904182 598.824295 346.603094 Z M 598.824295 346.555224 " transform="matrix(0.408,0,0,0.408,0,0)"/>
<path style="fill-rule:nonzero;fill:rgb(18.039216%,76.862745%,71.372549%);fill-opacity:1;stroke-width:1;stroke-linecap:round;stroke-linejoin:round;stroke:rgb(14.901961%,19.607843%,21.960784%);stroke-opacity:1;stroke-miterlimit:4;" d="M 542.084231 255.166863 L 634.557913 255.169426 L 634.558863 415.275 L 542.082712 415.281646 Z M 542.084231 255.166863 " transform="matrix(0.39576,-0.10608,0.10608,0.39576,-27.1932,66.68352)"/>
<path style="fill-rule:nonzero;fill:rgb(100%,100%,100%);fill-opacity:1;stroke-width:1;stroke-linecap:round;stroke-linejoin:round;stroke:rgb(14.901961%,19.607843%,21.960784%);stroke-opacity:1;stroke-miterlimit:4;" d="M 609.53776 270.373775 C 603.592218 271.963082 597.474341 268.430224 595.87546 262.484681 C 595.770144 262.034697 595.674403 261.575138 595.607384 261.115579 L 544.318704 274.835325 C 544.491039 275.266161 544.644225 275.706572 544.768689 276.146982 C 545.53462 279.009651 545.132506 282.054228 543.648514 284.620098 C 542.174096 287.176394 539.73269 289.043352 536.870021 289.809283 C 536.649816 289.866728 536.420037 289.914599 536.199831 289.962469 L 565.764782 400.467218 L 566.415824 400.256587 C 572.370941 398.667279 578.488817 402.200138 580.078125 408.14568 C 580.202589 408.595665 580.288756 409.055224 580.346201 409.514782 L 631.644455 395.785463 C 631.462546 395.3642 631.318934 394.92379 631.19447 394.483379 C 629.605162 388.528263 633.138021 382.410386 639.093137 380.821078 C 639.533548 380.696615 639.993107 380.600873 640.452665 380.553002 L 610.849418 269.92379 C 610.418581 270.096124 609.987745 270.249311 609.53776 270.373775 Z M 593.003217 352.893306 C 583.237592 355.46875 573.232613 349.647672 570.647595 339.891621 C 568.062577 330.13557 573.874081 320.121017 583.630132 317.526425 C 593.386183 314.941406 603.400735 320.743336 605.995328 330.499387 C 607.24954 335.190717 606.588925 340.188419 604.147518 344.391468 C 601.706112 348.594516 597.694547 351.648667 593.003217 352.893306 Z M 593.003217 352.893306 " transform="matrix(0.408,0,0,0.408,0,0)"/>
<path style="fill-rule:nonzero;fill:rgb(100%,100%,100%);fill-opacity:1;stroke-width:1;stroke-linecap:round;stroke-linejoin:round;stroke:rgb(14.901961%,19.607843%,21.960784%);stroke-opacity:1;stroke-miterlimit:4;" d="M 678.002451 338.235294 L 645.833333 337.593827 C 645.833333 337.593827 639.351639 335.43007 638.269761 335.43007 C 636.757047 335.678998 635.26348 336.05239 633.808211 336.559819 C 633.520987 336.655561 633.348652 336.942785 633.406097 337.239583 C 633.473116 337.55553 633.779488 337.756587 634.085861 337.699142 L 637.197457 337.16299 L 638.05913 337.804458 L 631.826363 341.796875 C 631.567862 341.96921 631.481694 342.313879 631.625306 342.591529 C 631.778493 342.869179 632.123162 342.984069 632.410386 342.850031 L 637.092142 340.647978 L 637.245328 341.825597 L 632.247626 344.439338 C 631.922105 344.611673 631.778493 345.004213 631.912531 345.348882 C 632.046569 345.683977 632.400812 345.865885 632.745481 345.789292 L 634.583716 345.36803 C 635.014553 345.894608 635.713465 346.124387 636.374081 345.942479 L 639.782475 344.937194 L 637.618719 346.31587 C 637.446385 346.421186 637.341069 346.603094 637.321921 346.794577 C 637.302773 346.995634 637.379366 347.187117 637.532552 347.321155 C 637.752757 347.49349 638.068704 347.49349 638.288909 347.321155 L 642.606847 344.372319 L 646.31204 342.007506 L 678.911994 347.751991 C 678.911994 347.751991 681.659773 347.991345 682.13848 347.436045 C 682.617188 346.890319 683.545879 341.691559 683.632047 340.35118 " transform="matrix(0.408,0,0,0.408,0,0)"/>
<path style="fill-rule:nonzero;fill:rgb(100%,100%,100%);fill-opacity:1;stroke-width:1;stroke-linecap:round;stroke-linejoin:round;stroke:rgb(14.901961%,19.607843%,21.960784%);stroke-opacity:1;stroke-miterlimit:4;" d="M 634.59329 345.387178 L 638.997396 343.740426 " transform="matrix(0.408,0,0,0.408,0,0)"/>
<path style=" stroke:none;fill-rule:nonzero;fill:rgb(14.901961%,19.607843%,21.960784%);fill-opacity:1;" d="M 267.414062 116.957031 C 267.414062 117.257812 267.261719 117.507812 267.066406 117.507812 C 266.867188 117.507812 266.714844 117.257812 266.714844 116.957031 C 266.714844 116.65625 266.871094 116.410156 267.066406 116.410156 C 267.257812 116.410156 267.414062 116.65625 267.414062 116.957031 Z M 267.414062 116.957031 "/>
<path style=" stroke:none;fill-rule:nonzero;fill:rgb(14.901961%,19.607843%,21.960784%);fill-opacity:1;" d="M 269.386719 117.375 C 269.386719 117.675781 269.226562 117.921875 269.035156 117.921875 C 268.84375 117.921875 268.683594 117.675781 268.683594 117.375 C 268.683594 117.070312 268.84375 116.828125 269.035156 116.828125 C 269.226562 116.828125 269.386719 117.070312 269.386719 117.375 Z M 269.386719 117.375 "/>
<path style="fill:none;stroke-width:1;stroke-linecap:round;stroke-linejoin:round;stroke:rgb(14.901961%,19.607843%,21.960784%);stroke-opacity:1;stroke-miterlimit:4;" d="M 653.502221 283.605239 C 653.502221 283.605239 654.363894 282.532935 656.068091 283.710555 " transform="matrix(0.408,0,0,0.408,0,0)"/>
<path style="fill:none;stroke-width:1;stroke-linecap:round;stroke-linejoin:round;stroke:rgb(14.901961%,19.607843%,21.960784%);stroke-opacity:1;stroke-miterlimit:4;" d="M 658.432904 284.246706 C 659.64882 283.767999 661.027497 284.342448 661.554075 285.539216 " transform="matrix(0.408,0,0,0.408,0,0)"/>
<path style="fill:none;stroke-width:1;stroke-linecap:round;stroke-linejoin:round;stroke:rgb(14.901961%,19.607843%,21.960784%);stroke-opacity:1;stroke-miterlimit:4;" d="M 656.288297 286.716835 C 656.403186 287.358303 656.36489 288.028493 656.182981 288.650812 C 655.85746 289.397595 654.363894 290.785846 654.46921 291.120941 C 654.584099 291.446461 655.321308 291.647518 655.321308 291.647518 " transform="matrix(0.408,0,0,0.408,0,0)"/>
<path style="fill:none;stroke-width:1;stroke-linecap:round;stroke-linejoin:round;stroke:rgb(14.901961%,19.607843%,21.960784%);stroke-opacity:1;stroke-miterlimit:4;" d="M 654.363894 294.232537 C 654.363894 294.232537 657.3606 295.620787 659.715839 293.686811 " transform="matrix(0.408,0,0,0.408,0,0)"/>
<path style="fill-rule:nonzero;fill:rgb(100%,100%,100%);fill-opacity:1;stroke-width:1;stroke-linecap:round;stroke-linejoin:round;stroke:rgb(14.901961%,19.607843%,21.960784%);stroke-opacity:1;stroke-miterlimit:4;" d="M 355.07621 178.012025 C 355.07621 197.04542 339.652267 212.469363 320.618873 212.469363 C 301.585478 212.469363 286.161535 197.04542 286.161535 178.012025 C 286.161535 158.978631 301.585478 143.554688 320.618873 143.554688 C 339.652267 143.554688 355.07621 158.978631 355.07621 178.012025 Z M 355.07621 178.012025 " transform="matrix(0.408,0,0,0.408,0,0)"/>
<path style="fill-rule:nonzero;fill:rgb(100%,100%,100%);fill-opacity:1;stroke-width:1;stroke-linecap:round;stroke-linejoin:round;stroke:rgb(14.901961%,19.607843%,21.960784%);stroke-opacity:1;stroke-miterlimit:4;" d="M 358.561198 178.012025 C 358.561198 197.04542 343.127681 212.469363 324.10386 212.469363 C 305.070466 212.469363 289.636949 197.04542 289.636949 178.012025 C 289.636949 158.978631 305.070466 143.554688 324.10386 143.554688 C 343.127681 143.554688 358.561198 158.978631 358.561198 178.012025 Z M 358.561198 178.012025 " transform="matrix(0.408,0,0,0.408,0,0)"/>
<path style="fill-rule:nonzero;fill:rgb(100%,100%,100%);fill-opacity:1;stroke-width:1;stroke-linecap:round;stroke-linejoin:round;stroke:rgb(14.901961%,19.607843%,21.960784%);stroke-opacity:1;stroke-miterlimit:4;" d="M 353.342764 178.011223 C 353.335994 194.157532 340.242929 207.250597 324.10339 207.250597 C 307.950311 207.250597 294.857245 194.157532 294.864015 178.011223 C 294.857245 161.864914 307.950311 148.771848 324.10339 148.771848 C 340.249699 148.765078 353.342764 161.858144 353.342764 178.011223 Z M 353.342764 178.011223 " transform="matrix(0.2885,-0.2885,0.2885,0.2885,-12.62352,114.77448)"/>
<path style="fill-rule:nonzero;fill:rgb(100%,100%,100%);fill-opacity:1;stroke-width:1;stroke-linecap:round;stroke-linejoin:round;stroke:rgb(14.901961%,19.607843%,21.960784%);stroke-opacity:1;stroke-miterlimit:4;" d="M 324.429381 198.567708 L 324.429381 194.718903 C 321.585861 194.613588 319.469975 193.704044 318.062577 191.990273 C 316.655178 190.276501 315.889246 187.720205 315.783931 184.330959 L 321.624157 183.325674 C 321.643306 184.493719 321.786918 185.652191 322.04542 186.781939 C 322.20818 187.557445 322.571998 188.275506 323.10815 188.849954 C 323.596431 189.319087 324.257047 189.568015 324.927237 189.539292 C 325.626149 189.615885 326.305913 189.290365 326.688879 188.706342 C 327.0144 188.122319 327.167586 187.471278 327.158012 186.801088 C 327.196308 185.546875 326.851639 184.311811 326.162301 183.268229 C 325.396369 182.195925 324.505974 181.228937 323.491115 180.386412 L 319.977405 177.389706 C 319.211474 176.681219 318.483839 175.915288 317.823223 175.11106 C 317.181756 174.316406 316.664752 173.426011 316.310509 172.468597 C 315.917969 171.338848 315.726486 170.151654 315.745634 168.945312 C 315.611596 166.704963 316.415824 164.512485 317.966835 162.894455 C 319.584865 161.38174 321.700751 160.500919 323.912377 160.424326 L 323.912377 156.738281 L 325.913373 156.738281 L 325.913373 160.424326 C 327.196308 160.443474 328.450521 160.788143 329.570695 161.420037 C 330.480239 161.965763 331.227022 162.731694 331.7536 163.650812 C 332.251455 164.56993 332.605699 165.56564 332.81633 166.590074 C 333.036535 167.604933 333.170573 168.63894 333.237592 169.672947 L 327.320772 170.544194 C 327.301624 169.634651 327.215456 168.725107 327.071844 167.834712 C 326.976103 167.164522 326.727175 166.532629 326.334635 165.986903 C 325.913373 165.527344 325.291054 165.28799 324.668735 165.374157 C 323.969822 165.364583 323.309206 165.699678 322.907093 166.283701 C 322.504979 166.867724 322.294347 167.566636 322.313496 168.284697 C 322.265625 169.376149 322.581572 170.448453 323.223039 171.338848 C 323.854933 172.133502 324.544271 172.880285 325.291054 173.569623 L 328.728171 176.56633 C 329.637714 177.39928 330.480239 178.299249 331.24617 179.256664 C 332.021676 180.233226 332.653569 181.315104 333.113128 182.473575 C 333.601409 183.746936 333.840763 185.106464 333.821615 186.465993 C 333.840763 187.854243 333.53439 189.223346 332.931219 190.467984 C 332.347197 191.655178 331.466376 192.670037 330.355775 193.388097 C 329.178156 194.163603 327.818627 194.623162 326.411229 194.718903 L 326.411229 198.606005 Z M 324.429381 198.567708 " transform="matrix(0.408,0,0,0.408,0,0)"/>
<path style="fill-rule:nonzero;fill:rgb(14.901961%,19.607843%,21.960784%);fill-opacity:1;stroke-width:1;stroke-linecap:round;stroke-linejoin:round;stroke:rgb(14.901961%,19.607843%,21.960784%);stroke-opacity:1;stroke-miterlimit:4;" d="M 237.544041 173.751532 L 238.625919 224.27428 L 238.185509 260.186887 L 244.073606 259.31564 C 244.073606 259.31564 250.39254 225.566789 250.39254 223.613664 C 250.39254 221.650965 253.867953 196.614583 253.867953 196.614583 L 260.397518 229.051777 L 263.786765 260.177313 L 269.665288 259.306066 C 269.665288 259.306066 270.421645 225.557215 270.421645 219.468061 C 270.421645 213.378906 270.115273 174.172794 270.115273 174.172794 L 251.694623 169.385723 Z M 237.544041 173.751532 " transform="matrix(0.408,0,0,0.408,0,0)"/>
<path style="fill-rule:nonzero;fill:rgb(100%,100%,100%);fill-opacity:1;stroke-width:1;stroke-linecap:round;stroke-linejoin:round;stroke:rgb(14.901961%,19.607843%,21.960784%);stroke-opacity:1;stroke-miterlimit:4;" d="M 244.073606 259.31564 C 244.073606 259.31564 252.776501 264.983532 251.483992 266.323912 C 250.181909 267.664292 242.982154 266.323912 241.019455 266.103707 C 240.109911 266.065411 239.22909 265.845205 238.405714 265.452665 L 238.185509 260.21561 Z M 244.073606 259.31564 " transform="matrix(0.408,0,0,0.408,0,0)"/>
<path style="fill-rule:nonzero;fill:rgb(100%,100%,100%);fill-opacity:1;stroke-width:1;stroke-linecap:round;stroke-linejoin:round;stroke:rgb(14.901961%,19.607843%,21.960784%);stroke-opacity:1;stroke-miterlimit:4;" d="M 269.665288 259.31564 C 269.665288 259.31564 278.377757 264.983532 277.0661 266.323912 C 275.764017 267.664292 268.58341 266.323912 266.620711 266.103707 C 265.711167 266.065411 264.830346 265.845205 264.00697 265.452665 L 263.786765 260.21561 Z M 269.665288 259.31564 " transform="matrix(0.408,0,0,0.408,0,0)"/>
<path style="fill-rule:nonzero;fill:rgb(100%,100%,100%);fill-opacity:1;stroke-width:1;stroke-linecap:round;stroke-linejoin:round;stroke:rgb(14.901961%,19.607843%,21.960784%);stroke-opacity:1;stroke-miterlimit:4;" d="M 314.558441 142.511106 L 322.409237 140.701593 C 322.409237 140.701593 329.953661 144.703585 330.57598 145.268459 C 331.207874 145.842907 329.953661 145.900352 328.584559 145.900352 C 326.430377 145.613128 324.304917 145.191866 322.20818 144.626991 C 322.20818 144.626991 325.501685 145.632276 324.965533 146.120558 C 324.371936 146.589691 323.596431 146.781173 322.849648 146.647135 C 322.32307 146.54182 320.302926 146.216299 320.302926 146.216299 C 320.302926 146.216299 316.79879 146.120558 315.73606 145.900352 L 314.682904 145.689721 Z M 314.558441 142.511106 " transform="matrix(0.408,0,0,0.408,0,0)"/>
<path style="fill-rule:nonzero;fill:rgb(18.039216%,76.862745%,71.372549%);fill-opacity:1;stroke-width:1;stroke-linecap:round;stroke-linejoin:round;stroke:rgb(14.901961%,19.607843%,21.960784%);stroke-opacity:1;stroke-miterlimit:4;" d="M 263.777191 111.375996 C 263.777191 111.375996 245.921415 121.380974 243.623621 124.253217 C 241.316253 127.115885 240.550322 141.534544 239.008885 151.711857 C 238.0036 159.285003 237.429151 166.915594 237.275965 174.55576 C 237.275965 174.55576 250.153186 176.28868 257.276348 176.097197 C 261.632583 175.963159 265.950521 175.321691 270.153569 174.182368 C 270.153569 174.182368 272.65242 161.314721 273.217295 159.390319 C 273.791743 157.465916 278.40648 134.392233 278.40648 134.392233 L 292.624081 145.718444 L 314.558441 145.718444 L 314.558441 142.472809 C 314.558441 142.472809 297.200521 138.470818 297.009038 137.838925 C 296.817555 137.207031 282.216988 116.325827 277.803309 113.83655 C 273.380055 111.347273 266.860064 109.068627 263.777191 111.375996 Z M 263.777191 111.375996 " transform="matrix(0.408,0,0,0.408,0,0)"/>
<path style="fill-rule:nonzero;fill:rgb(100%,100%,100%);fill-opacity:1;stroke-width:1;stroke-linecap:round;stroke-linejoin:round;stroke:rgb(14.901961%,19.607843%,21.960784%);stroke-opacity:1;stroke-miterlimit:4;" d="M 265.51011 105.813419 L 262.245328 113.683364 C 262.245328 113.683364 260.713465 114.06633 261.096431 117.139629 C 261.488971 120.212929 265.318627 128.848805 266.659007 128.657322 C 267.999387 128.465839 272.231158 116.996017 272.231158 116.996017 Z M 265.51011 105.813419 " transform="matrix(0.408,0,0,0.408,0,0)"/>
<path style="fill-rule:nonzero;fill:rgb(14.901961%,19.607843%,21.960784%);fill-opacity:1;stroke-width:1;stroke-linecap:round;stroke-linejoin:round;stroke:rgb(14.901961%,19.607843%,21.960784%);stroke-opacity:1;stroke-miterlimit:4;" d="M 267.348346 114.497166 L 268.707874 124.990426 L 271.273744 119.829963 Z M 267.348346 114.497166 " transform="matrix(0.408,0,0,0.408,0,0)"/>
<path style="fill-rule:nonzero;fill:rgb(14.901961%,19.607843%,21.960784%);fill-opacity:1;stroke-width:1;stroke-linecap:round;stroke-linejoin:round;stroke:rgb(14.901961%,19.607843%,21.960784%);stroke-opacity:1;stroke-miterlimit:4;" d="M 283.758425 101.198683 C 285.060509 102.290135 286.898744 102.443321 288.363588 101.591222 C 291.245404 100.241268 292.585784 97.359452 290.086933 95.061657 C 287.588082 92.763863 286.247702 95.25314 285.481771 92.179841 C 284.706265 89.106541 281.64254 87.00023 279.000077 87.756587 C 276.357613 88.522518 277.276731 89.489507 275.361903 90.063955 C 273.4375 90.62883 270.938649 88.905484 268.439798 91.413909 C 265.940947 93.91276 265.557981 99.858303 264.993107 102.548637 C 264.418658 105.238971 266.907935 105.995328 268.985524 105.813419 C 271.072687 105.621936 272.834329 101.198683 274.557675 99.810432 C 276.290594 98.422181 283.758425 101.198683 283.758425 101.198683 Z M 283.758425 101.198683 " transform="matrix(0.408,0,0,0.408,0,0)"/>
<path style="fill-rule:nonzero;fill:rgb(100%,100%,100%);fill-opacity:1;stroke-width:1;stroke-linecap:round;stroke-linejoin:round;stroke:rgb(14.901961%,19.607843%,21.960784%);stroke-opacity:1;stroke-miterlimit:4;" d="M 265.127145 106.57935 C 265.127145 106.57935 265.318627 110.801547 266.13243 112.151501 C 266.936657 113.501455 270.134421 119.829963 271.31204 119.829963 C 272.537531 119.916131 273.772595 119.782093 274.959789 119.437423 C 275.72572 119.064032 278.79902 115.033318 280.723422 111.567479 C 282.638251 108.111213 283.796722 101.198683 283.796722 101.198683 C 283.796722 101.198683 274.576823 95.444623 274.002374 96.59352 C 273.418352 97.742417 273.619409 99.465763 272.661994 99.657246 C 271.70458 99.848729 269.588695 100.049786 269.588695 100.049786 C 269.588695 100.049786 270.163143 102.740119 269.387638 103.314568 C 268.621706 103.879442 266.697304 102.740119 266.697304 102.740119 C 266.697304 102.740119 264.361213 103.123085 265.127145 106.57935 Z M 265.127145 106.57935 " transform="matrix(0.408,0,0,0.408,0,0)"/>
<path style=" stroke:none;fill-rule:nonzero;fill:rgb(14.901961%,19.607843%,21.960784%);fill-opacity:1;" d="M 112.53125 43.761719 C 112.460938 44.058594 112.269531 44.273438 112.121094 44.234375 C 111.976562 44.199219 111.878906 43.921875 111.945312 43.625 C 112.015625 43.324219 112.207031 43.109375 112.375 43.148438 C 112.542969 43.191406 112.609375 43.464844 112.53125 43.761719 Z M 112.53125 43.761719 "/>
<path style=" stroke:none;fill-rule:nonzero;fill:rgb(14.901961%,19.607843%,21.960784%);fill-opacity:1;" d="M 114.578125 44.332031 C 114.503906 44.636719 114.316406 44.84375 114.148438 44.804688 C 113.984375 44.769531 113.90625 44.492188 113.976562 44.195312 C 114.042969 43.898438 114.234375 43.679688 114.382812 43.722656 C 114.53125 43.761719 114.648438 44.035156 114.578125 44.332031 Z M 114.578125 44.332031 "/>
<path style="fill:none;stroke-width:1;stroke-linecap:round;stroke-linejoin:round;stroke:rgb(14.901961%,19.607843%,21.960784%);stroke-opacity:1;stroke-miterlimit:4;" d="M 273.705576 104.511336 C 273.705576 104.511336 274.471507 103.898591 276.711857 104.511336 " transform="matrix(0.408,0,0,0.408,0,0)"/>
<path style="fill:none;stroke-width:1;stroke-linecap:round;stroke-linejoin:round;stroke:rgb(14.901961%,19.607843%,21.960784%);stroke-opacity:1;stroke-miterlimit:4;" d="M 280.081955 105.880438 C 280.895757 105.97618 281.623392 106.41659 282.08295 107.08678 " transform="matrix(0.408,0,0,0.408,0,0)"/>
<path style="fill:none;stroke-width:1;stroke-linecap:round;stroke-linejoin:round;stroke:rgb(14.901961%,19.607843%,21.960784%);stroke-opacity:1;stroke-miterlimit:4;" d="M 278.40648 108.609069 L 277.650123 112.697227 L 275.227865 112.400429 " transform="matrix(0.408,0,0,0.408,0,0)"/>
<path style="fill:none;stroke-width:1;stroke-linecap:round;stroke-linejoin:round;stroke:rgb(14.901961%,19.607843%,21.960784%);stroke-opacity:1;stroke-miterlimit:4;" d="M 274.471507 114.822687 C 274.471507 114.822687 272.192862 114.822687 271.465227 111.644072 " transform="matrix(0.408,0,0,0.408,0,0)"/>
<path style="fill-rule:nonzero;fill:rgb(100%,100%,100%);fill-opacity:1;stroke-width:1;stroke-linecap:round;stroke-linejoin:round;stroke:rgb(14.901961%,19.607843%,21.960784%);stroke-opacity:1;stroke-miterlimit:4;" d="M 267.616422 104.473039 C 267.616422 104.473039 267.24303 100.049786 265.51011 100.049786 C 263.777191 100.049786 262.245328 104.051777 263.212316 105.813419 C 264.16973 107.565487 266.659007 108.111213 266.659007 108.111213 " transform="matrix(0.408,0,0,0.408,0,0)"/>
<path style="fill-rule:nonzero;fill:rgb(18.039216%,76.862745%,71.372549%);fill-opacity:1;stroke-width:1;stroke-linecap:round;stroke-linejoin:round;stroke:rgb(14.901961%,19.607843%,21.960784%);stroke-opacity:1;stroke-miterlimit:4;" d="M 252.297794 127.690334 L 255.629596 155.292586 L 283.633961 164.857154 L 284.074372 168.102788 L 246.629902 162.99977 L 240.626915 131.941253 C 239.89928 128.169041 241.842831 124.080882 244.533165 121.792662 C 247.223499 119.504442 251.436121 119.379979 251.436121 119.379979 " transform="matrix(0.408,0,0,0.408,0,0)"/>
<path style="fill-rule:nonzero;fill:rgb(100%,100%,100%);fill-opacity:1;stroke-width:1;stroke-linecap:round;stroke-linejoin:round;stroke:rgb(14.901961%,19.607843%,21.960784%);stroke-opacity:1;stroke-miterlimit:4;" d="M 283.586091 164.857154 C 283.586091 164.857154 288.047641 163.612515 288.593367 163.497626 C 289.129519 163.39231 292.164522 165.737975 292.758119 165.824142 C 293.36129 165.900735 294.376149 166.092218 294.328278 166.877298 C 294.280407 167.671952 294.021906 168.313419 292.557062 167.80599 C 291.724112 167.537914 290.919884 167.202819 290.144378 166.810279 C 291.51348 168.217678 292.96875 169.529335 294.500613 170.7644 C 295.055913 171.109069 295.553768 171.520757 296.003753 171.999464 C 296.137791 172.143076 296.195236 172.353707 296.156939 172.54519 C 296.118643 172.746247 295.994179 172.918581 295.81227 173.004749 C 294.615502 173.569623 293.322993 173.904718 292.001762 174.00046 C 289.857154 174.00046 283.997779 168.112362 283.997779 168.112362 Z M 283.586091 164.857154 " transform="matrix(0.408,0,0,0.408,0,0)"/>
<path style="fill-rule:nonzero;fill:rgb(18.039216%,76.862745%,71.372549%);fill-opacity:1;stroke-width:1;stroke-linecap:round;stroke-linejoin:round;stroke:rgb(14.901961%,19.607843%,21.960784%);stroke-opacity:1;stroke-miterlimit:4;" d="M 458.199295 246.76394 C 458.199295 246.76394 486.816406 230.621936 490.990732 232.182521 C 495.155484 233.743107 487.342984 265.490962 486.299403 267.568551 C 485.255821 269.64614 458.199295 246.76394 458.199295 246.76394 Z M 458.199295 246.76394 " transform="matrix(0.408,0,0,0.408,0,0)"/>
<path style="fill:none;stroke-width:1;stroke-linecap:round;stroke-linejoin:round;stroke:rgb(14.901961%,19.607843%,21.960784%);stroke-opacity:1;stroke-miterlimit:4;" d="M 489.420573 236.347273 C 489.420573 236.347273 488.175934 238.28125 486.596201 241.057751 C 483.838848 245.921415 480.057062 253.379672 480.057062 257.688036 C 480.057062 264.447381 484.221814 263.930377 485.255821 258.693321 L 488.903569 243.585325 " transform="matrix(0.408,0,0,0.408,0,0)"/>
<path style="fill-rule:nonzero;fill:rgb(18.039216%,76.862745%,71.372549%);fill-opacity:1;stroke-width:1;stroke-linecap:round;stroke-linejoin:round;stroke:rgb(14.901961%,19.607843%,21.960784%);stroke-opacity:1;stroke-miterlimit:4;" d="M 263.068704 312.940411 C 263.068704 302.724801 256.711474 294.443168 248.860677 294.443168 C 241.009881 294.443168 234.65265 302.724801 234.65265 312.940411 C 234.65265 323.15602 241.009881 331.437653 248.860677 331.437653 C 256.711474 331.437653 263.068704 323.15602 263.068704 312.940411 Z M 263.068704 312.940411 " transform="matrix(0.408,0,0,0.408,0,0)"/>
<path style="fill-rule:nonzero;fill:rgb(18.039216%,76.862745%,71.372549%);fill-opacity:1;stroke-width:1;stroke-linecap:round;stroke-linejoin:round;stroke:rgb(14.901961%,19.607843%,21.960784%);stroke-opacity:1;stroke-miterlimit:4;" d="M 513.05913 331.064262 C 513.05913 267.75046 452.435662 216.433058 377.661612 216.433058 C 302.877987 216.433058 242.264093 267.75046 242.264093 331.064262 C 242.264093 394.36849 302.877987 445.685892 377.661612 445.685892 C 452.435662 445.685892 513.05913 394.36849 513.05913 331.064262 Z M 513.05913 331.064262 " transform="matrix(0.408,0,0,0.408,0,0)"/>
<path style="fill-rule:nonzero;fill:rgb(18.039216%,76.862745%,71.372549%);fill-opacity:1;stroke-width:2;stroke-linecap:round;stroke-linejoin:round;stroke:rgb(14.901961%,19.607843%,21.960784%);stroke-opacity:1;stroke-miterlimit:4;" d="M 465.600107 410.079657 C 442.603018 428.404565 411.697687 439.62546 377.661612 439.62546 C 316.91368 439.62546 266.01754 403.856464 252.776501 355.842142 " transform="matrix(0.408,0,0,0.408,0,0)"/>
<path style="fill-rule:nonzero;fill:rgb(18.039216%,76.862745%,71.372549%);fill-opacity:1;stroke-width:2;stroke-linecap:round;stroke-linejoin:round;stroke:rgb(14.901961%,19.607843%,21.960784%);stroke-opacity:1;stroke-miterlimit:4;" d="M 249.502145 334.664139 C 249.454274 333.467371 249.425551 332.270604 249.425551 331.064262 C 249.435126 317.966835 252.182904 305.022595 257.486979 293.064491 " transform="matrix(0.408,0,0,0.408,0,0)"/>
<path style="fill:none;stroke-width:5;stroke-linecap:round;stroke-linejoin:round;stroke:rgb(14.901961%,19.607843%,21.960784%);stroke-opacity:1;stroke-miterlimit:4;" d="M 337.00023 229.051777 C 363.645067 221.516927 391.860064 221.516927 418.495328 229.051777 " transform="matrix(0.408,0,0,0.408,0,0)"/>
<path style="fill-rule:nonzero;fill:rgb(18.039216%,76.862745%,71.372549%);fill-opacity:1;stroke-width:1;stroke-linecap:round;stroke-linejoin:round;stroke:rgb(14.901961%,19.607843%,21.960784%);stroke-opacity:1;stroke-miterlimit:4;" d="M 505.562577 295.678232 C 505.562577 295.678232 522.738588 289.952895 525.342754 293.08364 C 527.937347 296.214384 527.937347 332.634421 525.859758 339.403339 C 523.782169 346.172258 509.717754 344.602099 499.856388 337.316176 C 494.121477 333.285463 490.789675 326.631434 491.019455 319.623162 " transform="matrix(0.408,0,0,0.408,0,0)"/>
<path style="fill:none;stroke-width:1;stroke-linecap:round;stroke-linejoin:round;stroke:rgb(14.901961%,19.607843%,21.960784%);stroke-opacity:1;stroke-miterlimit:4;" d="M 495.14591 318.062577 L 484.738817 319.623162 " transform="matrix(0.408,0,0,0.408,0,0)"/>
<path style="fill-rule:nonzero;fill:rgb(14.901961%,19.607843%,21.960784%);fill-opacity:1;stroke-width:1;stroke-linecap:round;stroke-linejoin:round;stroke:rgb(14.901961%,19.607843%,21.960784%);stroke-opacity:1;stroke-miterlimit:4;" d="M 492.551317 329.513251 C 492.551317 329.513251 489.947151 347.732843 493.068321 348.249847 C 496.189491 348.76685 501.397825 339.403339 501.397825 339.403339 C 501.397825 339.403339 494.111903 331.073836 492.551317 329.513251 Z M 492.551317 329.513251 " transform="matrix(0.408,0,0,0.408,0,0)"/>
<path style=" stroke:none;fill-rule:nonzero;fill:rgb(14.901961%,19.607843%,21.960784%);fill-opacity:1;" d="M 197.097656 117.03125 C 197.503906 118.5625 197.253906 119.949219 196.574219 120.125 C 195.894531 120.296875 195.023438 119.195312 194.628906 117.675781 C 194.234375 116.152344 194.46875 114.757812 195.152344 114.582031 C 195.832031 114.40625 196.703125 115.496094 197.097656 117.03125 Z M 197.097656 117.03125 "/>
<path style="fill-rule:nonzero;fill:rgb(18.039216%,76.862745%,71.372549%);fill-opacity:1;stroke-width:1;stroke-linecap:round;stroke-linejoin:round;stroke:rgb(14.901961%,19.607843%,21.960784%);stroke-opacity:1;stroke-miterlimit:4;" d="M 428.385417 236.404718 C 428.385417 236.404718 461.138557 203.651578 467.534084 210.037531 C 473.920037 216.433058 471.526501 244.389553 471.526501 248.391544 L 471.526501 259.574142 " transform="matrix(0.408,0,0,0.408,0,0)"/>
<path style="fill:none;stroke-width:1;stroke-linecap:round;stroke-linejoin:round;stroke:rgb(14.901961%,19.607843%,21.960784%);stroke-opacity:1;stroke-miterlimit:4;" d="M 468.606388 217.093673 C 468.606388 217.093673 469.132966 208.76417 465.475643 213.972503 C 461.827895 219.180836 451.430377 255.083869 454.551547 259.248621 C 457.672718 263.422947 466.547947 261.32621 468.606388 253.523284 C 470.674403 245.710784 469.132966 223.32644 469.132966 223.32644 " transform="matrix(0.408,0,0,0.408,0,0)"/>
<path style="fill-rule:nonzero;fill:rgb(18.039216%,76.862745%,71.372549%);fill-opacity:1;stroke-width:1;stroke-linecap:round;stroke-linejoin:round;stroke:rgb(14.901961%,19.607843%,21.960784%);stroke-opacity:1;stroke-miterlimit:4;" d="M 289.34015 407.044654 L 307.262944 455.470665 L 327.043122 455.470665 L 335.880055 430.482154 " transform="matrix(0.408,0,0,0.408,0,0)"/>
<path style="fill-rule:nonzero;fill:rgb(18.039216%,76.862745%,71.372549%);fill-opacity:1;stroke-width:1;stroke-linecap:round;stroke-linejoin:round;stroke:rgb(14.901961%,19.607843%,21.960784%);stroke-opacity:1;stroke-miterlimit:4;" d="M 454.551547 413.306143 L 437.375536 455.470665 L 417.595358 455.470665 L 408.748851 430.482154 " transform="matrix(0.408,0,0,0.408,0,0)"/>
<path style=" stroke:none;fill-rule:nonzero;fill:rgb(14.901961%,19.607843%,21.960784%);fill-opacity:1;" d="M 151.386719 158.238281 L 151.386719 154.113281 C 148.34375 153.996094 146.070312 153.019531 144.5625 151.1875 C 143.054688 149.359375 142.238281 146.625 142.113281 142.988281 L 148.371094 141.921875 C 148.394531 143.167969 148.550781 144.410156 148.835938 145.625 C 149 146.453125 149.390625 147.21875 149.964844 147.839844 C 150.488281 148.335938 151.191406 148.601562 151.914062 148.574219 C 152.828125 148.574219 153.457031 148.28125 153.800781 147.683594 C 154.148438 147.0625 154.324219 146.355469 154.308594 145.644531 C 154.355469 144.304688 153.992188 142.980469 153.265625 141.851562 C 152.453125 140.707031 151.492188 139.667969 150.410156 138.773438 L 146.640625 135.535156 C 145.816406 134.769531 145.046875 133.953125 144.335938 133.085938 C 143.636719 132.230469 143.082031 131.265625 142.703125 130.230469 C 142.277344 129.019531 142.074219 127.742188 142.101562 126.460938 C 142.101562 123.683594 142.894531 121.519531 144.476562 119.96875 C 146.058594 118.414062 148.179688 117.535156 150.835938 117.328125 L 150.835938 113.425781 L 153 113.425781 L 153 117.371094 C 154.378906 117.398438 155.726562 117.769531 156.921875 118.453125 C 157.890625 119.039062 158.691406 119.863281 159.25 120.847656 C 159.789062 121.835938 160.179688 122.898438 160.402344 124 C 160.625 125.085938 160.769531 126.1875 160.832031 127.296875 L 154.492188 128.226562 C 154.476562 127.253906 154.386719 126.28125 154.226562 125.320312 C 154.128906 124.605469 153.847656 123.925781 153.410156 123.351562 C 152.964844 122.851562 152.304688 122.605469 151.640625 122.6875 C 150.890625 122.675781 150.183594 123.039062 149.757812 123.660156 C 149.328125 124.273438 149.105469 125 149.113281 125.746094 C 149.058594 126.914062 149.402344 128.0625 150.089844 129.007812 C 150.765625 129.863281 151.507812 130.664062 152.304688 131.40625 L 155.976562 134.59375 C 156.964844 135.488281 157.878906 136.457031 158.710938 137.496094 C 159.542969 138.539062 160.214844 139.695312 160.707031 140.933594 C 161.230469 142.3125 161.484375 143.777344 161.453125 145.246094 C 161.472656 146.726562 161.144531 148.191406 160.5 149.523438 C 159.878906 150.792969 158.933594 151.875 157.753906 152.652344 C 156.484375 153.472656 155.027344 153.960938 153.519531 154.070312 L 153.519531 158.238281 Z M 151.386719 158.238281 "/>
<use xlink:href="#surface32" mask="url(#mask9)"/>
<path style="fill:none;stroke-width:1;stroke-linecap:round;stroke-linejoin:round;stroke:rgb(14.901961%,19.607843%,21.960784%);stroke-opacity:1;stroke-miterlimit:4;" d="M 16.027114 455.470665 L 737.362132 455.470665 " transform="matrix(0.408,0,0,0.408,0,0)"/>
</g>
</svg>
