<?xml version="1.0" encoding="UTF-8"?>
<svg xmlns="http://www.w3.org/2000/svg" xmlns:xlink="http://www.w3.org/1999/xlink" width="204px" height="204px" viewBox="0 0 204 204" version="1.1">
<defs>
<filter id="alpha" filterUnits="objectBoundingBox" x="0%" y="0%" width="100%" height="100%">
  <feColorMatrix type="matrix" in="SourceGraphic" values="0 0 0 0 1 0 0 0 0 1 0 0 0 0 1 0 0 0 1 0"/>
</filter>
<mask id="mask0">
  <g filter="url(#alpha)">
<rect x="0" y="0" width="204" height="204" style="fill:rgb(0%,0%,0%);fill-opacity:0.101961;stroke:none;"/>
  </g>
</mask>
<clipPath id="clip1">
  <rect x="0" y="0" width="204" height="204"/>
</clipPath>
<g id="surface5" clip-path="url(#clip1)">
<path style=" stroke:none;fill-rule:nonzero;fill:rgb(0%,0%,0%);fill-opacity:1;" d="M 43.082031 143.902344 C 42.835938 141.070312 40.277344 135.386719 37.015625 131.96875 C 33.757812 128.546875 28.90625 126.265625 25.722656 127.671875 C 22.757812 128.984375 23.441406 132.964844 27.378906 135.296875 C 31.320312 137.628906 37.183594 140.480469 39.214844 144.929688 L 43.128906 150.265625 Z M 43.082031 143.902344 "/>
</g>
<mask id="mask1">
  <g filter="url(#alpha)">
<rect x="0" y="0" width="204" height="204" style="fill:rgb(0%,0%,0%);fill-opacity:0.101961;stroke:none;"/>
  </g>
</mask>
<clipPath id="clip2">
  <rect x="0" y="0" width="204" height="204"/>
</clipPath>
<g id="surface8" clip-path="url(#clip2)">
<path style=" stroke:none;fill-rule:nonzero;fill:rgb(0%,0%,0%);fill-opacity:1;" d="M 153.886719 140.230469 C 153.824219 137.953125 154.457031 134.132812 156.703125 130.320312 C 159.105469 126.242188 162.273438 123.507812 164.9375 124.339844 C 167.417969 125.113281 166.875 128.480469 163.144531 132.148438 C 160.527344 134.71875 157.875 137.988281 156.664062 141.714844 L 154.566406 146.523438 Z M 153.886719 140.230469 "/>
</g>
<mask id="mask2">
  <g filter="url(#alpha)">
<rect x="0" y="0" width="204" height="204" style="fill:rgb(0%,0%,0%);fill-opacity:0.4;stroke:none;"/>
  </g>
</mask>
<clipPath id="clip3">
  <rect x="0" y="0" width="204" height="204"/>
</clipPath>
<g id="surface11" clip-path="url(#clip3)">
<path style=" stroke:none;fill-rule:nonzero;fill:rgb(15.294118%,87.058824%,74.901961%);fill-opacity:1;" d="M 71.140625 71.21875 C 75.714844 68.574219 79.421875 70.71875 79.421875 76 C 79.421875 81.28125 75.714844 87.707031 71.140625 90.347656 C 66.5625 92.988281 62.855469 90.847656 62.855469 85.566406 C 62.855469 80.28125 66.5625 73.859375 71.140625 71.21875 Z M 71.140625 71.21875 "/>
<path style=" stroke:none;fill-rule:nonzero;fill:rgb(15.294118%,87.058824%,74.901961%);fill-opacity:1;" d="M 87.464844 99.46875 C 87.464844 90.789062 81.371094 86.9375 73.855469 91.277344 L 69.15625 93.988281 C 61.640625 98.328125 55.546875 108.882812 55.546875 117.5625 L 55.546875 119.898438 L 87.464844 101.480469 Z M 87.464844 99.46875 "/>
</g>
<mask id="mask3">
  <g filter="url(#alpha)">
<rect x="0" y="0" width="204" height="204" style="fill:rgb(0%,0%,0%);fill-opacity:0.101961;stroke:none;"/>
  </g>
</mask>
<clipPath id="clip4">
  <rect x="0" y="0" width="204" height="204"/>
</clipPath>
<g id="surface14" clip-path="url(#clip4)">
<path style=" stroke:none;fill-rule:nonzero;fill:rgb(0%,0%,0%);fill-opacity:1;" d="M 89.023438 142.535156 L 84.125 139.734375 L 84.109375 139.730469 L 84.109375 139.726562 C 81.667969 138.308594 80.160156 135.28125 80.160156 130.96875 C 80.160156 126.34375 81.898438 121.1875 84.660156 116.730469 L 89.890625 119.746094 C 87.125 124.199219 85.390625 129.351562 85.390625 133.972656 C 85.390625 138.097656 86.769531 141.042969 89.023438 142.535156 Z M 89.023438 142.535156 "/>
</g>
<mask id="mask4">
  <g filter="url(#alpha)">
<rect x="0" y="0" width="204" height="204" style="fill:rgb(0%,0%,0%);fill-opacity:0.4;stroke:none;"/>
  </g>
</mask>
<clipPath id="clip5">
  <rect x="0" y="0" width="204" height="204"/>
</clipPath>
<g id="surface17" clip-path="url(#clip5)">
<path style=" stroke:none;fill-rule:nonzero;fill:rgb(100%,100%,100%);fill-opacity:1;" d="M 108.105469 109.347656 C 105.695312 108.175781 102.476562 108.472656 98.9375 110.511719 C 95.457031 112.527344 92.285156 115.871094 89.890625 119.746094 L 84.660156 116.730469 C 87.050781 112.859375 90.226562 109.515625 93.699219 107.511719 C 97.414062 105.367188 100.773438 105.160156 103.222656 106.542969 L 103.226562 106.53125 L 103.277344 106.5625 C 103.28125 106.5625 103.285156 106.5625 103.285156 106.5625 Z M 108.105469 109.347656 "/>
</g>
<mask id="mask5">
  <g filter="url(#alpha)">
<rect x="0" y="0" width="204" height="204" style="fill:rgb(0%,0%,0%);fill-opacity:0.6;stroke:none;"/>
  </g>
</mask>
<clipPath id="clip6">
  <rect x="0" y="0" width="204" height="204"/>
</clipPath>
<g id="surface20" clip-path="url(#clip6)">
<path style=" stroke:none;fill-rule:nonzero;fill:rgb(0%,0%,0%);fill-opacity:1;" d="M 154.128906 90.445312 C 156.921875 96.546875 154.03125 118.039062 154.03125 118.039062 C 154.113281 119.03125 155.246094 120.976562 155.667969 125.335938 C 156.164062 130.484375 154.886719 143.414062 154.886719 143.414062 C 154.886719 143.414062 153.21875 144.503906 151.242188 143.558594 C 151.242188 143.558594 147.808594 124.085938 147.164062 118.96875 C 146.601562 114.5 145.519531 103.996094 145.519531 103.996094 L 142.710938 119.0625 C 142.710938 119.0625 143.621094 121.515625 143.808594 123.421875 C 144.097656 126.433594 143.878906 140.363281 143.878906 140.363281 C 143.878906 140.363281 142.648438 141.300781 140.289062 140.953125 C 140.289062 140.953125 136.199219 121.882812 135.882812 118.257812 C 135.695312 116.09375 138.164062 89.550781 138.164062 89.550781 Z M 154.128906 90.445312 "/>
</g>
<mask id="mask6">
  <g filter="url(#alpha)">
<rect x="0" y="0" width="204" height="204" style="fill:rgb(0%,0%,0%);fill-opacity:0.301961;stroke:none;"/>
  </g>
</mask>
<clipPath id="clip7">
  <rect x="0" y="0" width="204" height="204"/>
</clipPath>
<g id="surface23" clip-path="url(#clip7)">
<path style=" stroke:none;fill-rule:nonzero;fill:rgb(0%,0%,0%);fill-opacity:1;" d="M 145.519531 103.996094 L 144.609375 99.007812 C 144.609375 99.007812 140.773438 98.214844 139.035156 96.578125 C 139.035156 96.578125 140.859375 98.847656 143.570312 99.59375 L 144.589844 103.957031 L 142.984375 117.582031 Z M 145.519531 103.996094 "/>
</g>
<mask id="mask7">
  <g filter="url(#alpha)">
<rect x="0" y="0" width="204" height="204" style="fill:rgb(0%,0%,0%);fill-opacity:0.6;stroke:none;"/>
  </g>
</mask>
<clipPath id="clip8">
  <rect x="0" y="0" width="204" height="204"/>
</clipPath>
<g id="surface26" clip-path="url(#clip8)">
<path style=" stroke:none;fill-rule:nonzero;fill:rgb(0%,0%,0%);fill-opacity:1;" d="M 143.300781 69.085938 C 140.945312 69.109375 138.351562 69.964844 137.460938 71.8125 C 136.570312 73.65625 134.097656 78.75 134.097656 78.75 C 134.097656 78.75 136.296875 81.738281 139.597656 81.523438 Z M 143.300781 69.085938 "/>
</g>
<mask id="mask8">
  <g filter="url(#alpha)">
<rect x="0" y="0" width="204" height="204" style="fill:rgb(0%,0%,0%);fill-opacity:0.6;stroke:none;"/>
  </g>
</mask>
<clipPath id="clip9">
  <rect x="0" y="0" width="204" height="204"/>
</clipPath>
<g id="surface29" clip-path="url(#clip9)">
<path style=" stroke:none;fill-rule:nonzero;fill:rgb(0%,0%,0%);fill-opacity:1;" d="M 150.132812 69.246094 C 152.269531 69.550781 155.410156 69.980469 156.492188 75.0625 C 157.589844 80.210938 157.800781 81.4375 157.800781 81.4375 C 157.800781 81.4375 155.929688 83.300781 152.382812 83.285156 C 152.382812 83.285156 149.257812 73.171875 150.132812 69.246094 Z M 150.132812 69.246094 "/>
</g>
<mask id="mask9">
  <g filter="url(#alpha)">
<rect x="0" y="0" width="204" height="204" style="fill:rgb(0%,0%,0%);fill-opacity:0.14902;stroke:none;"/>
  </g>
</mask>
<clipPath id="clip10">
  <rect x="0" y="0" width="204" height="204"/>
</clipPath>
<g id="surface32" clip-path="url(#clip10)">
<path style=" stroke:none;fill-rule:nonzero;fill:rgb(0%,0%,0%);fill-opacity:1;" d="M 130.277344 89.859375 C 130.152344 90.210938 129.394531 91.183594 127.785156 91.105469 L 127.589844 90.398438 Z M 130.277344 89.859375 "/>
</g>
<mask id="mask10">
  <g filter="url(#alpha)">
<rect x="0" y="0" width="204" height="204" style="fill:rgb(0%,0%,0%);fill-opacity:0.14902;stroke:none;"/>
  </g>
</mask>
<clipPath id="clip11">
  <rect x="0" y="0" width="204" height="204"/>
</clipPath>
<g id="surface35" clip-path="url(#clip11)">
<path style=" stroke:none;fill-rule:nonzero;fill:rgb(0%,0%,0%);fill-opacity:1;" d="M 133.367188 90.398438 C 133.425781 90.851562 134.367188 91.699219 135.953125 92.230469 C 137.761719 92.832031 140.53125 92.511719 140.53125 92.511719 L 140.285156 91.660156 Z M 133.367188 90.398438 "/>
</g>
<mask id="mask11">
  <g filter="url(#alpha)">
<rect x="0" y="0" width="204" height="204" style="fill:rgb(0%,0%,0%);fill-opacity:0.14902;stroke:none;"/>
  </g>
</mask>
<clipPath id="clip12">
  <rect x="0" y="0" width="204" height="204"/>
</clipPath>
<g id="surface38" clip-path="url(#clip12)">
<path style=" stroke:none;fill-rule:nonzero;fill:rgb(0%,0%,0%);fill-opacity:1;" d="M 128.300781 81 C 128.300781 81 128.25 80.765625 128.1875 80.472656 C 128.125 80.183594 128.933594 80.171875 129.996094 80.445312 L 132.03125 80.972656 C 133.09375 81.25 134.007812 81.707031 134.070312 82 L 134.183594 82.527344 Z M 128.300781 81 "/>
</g>
</defs>
<g id="surface1">
<path style=" stroke:none;fill-rule:nonzero;fill:rgb(96.078431%,96.078431%,96.078431%);fill-opacity:1;" d="M 39.679688 175.21875 C 74.792969 193.5625 131.726562 193.5625 166.839844 175.21875 C 201.953125 156.875 201.953125 127.132812 166.839844 108.789062 C 131.722656 90.445312 74.792969 90.445312 39.679688 108.789062 C 4.566406 127.132812 4.566406 156.875 39.679688 175.21875 Z M 39.679688 175.21875 "/>
<path style=" stroke:none;fill-rule:nonzero;fill:rgb(87.843137%,87.843137%,87.843137%);fill-opacity:1;" d="M 161.386719 148.929688 C 161.386719 143.609375 153.917969 139.296875 144.703125 139.296875 C 135.488281 139.296875 128.019531 143.609375 128.019531 148.929688 C 128.019531 154.25 135.488281 158.5625 144.703125 158.5625 C 153.917969 158.5625 161.386719 154.25 161.386719 148.929688 Z M 161.386719 148.929688 "/>
<path style=" stroke:none;fill-rule:nonzero;fill:rgb(15.294118%,87.058824%,74.901961%);fill-opacity:1;" d="M 43.082031 143.902344 C 42.835938 141.070312 40.277344 135.386719 37.015625 131.96875 C 33.757812 128.546875 28.90625 126.265625 25.722656 127.671875 C 22.757812 128.984375 23.441406 132.964844 27.378906 135.296875 C 31.320312 137.628906 37.183594 140.480469 39.214844 144.929688 L 43.128906 150.265625 Z M 43.082031 143.902344 "/>
<use xlink:href="#surface5" mask="url(#mask0)"/>
<path style=" stroke:none;fill-rule:nonzero;fill:rgb(100%,100%,100%);fill-opacity:1;" d="M 43.628906 147.757812 C 43.539062 147.757812 43.457031 147.699219 43.429688 147.605469 C 40.691406 138.109375 32.1875 130.9375 27.355469 129.609375 C 27.246094 129.582031 27.179688 129.464844 27.210938 129.355469 C 27.242188 129.246094 27.351562 129.179688 27.464844 129.210938 C 32.390625 130.5625 41.046875 137.851562 43.828125 147.492188 C 43.859375 147.601562 43.796875 147.71875 43.6875 147.75 C 43.667969 147.753906 43.648438 147.757812 43.628906 147.757812 Z M 43.628906 147.757812 "/>
<path style=" stroke:none;fill-rule:nonzero;fill:rgb(15.294118%,87.058824%,74.901961%);fill-opacity:1;" d="M 42.730469 154.070312 C 42.136719 152.515625 39.960938 150.0625 36.628906 148.167969 C 32.941406 146.070312 28.445312 145.351562 27.265625 143.574219 C 25.851562 141.4375 27.558594 139.152344 31.167969 139.28125 C 34.78125 139.414062 41.488281 143.738281 43.132812 150.988281 Z M 42.730469 154.070312 "/>
<path style=" stroke:none;fill-rule:nonzero;fill:rgb(100%,100%,100%);fill-opacity:1;" d="M 43.273438 152.339844 C 43.195312 152.339844 43.121094 152.292969 43.085938 152.21875 C 39.398438 144.199219 32.828125 141.84375 29.871094 141.71875 C 29.753906 141.714844 29.667969 141.617188 29.671875 141.503906 C 29.675781 141.386719 29.769531 141.300781 29.886719 141.304688 C 33.160156 141.441406 39.699219 143.859375 43.460938 152.042969 C 43.511719 152.148438 43.464844 152.269531 43.359375 152.320312 C 43.332031 152.332031 43.304688 152.339844 43.273438 152.339844 Z M 43.273438 152.339844 "/>
<path style=" stroke:none;fill-rule:nonzero;fill:rgb(15.294118%,87.058824%,74.901961%);fill-opacity:1;" d="M 153.886719 140.230469 C 153.824219 137.953125 154.457031 134.132812 156.703125 130.320312 C 159.105469 126.242188 162.273438 123.507812 164.9375 124.339844 C 167.417969 125.113281 166.875 128.480469 163.144531 132.148438 C 160.527344 134.71875 157.875 137.988281 156.664062 141.714844 L 154.566406 146.523438 Z M 153.886719 140.230469 "/>
<path style=" stroke:none;fill-rule:nonzero;fill:rgb(15.294118%,87.058824%,74.901961%);fill-opacity:1;" d="M 153.886719 140.230469 C 153.824219 137.953125 154.457031 134.132812 156.703125 130.320312 C 159.105469 126.242188 162.273438 123.507812 164.9375 124.339844 C 167.417969 125.113281 166.875 128.480469 163.144531 132.148438 C 160.527344 134.71875 157.875 137.988281 156.664062 141.714844 L 154.566406 146.523438 Z M 153.886719 140.230469 "/>
<use xlink:href="#surface8" mask="url(#mask1)"/>
<path style=" stroke:none;fill-rule:nonzero;fill:rgb(100%,100%,100%);fill-opacity:1;" d="M 154.300781 141.929688 C 154.367188 141.921875 154.421875 141.875 154.441406 141.804688 C 156.039062 135.300781 160.089844 128.457031 163.863281 125.882812 C 163.9375 125.832031 163.957031 125.734375 163.90625 125.660156 C 163.855469 125.585938 163.753906 125.566406 163.679688 125.617188 C 159.847656 128.226562 155.742188 135.15625 154.125 141.730469 C 154.105469 141.816406 154.160156 141.902344 154.246094 141.925781 C 154.261719 141.929688 154.28125 141.929688 154.300781 141.929688 Z M 154.300781 141.929688 "/>
<path style=" stroke:none;fill-rule:nonzero;fill:rgb(15.294118%,87.058824%,74.901961%);fill-opacity:1;" d="M 153.863281 147.609375 C 153.863281 147.609375 155.457031 149.203125 158.296875 149.828125 C 161.132812 150.453125 162.480469 149.15625 162.480469 149.15625 C 162.480469 149.15625 161.511719 146.402344 159.929688 145.550781 C 159.929688 145.550781 162.65625 146.277344 164.78125 147.886719 C 164.78125 147.886719 166.53125 148.019531 167.386719 145.390625 C 167.386719 145.390625 166.445312 143.71875 163.019531 142.644531 C 163.019531 142.644531 165.167969 142.238281 168.167969 143.199219 C 168.394531 143.300781 169.574219 139.90625 169.964844 138.332031 C 170.355469 136.757812 169.710938 136.734375 168.488281 136.328125 C 167.269531 135.925781 163.050781 135.464844 162.234375 136.101562 C 161.414062 136.738281 160.878906 139.050781 160.878906 139.050781 C 160.878906 139.050781 160.214844 137.683594 160.464844 136.515625 C 160.464844 136.515625 159.242188 136.015625 157.816406 136.417969 C 156.394531 136.824219 156.441406 137.507812 156.382812 138.523438 C 156.316406 139.609375 156.382812 140.335938 156.621094 141.570312 C 156.621094 141.570312 155.707031 140.679688 155.855469 137.605469 C 155.855469 137.605469 153.871094 139.105469 153.03125 140.449219 C 152.191406 141.789062 152.167969 145.429688 153.863281 147.609375 Z M 153.863281 147.609375 "/>
<path style=" stroke:none;fill-rule:nonzero;fill:rgb(100%,100%,100%);fill-opacity:1;" d="M 153.855469 147.769531 C 153.914062 147.773438 153.972656 147.742188 154.003906 147.6875 C 156.601562 143.019531 165.535156 137.949219 168.648438 137.535156 C 168.738281 137.523438 168.800781 137.441406 168.789062 137.351562 C 168.777344 137.265625 168.695312 137.203125 168.605469 137.214844 C 165.4375 137.636719 156.363281 142.789062 153.722656 147.527344 C 153.679688 147.605469 153.707031 147.707031 153.785156 147.75 C 153.808594 147.761719 153.832031 147.765625 153.855469 147.769531 Z M 153.855469 147.769531 "/>
<path style=" stroke:none;fill-rule:nonzero;fill:rgb(21.568627%,27.843137%,30.980392%);fill-opacity:1;" d="M 45.289062 157.195312 L 44.179688 156.554688 C 43.277344 156.035156 42.546875 154.769531 42.546875 153.726562 L 42.546875 56.421875 C 42.546875 55.378906 43.277344 54.113281 44.179688 53.59375 L 89.054688 27.683594 C 89.957031 27.160156 91.417969 27.160156 92.320312 27.683594 L 93.433594 28.324219 C 94.335938 28.84375 95.066406 30.109375 95.066406 31.152344 L 95.066406 128.457031 C 95.066406 129.5 94.335938 130.765625 93.433594 131.285156 L 48.554688 157.195312 C 47.652344 157.71875 46.191406 157.71875 45.289062 157.195312 Z M 45.289062 157.195312 "/>
<path style=" stroke:none;fill-rule:nonzero;fill:rgb(14.901961%,19.607843%,21.960784%);fill-opacity:1;" d="M 49.109375 58.324219 L 43.023438 54.8125 C 42.726562 55.324219 42.546875 55.898438 42.546875 56.421875 L 42.546875 153.726562 C 42.546875 154.765625 43.277344 156.035156 44.179688 156.554688 L 45.289062 157.195312 C 46.191406 157.714844 47.652344 157.714844 48.554688 157.195312 L 49.109375 156.875 Z M 49.109375 58.324219 "/>
<path style=" stroke:none;fill-rule:nonzero;fill:rgb(27.058824%,35.294118%,39.215686%);fill-opacity:1;" d="M 46.921875 58.949219 L 46.921875 156.253906 C 46.921875 157.292969 47.652344 157.71875 48.554688 157.195312 L 93.433594 131.285156 C 94.335938 130.765625 95.066406 129.5 95.066406 128.457031 L 95.066406 31.152344 C 95.066406 30.109375 94.335938 29.6875 93.433594 30.210938 L 48.554688 56.121094 C 47.652344 56.640625 46.921875 57.90625 46.921875 58.949219 Z M 46.921875 58.949219 "/>
<path style=" stroke:none;fill-rule:nonzero;fill:rgb(98.039216%,98.039216%,98.039216%);fill-opacity:1;" d="M 50.507812 65.097656 L 91.316406 41.539062 C 92.089844 41.09375 92.714844 41.457031 92.714844 42.347656 L 92.714844 119.976562 C 92.714844 120.871094 92.089844 121.957031 91.316406 122.402344 L 50.507812 145.960938 C 49.738281 146.40625 49.109375 146.042969 49.109375 145.152344 L 49.109375 67.523438 C 49.109375 66.628906 49.734375 65.542969 50.507812 65.097656 Z M 50.507812 65.097656 "/>
<use xlink:href="#surface11" mask="url(#mask2)"/>
<path style=" stroke:none;fill-rule:nonzero;fill:rgb(14.901961%,19.607843%,21.960784%);fill-opacity:1;" d="M 70.992188 45.691406 C 71.597656 45.34375 72.085938 45.625 72.085938 46.324219 C 72.085938 47.019531 71.597656 47.871094 70.992188 48.21875 C 70.390625 48.566406 69.898438 48.285156 69.898438 47.585938 C 69.898438 46.886719 70.390625 46.039062 70.992188 45.691406 Z M 70.992188 45.691406 "/>
<path style=" stroke:none;fill-rule:nonzero;fill:rgb(14.901961%,19.607843%,21.960784%);fill-opacity:1;" d="M 67.832031 51.15625 C 70.058594 49.929688 74.023438 47.566406 76.214844 46.277344 C 76.585938 46.058594 76.886719 46.210938 76.886719 46.613281 C 76.886719 47.019531 76.585938 47.523438 76.210938 47.738281 L 67.816406 52.585938 C 67.441406 52.804688 67.140625 52.648438 67.140625 52.246094 C 67.140625 51.839844 67.457031 51.367188 67.832031 51.15625 Z M 67.832031 51.15625 "/>
<path style=" stroke:none;fill-rule:nonzero;fill:rgb(14.901961%,19.607843%,21.960784%);fill-opacity:1;" d="M 65.710938 52.382812 C 66.050781 52.1875 66.328125 52.34375 66.328125 52.738281 C 66.328125 53.128906 66.050781 53.605469 65.710938 53.800781 C 65.371094 53.996094 65.097656 53.839844 65.097656 53.445312 C 65.097656 53.054688 65.375 52.578125 65.710938 52.382812 Z M 65.710938 52.382812 "/>
<path style=" stroke:none;fill-rule:nonzero;fill:rgb(14.901961%,19.607843%,21.960784%);fill-opacity:1;" d="M 70.992188 136.660156 C 72.203125 135.960938 73.183594 136.527344 73.183594 137.921875 C 73.183594 139.320312 72.203125 141.015625 70.992188 141.714844 C 69.785156 142.410156 68.804688 141.847656 68.804688 140.449219 C 68.804688 139.054688 69.785156 137.359375 70.992188 136.660156 Z M 70.992188 136.660156 "/>
<path style=" stroke:none;fill-rule:nonzero;fill:rgb(15.294118%,87.058824%,74.901961%);fill-opacity:1;" d="M 108.207031 109.402344 L 103.285156 106.5625 C 103.285156 106.5625 103.28125 106.5625 103.277344 106.5625 L 103.226562 106.53125 L 103.21875 106.542969 C 100.773438 105.160156 97.417969 105.363281 93.699219 107.511719 C 90.222656 109.515625 87.050781 112.859375 84.660156 116.726562 C 81.898438 121.183594 80.160156 126.34375 80.160156 130.96875 C 80.160156 135.28125 81.667969 138.308594 84.109375 139.726562 L 84.109375 139.734375 L 84.125 139.738281 L 89.121094 142.59375 C 91.589844 144.164062 95.074219 144.027344 98.9375 141.792969 C 106.417969 137.476562 112.484375 126.972656 112.484375 118.332031 C 112.484375 113.835938 110.839844 110.738281 108.207031 109.402344 Z M 108.207031 109.402344 "/>
<use xlink:href="#surface14" mask="url(#mask3)"/>
<use xlink:href="#surface17" mask="url(#mask4)"/>
<path style=" stroke:none;fill-rule:nonzero;fill:rgb(100%,100%,100%);fill-opacity:1;" d="M 105.992188 114.851562 L 104.117188 113.769531 L 96.769531 131.085938 L 98.019531 131.808594 Z M 105.992188 114.851562 "/>
<path style=" stroke:none;fill-rule:nonzero;fill:rgb(100%,100%,100%);fill-opacity:1;" d="M 95.328125 127.21875 L 93.453125 126.136719 L 91.4375 130.402344 L 93.3125 131.484375 Z M 95.328125 127.21875 "/>
<path style=" stroke:none;fill-rule:nonzero;fill:rgb(96.078431%,96.078431%,96.078431%);fill-opacity:1;" d="M 98.503906 136.886719 L 93.3125 131.484375 L 95.328125 127.21875 L 98.019531 131.808594 L 105.992188 114.851562 L 108.945312 117.734375 Z M 98.503906 136.886719 "/>
<path style=" stroke:none;fill-rule:nonzero;fill:rgb(87.843137%,87.843137%,87.843137%);fill-opacity:1;" d="M 91.4375 130.402344 L 93.3125 131.484375 L 98.503906 136.886719 L 96.628906 135.816406 Z M 91.4375 130.402344 "/>
<path style=" stroke:none;fill-rule:nonzero;fill:rgb(14.901961%,19.607843%,21.960784%);fill-opacity:1;" d="M 146.453125 66.878906 C 150.878906 66.878906 154.46875 63.292969 154.46875 58.867188 L 154.46875 58.390625 C 154.46875 54.640625 151.429688 51.597656 147.675781 51.597656 L 145.230469 51.597656 C 141.480469 51.597656 138.4375 54.640625 138.4375 58.390625 L 138.4375 58.867188 C 138.4375 63.292969 142.027344 66.878906 146.453125 66.878906 Z M 146.453125 66.878906 "/>
<path style=" stroke:none;fill-rule:nonzero;fill:rgb(14.901961%,19.607843%,21.960784%);fill-opacity:1;" d="M 138.207031 146.140625 C 137.273438 147.160156 136.25 147.976562 135.148438 148.800781 C 134.980469 148.921875 134.8125 149.054688 134.722656 149.238281 C 134.578125 149.539062 134.355469 150.28125 135.722656 150.757812 C 137.058594 151.226562 138.722656 151.117188 139.941406 150.355469 C 141.0625 149.652344 141.113281 148.1875 142.171875 147.355469 C 142.960938 146.734375 143.941406 146.578125 144.574219 145.769531 C 145.015625 145.207031 144.902344 144.460938 144.671875 143.535156 C 144.417969 142.523438 144.304688 141.757812 143.96875 141.835938 L 144.023438 142.300781 C 143.605469 142.964844 141.441406 143.164062 140.480469 142.703125 C 140.480469 142.703125 138.8125 145.476562 138.207031 146.140625 Z M 138.207031 146.140625 "/>
<path style=" stroke:none;fill-rule:nonzero;fill:rgb(69.411765%,40%,40.784314%);fill-opacity:1;" d="M 137.257812 147.085938 C 137.257812 147.085938 137.257812 147.078125 137.257812 147.078125 C 137.582031 146.78125 137.898438 146.472656 138.207031 146.136719 C 138.597656 145.710938 139.429688 144.40625 139.972656 143.535156 C 140.300781 143.003906 140.542969 142.371094 140.464844 141.671875 C 140.390625 140.972656 140.195312 139.179688 140.195312 139.179688 L 143.625 138.9375 L 144.023438 142.300781 C 144.105469 143.0625 143.476562 143.738281 142.363281 144.699219 C 141.246094 145.660156 139.828125 147.902344 138.820312 148.46875 C 137.808594 149.03125 137.085938 149.011719 136.65625 148.722656 C 136.210938 148.425781 136.167969 148.195312 137.257812 147.085938 Z M 137.257812 147.085938 "/>
<path style=" stroke:none;fill-rule:nonzero;fill:rgb(14.901961%,19.607843%,21.960784%);fill-opacity:1;" d="M 151.242188 146.445312 L 151.242188 145.929688 C 151.039062 146.535156 150.097656 149.136719 148.667969 150.441406 C 147.53125 151.476562 145.980469 152.675781 145.585938 153.832031 C 145.175781 155.035156 147.746094 155.4375 148.804688 155.25 C 150.039062 155.03125 151.636719 154.332031 152.503906 153.261719 C 153.117188 152.511719 153.503906 151.621094 153.941406 151.03125 C 154.378906 150.441406 155.382812 149.785156 155.617188 149.101562 C 155.75 148.726562 155.59375 147.902344 155.410156 147.207031 C 155.246094 146.570312 155.0625 145.871094 154.847656 145.929688 C 154.847656 146.007812 154.847656 146.324219 154.847656 146.324219 C 154.585938 146.613281 153.859375 146.902344 153.042969 146.933594 C 152.519531 146.953125 151.238281 146.847656 151.242188 146.445312 Z M 151.242188 146.445312 "/>
<path style=" stroke:none;fill-rule:nonzero;fill:rgb(69.411765%,40%,40.784314%);fill-opacity:1;" d="M 147.640625 151.351562 C 147.992188 151.039062 148.347656 150.730469 148.667969 150.4375 C 149.667969 149.527344 150.429688 147.980469 150.867188 146.925781 C 151.117188 146.324219 151.242188 145.683594 151.242188 145.03125 L 151.242188 142.976562 L 154.847656 142.976562 L 154.847656 146.410156 L 154.828125 146.417969 C 154.65625 147.167969 153.003906 149.160156 152.0625 150.457031 C 151.433594 151.328125 150.234375 152.4375 148.804688 152.628906 C 147.453125 152.808594 146.757812 152.382812 147.640625 151.351562 Z M 147.640625 151.351562 "/>
<path style=" stroke:none;fill-rule:nonzero;fill:rgb(15.294118%,87.058824%,74.901961%);fill-opacity:1;" d="M 154.128906 90.445312 C 156.921875 96.546875 154.03125 118.039062 154.03125 118.039062 C 154.113281 119.03125 155.246094 120.976562 155.667969 125.335938 C 156.164062 130.484375 154.886719 143.414062 154.886719 143.414062 C 154.886719 143.414062 153.21875 144.503906 151.242188 143.558594 C 151.242188 143.558594 147.808594 124.085938 147.164062 118.96875 C 146.601562 114.5 145.519531 103.996094 145.519531 103.996094 L 142.710938 119.0625 C 142.710938 119.0625 143.621094 121.515625 143.808594 123.421875 C 144.097656 126.433594 143.878906 140.363281 143.878906 140.363281 C 143.878906 140.363281 142.648438 141.300781 140.289062 140.953125 C 140.289062 140.953125 136.199219 121.882812 135.882812 118.257812 C 135.695312 116.09375 138.164062 89.550781 138.164062 89.550781 Z M 154.128906 90.445312 "/>
<use xlink:href="#surface20" mask="url(#mask5)"/>
<use xlink:href="#surface23" mask="url(#mask6)"/>
<path style=" stroke:none;fill-rule:nonzero;fill:rgb(69.411765%,40%,40.784314%);fill-opacity:1;" d="M 158.683594 87.792969 C 158.65625 87.390625 157.90625 83.121094 157.390625 80.730469 L 152.367188 82.269531 L 153.257812 86.667969 L 157.492188 90.0625 C 158.816406 89.800781 158.710938 88.191406 158.683594 87.792969 Z M 158.683594 87.792969 "/>
<path style=" stroke:none;fill-rule:nonzero;fill:rgb(69.411765%,40%,40.784314%);fill-opacity:1;" d="M 134.390625 78.785156 L 132.019531 83.136719 L 135.710938 86.304688 L 139.09375 80.941406 Z M 134.390625 78.785156 "/>
<path style=" stroke:none;fill-rule:nonzero;fill:rgb(15.294118%,87.058824%,74.901961%);fill-opacity:1;" d="M 143.300781 69.085938 C 140.945312 69.109375 138.351562 69.964844 137.460938 71.8125 C 136.570312 73.65625 134.097656 78.75 134.097656 78.75 C 134.097656 78.75 136.296875 81.738281 139.597656 81.523438 Z M 143.300781 69.085938 "/>
<use xlink:href="#surface26" mask="url(#mask7)"/>
<path style=" stroke:none;fill-rule:nonzero;fill:rgb(96.078431%,96.078431%,96.078431%);fill-opacity:1;" d="M 148.175781 69.167969 L 150.132812 69.25 C 152.265625 69.761719 153.035156 71.222656 153.929688 73.117188 C 154.613281 74.554688 154.621094 76.226562 154.101562 77.730469 L 151.605469 84.953125 C 151.605469 84.953125 152.773438 87.777344 154.128906 90.445312 C 147.867188 93.941406 140.046875 92.105469 138.164062 89.554688 C 138.082031 89.011719 138.191406 86.574219 138.039062 83.796875 C 137.878906 80.839844 137.472656 77.496094 137.9375 75.667969 C 138.800781 72.273438 140.417969 69.085938 143.636719 69.085938 Z M 148.175781 69.167969 "/>
<path style=" stroke:none;fill-rule:nonzero;fill:rgb(15.294118%,87.058824%,74.901961%);fill-opacity:1;" d="M 150.132812 69.246094 C 152.269531 69.550781 155.410156 69.980469 156.492188 75.0625 C 157.589844 80.210938 157.800781 81.4375 157.800781 81.4375 C 157.800781 81.4375 155.929688 83.300781 152.382812 83.285156 C 152.382812 83.285156 149.257812 73.171875 150.132812 69.246094 Z M 150.132812 69.246094 "/>
<use xlink:href="#surface29" mask="url(#mask8)"/>
<path style=" stroke:none;fill-rule:nonzero;fill:rgb(92.156863%,92.156863%,92.156863%);fill-opacity:1;" d="M 152.289062 82.96875 C 151.894531 81.621094 151.480469 80.078125 151.085938 78.421875 C 151.085938 78.421875 151.101562 82.03125 151.71875 84.621094 Z M 152.289062 82.96875 "/>
<path style=" stroke:none;fill-rule:nonzero;fill:rgb(69.411765%,40%,40.784314%);fill-opacity:1;" d="M 141.070312 54.839844 C 140.226562 55.339844 139.179688 57.472656 139.28125 61.933594 C 139.371094 65.71875 140.597656 66.652344 141.210938 66.921875 C 141.828125 67.191406 143.015625 67.027344 144.167969 66.835938 L 144.167969 69.105469 C 144.167969 69.105469 142.574219 70.957031 142.675781 72 C 142.773438 73.042969 144.980469 73.289062 146.472656 72.269531 C 147.964844 71.253906 148.921875 69.707031 148.921875 69.707031 L 148.921875 64.21875 C 148.921875 64.21875 149.703125 65.257812 150.976562 64.410156 C 152.25 63.566406 152.300781 61.46875 151.558594 60.71875 C 150.816406 59.964844 149.21875 60.203125 148.921875 61.242188 C 148.921875 61.242188 147.082031 61.308594 144.628906 59.960938 C 142.175781 58.613281 141.234375 56.308594 141.070312 54.839844 Z M 141.070312 54.839844 "/>
<path style=" stroke:none;fill-rule:nonzero;fill:rgb(14.901961%,19.607843%,21.960784%);fill-opacity:1;" d="M 143.507812 60.984375 C 143.492188 61.257812 143.695312 61.488281 143.957031 61.5 C 144.21875 61.511719 144.441406 61.300781 144.457031 61.027344 C 144.46875 60.757812 144.269531 60.523438 144.007812 60.511719 C 143.742188 60.5 143.519531 60.710938 143.507812 60.984375 Z M 143.507812 60.984375 "/>
<path style=" stroke:none;fill-rule:nonzero;fill:rgb(60.392157%,29.019608%,30.196078%);fill-opacity:1;" d="M 143.378906 64.191406 L 142.273438 64.542969 C 142.367188 64.859375 142.6875 65.039062 142.992188 64.941406 C 143.296875 64.84375 143.472656 64.507812 143.378906 64.191406 Z M 143.378906 64.191406 "/>
<path style=" stroke:none;fill-rule:nonzero;fill:rgb(14.901961%,19.607843%,21.960784%);fill-opacity:1;" d="M 139.605469 59.523438 L 140.566406 58.855469 C 140.390625 58.582031 140.035156 58.507812 139.769531 58.691406 C 139.503906 58.875 139.429688 59.25 139.605469 59.523438 Z M 139.605469 59.523438 "/>
<path style=" stroke:none;fill-rule:nonzero;fill:rgb(14.901961%,19.607843%,21.960784%);fill-opacity:1;" d="M 139.828125 60.640625 C 139.8125 60.914062 140.015625 61.144531 140.277344 61.15625 C 140.539062 61.167969 140.765625 60.957031 140.777344 60.683594 C 140.789062 60.414062 140.589844 60.179688 140.328125 60.167969 C 140.066406 60.15625 139.839844 60.367188 139.828125 60.640625 Z M 139.828125 60.640625 "/>
<path style=" stroke:none;fill-rule:nonzero;fill:rgb(60.392157%,29.019608%,30.196078%);fill-opacity:1;" d="M 142.070312 60.367188 L 141.996094 63.230469 L 140.488281 62.765625 Z M 142.070312 60.367188 "/>
<path style=" stroke:none;fill-rule:nonzero;fill:rgb(60.392157%,29.019608%,30.196078%);fill-opacity:1;" d="M 144.167969 66.835938 C 145.386719 66.675781 147.890625 65.957031 148.28125 64.96875 C 148.28125 64.96875 148.148438 65.589844 147.402344 66.230469 C 146.65625 66.871094 144.171875 67.59375 144.171875 67.59375 L 144.171875 66.835938 Z M 144.167969 66.835938 "/>
<path style=" stroke:none;fill-rule:nonzero;fill:rgb(15.294118%,87.058824%,74.901961%);fill-opacity:1;" d="M 124.257812 78.519531 L 138.070312 82.15625 L 142.144531 99.296875 L 129.015625 95.484375 Z M 124.257812 78.519531 "/>
<use xlink:href="#surface32" mask="url(#mask9)"/>
<use xlink:href="#surface35" mask="url(#mask10)"/>
<use xlink:href="#surface38" mask="url(#mask11)"/>
<path style=" stroke:none;fill-rule:nonzero;fill:rgb(21.568627%,27.843137%,30.980392%);fill-opacity:1;" d="M 127.34375 79.011719 C 127.304688 78.832031 127.632812 78.785156 128.078125 78.90625 L 128.882812 79.128906 C 128.882812 79.128906 128.640625 77.988281 130.429688 78.386719 C 132.21875 78.785156 132.609375 80.082031 132.609375 80.082031 C 132.609375 80.082031 132.996094 80.191406 133.46875 80.324219 C 133.945312 80.460938 134.375 80.714844 134.433594 80.898438 L 134.535156 81.222656 L 127.417969 79.351562 C 127.417969 79.351562 127.382812 79.195312 127.34375 79.011719 Z M 127.34375 79.011719 "/>
<path style=" stroke:none;fill-rule:nonzero;fill:rgb(21.568627%,27.843137%,30.980392%);fill-opacity:1;" d="M 128.324219 79.582031 C 128.976562 79.738281 129.246094 79.824219 129.34375 80.273438 C 129.453125 80.785156 129.5 81.164062 129.5 81.164062 L 132.648438 81.996094 C 132.648438 81.996094 132.496094 81.347656 132.449219 81.09375 C 132.398438 80.839844 132.507812 80.6875 133.007812 80.820312 L 133.050781 80.621094 L 128.117188 79.363281 Z M 128.324219 79.582031 "/>
<path style=" stroke:none;fill-rule:nonzero;fill:rgb(21.568627%,27.843137%,30.980392%);fill-opacity:1;" d="M 128.214844 81.050781 C 128.214844 81.050781 128.164062 80.8125 128.101562 80.523438 C 128.039062 80.230469 128.847656 80.21875 129.910156 80.496094 L 131.945312 81.023438 C 133.007812 81.300781 133.921875 81.757812 133.984375 82.050781 L 134.097656 82.578125 Z M 128.214844 81.050781 "/>
<path style=" stroke:none;fill-rule:nonzero;fill:rgb(69.411765%,40%,40.784314%);fill-opacity:1;" d="M 157.492188 90.0625 L 153.257812 86.667969 C 153.257812 86.667969 143.90625 88.332031 142.808594 88.417969 C 141.710938 88.503906 140.488281 87.730469 140.070312 86.648438 C 139.652344 85.570312 138.914062 85.707031 138.914062 85.707031 C 138.914062 85.707031 139.238281 87.074219 139.34375 87.507812 C 139.445312 87.945312 136.8125 88.304688 135.351562 87.808594 C 133.890625 87.316406 131.777344 88.035156 133.089844 90.023438 C 134.398438 92.011719 136.945312 92.242188 138.714844 92.242188 C 139.203125 92.242188 140.074219 92.207031 140.925781 92.09375 C 141.5 92.019531 142.070312 91.960938 142.644531 91.921875 C 146.265625 91.664062 155.84375 90.578125 157.492188 90.0625 Z M 157.492188 90.0625 "/>
<path style=" stroke:none;fill-rule:nonzero;fill:rgb(69.411765%,40%,40.784314%);fill-opacity:1;" d="M 125.660156 83.53125 C 125.660156 83.53125 126.15625 85.292969 126.273438 85.714844 C 126.394531 86.136719 128 86.902344 129.015625 87.179688 C 130.027344 87.460938 131.140625 87.789062 130.660156 89.210938 C 130.214844 90.519531 128.546875 90.816406 127.695312 90.78125 C 126.84375 90.742188 125.679688 89.929688 125.222656 88.621094 C 124.636719 86.949219 124.953125 85.164062 124.71875 84.1875 C 124.488281 83.210938 125.152344 82.945312 125.660156 83.53125 Z M 125.660156 83.53125 "/>
<path style=" stroke:none;fill-rule:nonzero;fill:rgb(14.901961%,19.607843%,21.960784%);fill-opacity:1;" d="M 153.464844 75.667969 C 150.957031 75.667969 148.921875 73.632812 148.921875 71.125 L 148.921875 64.75 C 151.429688 64.75 153.464844 66.785156 153.464844 69.292969 Z M 153.464844 75.667969 "/>
</g>
</svg>
