<?xml version="1.0" encoding="UTF-8"?>
<svg xmlns="http://www.w3.org/2000/svg" xmlns:xlink="http://www.w3.org/1999/xlink" width="250px" height="250px" viewBox="0 0 250 250" version="1.1">
<defs>
<filter id="alpha" filterUnits="objectBoundingBox" x="0%" y="0%" width="100%" height="100%">
  <feColorMatrix type="matrix" in="SourceGraphic" values="0 0 0 0 1 0 0 0 0 1 0 0 0 0 1 0 0 0 1 0"/>
</filter>
<mask id="mask0">
  <g filter="url(#alpha)">
<rect x="0" y="0" width="250" height="250" style="fill:rgb(0%,0%,0%);fill-opacity:0.6;stroke:none;"/>
  </g>
</mask>
<clipPath id="clip1">
  <rect x="0" y="0" width="250" height="250"/>
</clipPath>
<g id="surface5" clip-path="url(#clip1)">
<path style=" stroke:none;fill-rule:nonzero;fill:rgb(92.156863%,92.156863%,92.156863%);fill-opacity:1;" d="M 199.460938 45.800781 L 53.570312 45.800781 L 53.285156 42.355469 L 199.179688 42.355469 Z M 199.460938 45.800781 "/>
</g>
<mask id="mask1">
  <g filter="url(#alpha)">
<rect x="0" y="0" width="250" height="250" style="fill:rgb(0%,0%,0%);fill-opacity:0.6;stroke:none;"/>
  </g>
</mask>
<clipPath id="clip2">
  <rect x="0" y="0" width="250" height="250"/>
</clipPath>
<g id="surface8" clip-path="url(#clip2)">
<path style=" stroke:none;fill-rule:nonzero;fill:rgb(92.156863%,92.156863%,92.156863%);fill-opacity:1;" d="M 199.460938 51.445312 L 53.570312 51.445312 L 53.285156 48 L 199.179688 48 Z M 199.460938 51.445312 "/>
</g>
<mask id="mask2">
  <g filter="url(#alpha)">
<rect x="0" y="0" width="250" height="250" style="fill:rgb(0%,0%,0%);fill-opacity:0.6;stroke:none;"/>
  </g>
</mask>
<clipPath id="clip3">
  <rect x="0" y="0" width="250" height="250"/>
</clipPath>
<g id="surface11" clip-path="url(#clip3)">
<path style=" stroke:none;fill-rule:nonzero;fill:rgb(92.156863%,92.156863%,92.156863%);fill-opacity:1;" d="M 199.460938 57.09375 L 53.570312 57.09375 L 53.285156 53.648438 L 199.179688 53.648438 Z M 199.460938 57.09375 "/>
</g>
<mask id="mask3">
  <g filter="url(#alpha)">
<rect x="0" y="0" width="250" height="250" style="fill:rgb(0%,0%,0%);fill-opacity:0.6;stroke:none;"/>
  </g>
</mask>
<clipPath id="clip4">
  <rect x="0" y="0" width="250" height="250"/>
</clipPath>
<g id="surface14" clip-path="url(#clip4)">
<path style=" stroke:none;fill-rule:nonzero;fill:rgb(92.156863%,92.156863%,92.156863%);fill-opacity:1;" d="M 199.460938 62.738281 L 53.570312 62.738281 L 53.285156 59.296875 L 199.179688 59.296875 Z M 199.460938 62.738281 "/>
</g>
<mask id="mask4">
  <g filter="url(#alpha)">
<rect x="0" y="0" width="250" height="250" style="fill:rgb(0%,0%,0%);fill-opacity:0.6;stroke:none;"/>
  </g>
</mask>
<clipPath id="clip5">
  <rect x="0" y="0" width="250" height="250"/>
</clipPath>
<g id="surface17" clip-path="url(#clip5)">
<path style=" stroke:none;fill-rule:nonzero;fill:rgb(92.156863%,92.156863%,92.156863%);fill-opacity:1;" d="M 199.460938 68.390625 L 53.570312 68.390625 L 53.285156 64.945312 L 199.179688 64.945312 Z M 199.460938 68.390625 "/>
</g>
<mask id="mask5">
  <g filter="url(#alpha)">
<rect x="0" y="0" width="250" height="250" style="fill:rgb(0%,0%,0%);fill-opacity:0.6;stroke:none;"/>
  </g>
</mask>
<clipPath id="clip6">
  <rect x="0" y="0" width="250" height="250"/>
</clipPath>
<g id="surface20" clip-path="url(#clip6)">
<path style=" stroke:none;fill-rule:nonzero;fill:rgb(92.156863%,92.156863%,92.156863%);fill-opacity:1;" d="M 199.460938 74.035156 L 53.570312 74.035156 L 53.285156 70.589844 L 199.179688 70.589844 Z M 199.460938 74.035156 "/>
</g>
<mask id="mask6">
  <g filter="url(#alpha)">
<rect x="0" y="0" width="250" height="250" style="fill:rgb(0%,0%,0%);fill-opacity:0.101961;stroke:none;"/>
  </g>
</mask>
<clipPath id="clip7">
  <rect x="0" y="0" width="250" height="250"/>
</clipPath>
<g id="surface23" clip-path="url(#clip7)">
<path style=" stroke:none;fill-rule:nonzero;fill:rgb(14.901961%,19.607843%,21.960784%);fill-opacity:1;" d="M 115.960938 99.703125 L 89.058594 132.09375 C 87.339844 134.164062 86.824219 136.980469 87.703125 139.523438 C 88.578125 142.066406 90.722656 143.964844 93.351562 144.535156 L 137 153.96875 C 139.78125 154.574219 142.667969 153.589844 144.507812 151.417969 C 146.34375 149.242188 146.832031 146.234375 145.773438 143.589844 L 129.039062 101.761719 C 128.035156 99.234375 125.769531 97.425781 123.085938 97.003906 C 120.398438 96.582031 117.691406 97.609375 115.960938 99.703125 Z M 115.960938 99.703125 "/>
</g>
<mask id="mask7">
  <g filter="url(#alpha)">
<rect x="0" y="0" width="250" height="250" style="fill:rgb(0%,0%,0%);fill-opacity:0.101961;stroke:none;"/>
  </g>
</mask>
<clipPath id="clip8">
  <rect x="0" y="0" width="250" height="250"/>
</clipPath>
<g id="surface26" clip-path="url(#clip8)">
<path style=" stroke:none;fill-rule:nonzero;fill:rgb(14.901961%,19.607843%,21.960784%);fill-opacity:1;" d="M 56.078125 104.246094 L 46.710938 129.5 C 46.140625 131.066406 46.414062 132.816406 47.433594 134.136719 C 48.453125 135.457031 50.078125 136.160156 51.738281 136 L 79.105469 133.316406 C 80.878906 133.140625 82.414062 132.011719 83.109375 130.371094 C 83.804688 128.726562 83.542969 126.835938 82.429688 125.445312 L 64.429688 102.894531 C 63.335938 101.527344 61.589844 100.855469 59.863281 101.136719 C 58.132812 101.414062 56.6875 102.601562 56.078125 104.246094 Z M 56.078125 104.246094 "/>
</g>
<mask id="mask8">
  <g filter="url(#alpha)">
<rect x="0" y="0" width="250" height="250" style="fill:rgb(0%,0%,0%);fill-opacity:0.2;stroke:none;"/>
  </g>
</mask>
<clipPath id="clip9">
  <rect x="0" y="0" width="250" height="250"/>
</clipPath>
<g id="surface29" clip-path="url(#clip9)">
<path style=" stroke:none;fill-rule:nonzero;fill:rgb(0%,0%,0%);fill-opacity:1;" d="M 189.824219 73.941406 L 193.113281 81.820312 L 190.445312 83.183594 C 189.617188 81.511719 188.894531 79.789062 188.285156 78.023438 Z M 189.824219 73.941406 "/>
</g>
<mask id="mask9">
  <g filter="url(#alpha)">
<rect x="0" y="0" width="250" height="250" style="fill:rgb(0%,0%,0%);fill-opacity:0.2;stroke:none;"/>
  </g>
</mask>
<clipPath id="clip10">
  <rect x="0" y="0" width="250" height="250"/>
</clipPath>
<g id="surface32" clip-path="url(#clip10)">
<path style=" stroke:none;fill-rule:nonzero;fill:rgb(0%,0%,0%);fill-opacity:1;" d="M 176.105469 78.730469 C 174.710938 79.730469 172.039062 80.230469 169.605469 80.433594 C 169.644531 79.789062 169.695312 79.179688 169.75 78.605469 C 170.40625 78.261719 171.035156 77.945312 171.628906 77.65625 Z M 176.105469 78.730469 "/>
</g>
<mask id="mask10">
  <g filter="url(#alpha)">
<rect x="0" y="0" width="250" height="250" style="fill:rgb(0%,0%,0%);fill-opacity:0.2;stroke:none;"/>
  </g>
</mask>
<clipPath id="clip11">
  <rect x="0" y="0" width="250" height="250"/>
</clipPath>
<g id="surface35" clip-path="url(#clip11)">
<path style=" stroke:none;fill-rule:nonzero;fill:rgb(0%,0%,0%);fill-opacity:1;" d="M 172.84375 194.949219 L 172.871094 200.03125 L 176.816406 200.03125 L 176.796875 194.949219 Z M 172.84375 194.949219 "/>
<path style=" stroke:none;fill-rule:nonzero;fill:rgb(0%,0%,0%);fill-opacity:1;" d="M 201.605469 191.714844 L 197.804688 192.414062 L 199.214844 197.050781 L 203.015625 196.351562 Z M 201.605469 191.714844 "/>
</g>
<mask id="mask11">
  <g filter="url(#alpha)">
<rect x="0" y="0" width="250" height="250" style="fill:rgb(0%,0%,0%);fill-opacity:0.2;stroke:none;"/>
  </g>
</mask>
<clipPath id="clip12">
  <rect x="0" y="0" width="250" height="250"/>
</clipPath>
<g id="surface38" clip-path="url(#clip12)">
<path style=" stroke:none;fill-rule:nonzero;fill:rgb(0%,0%,0%);fill-opacity:1;" d="M 175.890625 61.15625 C 175.460938 61.464844 175.015625 61.796875 174.558594 62.15625 L 174.585938 62.210938 C 175.027344 63.148438 175.742188 63.929688 176.628906 64.464844 C 176.914062 64.191406 177.074219 63.265625 177.605469 63.28125 C 179.191406 63.324219 182.253906 62.660156 182.765625 60.871094 Z M 175.890625 61.15625 "/>
</g>
<mask id="mask12">
  <g filter="url(#alpha)">
<rect x="0" y="0" width="250" height="250" style="fill:rgb(0%,0%,0%);fill-opacity:0.301961;stroke:none;"/>
  </g>
</mask>
<clipPath id="clip13">
  <rect x="0" y="0" width="250" height="250"/>
</clipPath>
<g id="surface41" clip-path="url(#clip13)">
<path style=" stroke:none;fill-rule:nonzero;fill:rgb(0%,0%,0%);fill-opacity:1;" d="M 177.886719 103.699219 C 177.886719 103.699219 181.199219 133.859375 183.21875 145.160156 C 185.433594 157.535156 196.90625 196.375 196.90625 196.375 L 203.976562 194.875 C 203.976562 194.875 196.078125 158.535156 195 146.285156 C 193.898438 133.644531 193.898438 133.671875 191.5 103.699219 Z M 177.886719 103.699219 "/>
</g>
<mask id="mask13">
  <g filter="url(#alpha)">
<rect x="0" y="0" width="250" height="250" style="fill:rgb(0%,0%,0%);fill-opacity:0.2;stroke:none;"/>
  </g>
</mask>
<clipPath id="clip14">
  <rect x="0" y="0" width="250" height="250"/>
</clipPath>
<g id="surface44" clip-path="url(#clip14)">
<path style=" stroke:none;fill-rule:nonzero;fill:rgb(0%,0%,0%);fill-opacity:1;" d="M 180.300781 114.449219 C 185.441406 115.449219 184.144531 134.773438 183.140625 144.710938 C 181.921875 137.710938 180.253906 124.175781 179.140625 114.589844 C 179.5 114.410156 179.910156 114.363281 180.300781 114.449219 Z M 180.300781 114.449219 "/>
</g>
<mask id="mask14">
  <g filter="url(#alpha)">
<rect x="0" y="0" width="250" height="250" style="fill:rgb(0%,0%,0%);fill-opacity:0.301961;stroke:none;"/>
  </g>
</mask>
<clipPath id="clip15">
  <rect x="0" y="0" width="250" height="250"/>
</clipPath>
<g id="surface47" clip-path="url(#clip15)">
<path style=" stroke:none;fill-rule:nonzero;fill:rgb(0%,0%,0%);fill-opacity:1;" d="M 170.394531 103.699219 C 170.394531 103.699219 168.714844 133.199219 168.679688 145.246094 C 168.640625 157.746094 171.429688 198.746094 171.429688 198.746094 L 178.121094 198.746094 C 178.121094 198.746094 179.921875 158.488281 180.691406 146.195312 C 181.53125 132.789062 184.273438 103.695312 184.273438 103.695312 Z M 170.394531 103.699219 "/>
</g>
</defs>
<g id="surface1">
<path style=" stroke:none;fill-rule:nonzero;fill:rgb(92.156863%,92.156863%,92.156863%);fill-opacity:1;" d="M 0 191.199219 L 250 191.199219 L 250 191.324219 L 0 191.324219 Z M 0 191.199219 "/>
<path style=" stroke:none;fill-rule:nonzero;fill:rgb(92.156863%,92.156863%,92.156863%);fill-opacity:1;" d="M 208.390625 199.246094 L 224.949219 199.246094 L 224.949219 199.371094 L 208.390625 199.371094 Z M 208.390625 199.246094 "/>
<path style=" stroke:none;fill-rule:nonzero;fill:rgb(92.156863%,92.156863%,92.156863%);fill-opacity:1;" d="M 161.265625 200.605469 L 165.609375 200.605469 L 165.609375 200.730469 L 161.265625 200.730469 Z M 161.265625 200.605469 "/>
<path style=" stroke:none;fill-rule:nonzero;fill:rgb(92.156863%,92.156863%,92.156863%);fill-opacity:1;" d="M 198.296875 194.605469 L 207.890625 194.605469 L 207.890625 194.730469 L 198.296875 194.730469 Z M 198.296875 194.605469 "/>
<path style=" stroke:none;fill-rule:nonzero;fill:rgb(92.156863%,92.156863%,92.156863%);fill-opacity:1;" d="M 26.230469 195.445312 L 47.824219 195.445312 L 47.824219 195.570312 L 26.230469 195.570312 Z M 26.230469 195.445312 "/>
<path style=" stroke:none;fill-rule:nonzero;fill:rgb(92.156863%,92.156863%,92.156863%);fill-opacity:1;" d="M 52.28125 195.445312 L 55.445312 195.445312 L 55.445312 195.570312 L 52.28125 195.570312 Z M 52.28125 195.445312 "/>
<path style=" stroke:none;fill-rule:nonzero;fill:rgb(92.156863%,92.156863%,92.156863%);fill-opacity:1;" d="M 65.734375 197.554688 L 112.574219 197.554688 L 112.574219 197.679688 L 65.734375 197.679688 Z M 65.734375 197.554688 "/>
<path style=" stroke:none;fill-rule:nonzero;fill:rgb(92.156863%,92.156863%,92.156863%);fill-opacity:1;" d="M 118.5 168.898438 L 21.953125 168.898438 C 20.378906 168.898438 19.105469 167.621094 19.105469 166.046875 L 19.105469 30.328125 C 19.117188 28.765625 20.390625 27.503906 21.953125 27.5 L 118.5 27.5 C 120.078125 27.5 121.355469 28.777344 121.355469 30.355469 L 121.355469 166.046875 C 121.355469 167.621094 120.078125 168.898438 118.5 168.898438 Z M 21.953125 27.601562 C 20.449219 27.601562 19.230469 28.824219 19.230469 30.328125 L 19.230469 166.046875 C 19.230469 167.550781 20.449219 168.773438 21.953125 168.773438 L 118.5 168.773438 C 120.007812 168.773438 121.226562 167.550781 121.230469 166.046875 L 121.230469 30.328125 C 121.226562 28.824219 120.007812 27.601562 118.5 27.601562 Z M 21.953125 27.601562 "/>
<path style=" stroke:none;fill-rule:nonzero;fill:rgb(92.156863%,92.156863%,92.156863%);fill-opacity:1;" d="M 226.65625 168.898438 L 130.105469 168.898438 C 128.53125 168.898438 127.253906 167.621094 127.25 166.046875 L 127.25 30.328125 C 127.265625 28.765625 128.539062 27.503906 130.105469 27.5 L 226.65625 27.5 C 228.21875 27.503906 229.484375 28.765625 229.5 30.328125 L 229.5 166.046875 C 229.5 167.617188 228.226562 168.894531 226.65625 168.898438 Z M 130.105469 27.601562 C 128.597656 27.601562 127.378906 28.824219 127.375 30.328125 L 127.375 166.046875 C 127.378906 167.550781 128.597656 168.773438 130.105469 168.773438 L 226.65625 168.773438 C 228.160156 168.773438 229.382812 167.550781 229.386719 166.046875 L 229.386719 30.328125 C 229.382812 28.824219 228.160156 27.601562 226.65625 27.601562 Z M 130.105469 27.601562 "/>
<path style=" stroke:none;fill-rule:nonzero;fill:rgb(90.196078%,90.196078%,90.196078%);fill-opacity:1;" d="M 50.644531 38.078125 L 196.539062 38.078125 L 196.539062 106.339844 L 50.644531 106.339844 Z M 50.644531 38.078125 "/>
<path style=" stroke:none;fill-rule:nonzero;fill:rgb(94.117647%,94.117647%,94.117647%);fill-opacity:1;" d="M 51.671875 38.078125 L 198.734375 38.078125 L 198.734375 106.339844 L 51.671875 106.339844 Z M 51.671875 38.078125 "/>
<path style=" stroke:none;fill-rule:nonzero;fill:rgb(90.196078%,90.196078%,90.196078%);fill-opacity:1;" d="M 50.644531 106.339844 L 196.539062 106.339844 L 196.539062 109.820312 L 50.644531 109.820312 Z M 50.644531 106.339844 "/>
<path style=" stroke:none;fill-rule:nonzero;fill:rgb(94.117647%,94.117647%,94.117647%);fill-opacity:1;" d="M 55.328125 106.339844 L 202.394531 106.339844 L 202.394531 109.820312 L 55.328125 109.820312 Z M 55.328125 106.339844 "/>
<path style=" stroke:none;fill-rule:nonzero;fill:rgb(98.039216%,98.039216%,98.039216%);fill-opacity:1;" d="M 195.660156 41.160156 L 195.660156 103.265625 L 54.75 103.265625 L 54.75 41.160156 Z M 195.660156 41.160156 "/>
<path style=" stroke:none;fill-rule:nonzero;fill:rgb(100%,100%,100%);fill-opacity:1;" d="M 69.863281 103.265625 L 78.429688 41.160156 L 91.796875 41.160156 L 83.230469 103.265625 Z M 69.863281 103.265625 "/>
<path style=" stroke:none;fill-rule:nonzero;fill:rgb(94.117647%,94.117647%,94.117647%);fill-opacity:1;" d="M 56.171875 100.199219 C 56.046875 100.199219 55.949219 100.101562 55.949219 99.980469 L 55.949219 43.160156 C 55.949219 43.039062 56.046875 42.941406 56.171875 42.941406 C 56.292969 42.941406 56.390625 43.039062 56.390625 43.160156 L 56.390625 100 C 56.382812 100.113281 56.285156 100.203125 56.171875 100.199219 Z M 56.171875 100.199219 "/>
<path style=" stroke:none;fill-rule:nonzero;fill:rgb(100%,100%,100%);fill-opacity:1;" d="M 86.101562 103.265625 L 94.664062 41.160156 L 99.875 41.160156 L 91.308594 103.265625 Z M 86.101562 103.265625 "/>
<path style=" stroke:none;fill-rule:nonzero;fill:rgb(90.196078%,90.196078%,90.196078%);fill-opacity:1;" d="M 195.660156 41.160156 L 195.660156 103.265625 L 195.269531 103.265625 L 195.269531 41.160156 Z M 195.660156 41.160156 "/>
<use xlink:href="#surface5" mask="url(#mask0)"/>
<use xlink:href="#surface8" mask="url(#mask1)"/>
<use xlink:href="#surface11" mask="url(#mask2)"/>
<use xlink:href="#surface14" mask="url(#mask3)"/>
<use xlink:href="#surface17" mask="url(#mask4)"/>
<use xlink:href="#surface20" mask="url(#mask5)"/>
<path style=" stroke:none;fill-rule:nonzero;fill:rgb(90.196078%,90.196078%,90.196078%);fill-opacity:1;" d="M 197.234375 123.5 L 219.5 123.5 L 219.5 191.199219 L 197.234375 191.199219 Z M 197.234375 123.5 "/>
<path style=" stroke:none;fill-rule:nonzero;fill:rgb(98.039216%,98.039216%,98.039216%);fill-opacity:1;" d="M 213.554688 191.199219 L 219.5 191.199219 L 219.5 181.855469 L 207.320312 181.855469 Z M 213.554688 191.199219 "/>
<path style=" stroke:none;fill-rule:nonzero;fill:rgb(90.196078%,90.196078%,90.196078%);fill-opacity:1;" d="M 136.53125 123.5 L 158.796875 123.5 L 158.796875 191.199219 L 136.53125 191.199219 Z M 136.53125 123.5 "/>
<path style=" stroke:none;fill-rule:nonzero;fill:rgb(98.039216%,98.039216%,98.039216%);fill-opacity:1;" d="M 153.605469 123.5 L 219.5 123.5 L 219.5 187.984375 L 153.605469 187.984375 Z M 153.605469 123.5 "/>
<path style=" stroke:none;fill-rule:nonzero;fill:rgb(98.039216%,98.039216%,98.039216%);fill-opacity:1;" d="M 159.550781 191.199219 L 153.605469 191.199219 L 153.605469 181.855469 L 165.785156 181.855469 Z M 159.550781 191.199219 "/>
<path style=" stroke:none;fill-rule:nonzero;fill:rgb(94.117647%,94.117647%,94.117647%);fill-opacity:1;" d="M 158.214844 147.53125 L 214.886719 147.53125 L 214.886719 163.664062 L 158.214844 163.664062 Z M 158.214844 147.53125 "/>
<path style=" stroke:none;fill-rule:nonzero;fill:rgb(94.117647%,94.117647%,94.117647%);fill-opacity:1;" d="M 158.214844 167.113281 L 214.886719 167.113281 L 214.886719 183.25 L 158.214844 183.25 Z M 158.214844 167.113281 "/>
<path style=" stroke:none;fill-rule:nonzero;fill:rgb(98.039216%,98.039216%,98.039216%);fill-opacity:1;" d="M 167.121094 146.128906 L 206 146.128906 L 206 146.914062 C 206 148.203125 204.953125 149.25 203.664062 149.25 L 169.460938 149.25 C 168.171875 149.25 167.125 148.203125 167.125 146.914062 L 167.125 146.128906 Z M 167.121094 146.128906 "/>
<path style=" stroke:none;fill-rule:nonzero;fill:rgb(94.117647%,94.117647%,94.117647%);fill-opacity:1;" d="M 158.214844 127.941406 L 214.886719 127.941406 L 214.886719 144.074219 L 158.214844 144.074219 Z M 158.214844 127.941406 "/>
<path style=" stroke:none;fill-rule:nonzero;fill:rgb(98.039216%,98.039216%,98.039216%);fill-opacity:1;" d="M 167.121094 126.546875 L 206 126.546875 L 206 127.328125 C 206 128.621094 204.953125 129.664062 203.664062 129.664062 L 169.460938 129.664062 C 168.171875 129.664062 167.125 128.621094 167.125 127.328125 L 167.125 126.546875 Z M 167.121094 126.546875 "/>
<path style=" stroke:none;fill-rule:nonzero;fill:rgb(98.039216%,98.039216%,98.039216%);fill-opacity:1;" d="M 167.121094 165.714844 L 206 165.714844 L 206 166.5 C 206 167.789062 204.953125 168.835938 203.664062 168.835938 L 169.460938 168.835938 C 168.171875 168.835938 167.125 167.789062 167.125 166.5 L 167.125 165.714844 Z M 167.121094 165.714844 "/>
<path style=" stroke:none;fill-rule:nonzero;fill:rgb(90.196078%,90.196078%,90.196078%);fill-opacity:1;" d="M 26.710938 137.933594 C 27.949219 134.371094 37.710938 139.214844 41.710938 145.113281 C 44.355469 149.046875 45.96875 153.238281 46.710938 158.875 C 46.621094 152.445312 46.519531 145.539062 46.421875 139.019531 C 45.613281 137.394531 43.78125 133.644531 42.464844 130.675781 C 38.066406 120.765625 27.605469 117.074219 23.964844 110.820312 C 19.230469 102.621094 19.261719 90.320312 23.289062 85.890625 C 26.789062 82.03125 38.390625 108.105469 39.699219 111.019531 C 44.199219 121.019531 45.5 128.476562 46.339844 135.679688 C 46.246094 129.554688 46.15625 123.933594 46.078125 119.59375 C 45.835938 105.445312 45.523438 100.894531 45.386719 99.496094 C 44.886719 98.808594 44.328125 97.996094 43.996094 97.585938 C 41.191406 93.96875 34.960938 89.671875 31.851562 84.414062 C 27.304688 76.746094 28.039062 67.566406 31.226562 64.144531 C 34.585938 60.570312 40.5 69 43.605469 77.390625 C 46.710938 85.78125 45.394531 93.769531 46.273438 100.726562 C 46.460938 102.085938 46.644531 107.265625 46.824219 114.449219 C 47.773438 106.71875 49.664062 101.539062 53.164062 96.714844 C 57.476562 90.78125 61.195312 83.554688 64.746094 84.488281 C 68.296875 85.425781 66.386719 94.988281 63.574219 101.699219 C 61.074219 107.675781 48.734375 113.640625 46.914062 118.445312 C 47.128906 128.183594 47.320312 140.519531 47.460938 152.003906 C 48.429688 146.070312 47.761719 145.574219 51.75 136.503906 C 54.121094 131.105469 63.835938 124.449219 64.996094 128.160156 C 66.15625 131.871094 64.390625 138.878906 60.726562 143.789062 C 57.765625 147.753906 51.226562 147.75 49.679688 150.203125 C 49.324219 150.78125 48.179688 152.980469 47.484375 154.238281 C 47.640625 168.265625 47.714844 180.640625 47.636719 184.859375 L 46.996094 184.90625 C 47.03125 183.816406 46.949219 176.679688 46.824219 167.238281 C 45.230469 162.238281 34.5 159.289062 31.183594 154.066406 C 27.714844 148.585938 25.21875 142.203125 26.710938 137.933594 Z M 26.710938 137.933594 "/>
<path style=" stroke:none;fill-rule:nonzero;fill:rgb(94.117647%,94.117647%,94.117647%);fill-opacity:1;" d="M 36.800781 191.199219 L 57.398438 191.199219 C 58.523438 191.199219 59.496094 190.40625 59.71875 189.304688 L 61.179688 182.09375 L 33 182.09375 L 34.5 189.304688 C 34.722656 190.398438 35.683594 191.191406 36.800781 191.199219 Z M 36.800781 191.199219 "/>
<path style=" stroke:none;fill-rule:nonzero;fill:rgb(94.117647%,94.117647%,94.117647%);fill-opacity:1;" d="M 32.429688 184.890625 L 61.769531 184.890625 C 62.472656 184.890625 63.066406 184.359375 63.144531 183.660156 L 63.746094 178.328125 C 63.789062 177.9375 63.660156 177.546875 63.398438 177.257812 C 63.136719 176.964844 62.761719 176.796875 62.371094 176.796875 L 31.828125 176.796875 C 31.4375 176.796875 31.0625 176.964844 30.800781 177.257812 C 30.539062 177.546875 30.414062 177.9375 30.453125 178.328125 L 31.054688 183.660156 C 31.132812 184.359375 31.726562 184.890625 32.429688 184.890625 Z M 32.429688 184.890625 "/>
<path style=" stroke:none;fill-rule:nonzero;fill:rgb(87.843137%,87.843137%,87.843137%);fill-opacity:1;" d="M 71.316406 158.808594 L 88.921875 158.808594 L 88.921875 191.199219 L 71.316406 191.199219 Z M 71.316406 158.808594 "/>
<path style=" stroke:none;fill-rule:nonzero;fill:rgb(90.196078%,90.196078%,90.196078%);fill-opacity:1;" d="M 133.789062 191.199219 L 74.84375 191.199219 L 68.648438 147.25 L 127.59375 147.25 Z M 133.789062 191.199219 "/>
<path style=" stroke:none;fill-rule:nonzero;fill:rgb(94.117647%,94.117647%,94.117647%);fill-opacity:1;" d="M 142.390625 191.199219 L 77.183594 191.199219 L 70.996094 147.25 L 136.195312 147.25 Z M 142.390625 191.199219 "/>
<path style=" stroke:none;fill-rule:nonzero;fill:rgb(100%,100%,100%);fill-opacity:1;" d="M 83.566406 184.328125 L 78.351562 154.121094 L 129.816406 154.121094 L 135.03125 184.328125 Z M 83.566406 184.328125 "/>
<path style=" stroke:none;fill-rule:nonzero;fill:rgb(98.039216%,98.039216%,98.039216%);fill-opacity:1;" d="M 105.679688 184.328125 L 88.191406 154.121094 L 93.675781 154.121094 L 111.171875 184.328125 Z M 105.679688 184.328125 "/>
<path style=" stroke:none;fill-rule:nonzero;fill:rgb(98.039216%,98.039216%,98.039216%);fill-opacity:1;" d="M 113.496094 184.328125 L 96 154.121094 L 105.359375 154.121094 L 122.851562 184.328125 Z M 113.496094 184.328125 "/>
<path style=" stroke:none;fill-rule:nonzero;fill:rgb(96.078431%,96.078431%,96.078431%);fill-opacity:1;" d="M 221.945312 208.121094 C 221.945312 204.992188 178.542969 202.460938 125 202.460938 C 71.457031 202.460938 28.054688 204.992188 28.054688 208.121094 C 28.054688 211.246094 71.457031 213.78125 125 213.78125 C 178.542969 213.78125 221.945312 211.246094 221.945312 208.121094 Z M 221.945312 208.121094 "/>
<path style=" stroke:none;fill-rule:nonzero;fill:rgb(18.039216%,76.862745%,71.372549%);fill-opacity:1;" d="M 38.636719 110.765625 C 38.523438 110.765625 38.429688 110.679688 38.421875 110.570312 L 37.308594 97.21875 C 37.304688 97.109375 37.386719 97.011719 37.5 97 C 37.617188 96.992188 37.71875 97.078125 37.730469 97.195312 L 38.839844 110.546875 C 38.847656 110.660156 38.761719 110.765625 38.644531 110.773438 Z M 38.636719 110.765625 "/>
<path style=" stroke:none;fill-rule:nonzero;fill:rgb(18.039216%,76.862745%,71.372549%);fill-opacity:1;" d="M 39.296875 118.695312 C 39.183594 118.695312 39.089844 118.609375 39.078125 118.5 L 38.746094 114.460938 C 38.738281 114.402344 38.757812 114.347656 38.792969 114.304688 C 38.832031 114.261719 38.882812 114.234375 38.941406 114.230469 C 38.996094 114.222656 39.054688 114.242188 39.097656 114.277344 C 39.140625 114.316406 39.167969 114.367188 39.171875 114.425781 L 39.503906 118.464844 C 39.511719 118.582031 39.425781 118.683594 39.308594 118.695312 Z M 39.296875 118.695312 "/>
<path style=" stroke:none;fill-rule:nonzero;fill:rgb(100%,100%,100%);fill-opacity:1;" d="M 151.78125 156.683594 L 48.539062 156.683594 C 45.847656 156.632812 43.621094 154.574219 43.355469 151.894531 L 37.539062 82 C 37.414062 80.765625 37.820312 79.535156 38.660156 78.621094 C 39.5 77.707031 40.6875 77.191406 41.929688 77.210938 L 145.164062 77.210938 C 147.859375 77.261719 150.085938 79.320312 150.355469 82 L 156.171875 151.886719 C 156.296875 153.121094 155.890625 154.351562 155.050781 155.269531 C 154.210938 156.1875 153.023438 156.703125 151.78125 156.683594 Z M 151.78125 156.683594 "/>
<path style=" stroke:none;fill-rule:nonzero;fill:rgb(18.039216%,76.862745%,71.372549%);fill-opacity:1;" d="M 151.78125 156.886719 L 48.539062 156.886719 C 45.742188 156.839844 43.425781 154.699219 43.15625 151.914062 L 37.339844 82.023438 C 37.222656 80.734375 37.652344 79.457031 38.523438 78.5 C 39.394531 77.539062 40.632812 76.992188 41.929688 77 L 145.164062 77 C 147.976562 77.042969 150.300781 79.199219 150.554688 82 L 156.363281 151.886719 C 156.496094 153.175781 156.066406 154.457031 155.191406 155.414062 C 154.316406 156.367188 153.074219 156.902344 151.78125 156.886719 Z M 41.929688 77.421875 C 40.742188 77.402344 39.605469 77.890625 38.800781 78.765625 C 38 79.640625 37.613281 80.820312 37.734375 82 L 43.550781 151.878906 C 43.804688 154.460938 45.957031 156.441406 48.550781 156.484375 L 151.78125 156.484375 C 152.964844 156.503906 154.101562 156.011719 154.898438 155.140625 C 155.699219 154.265625 156.089844 153.09375 155.96875 151.914062 L 150.15625 82.023438 C 149.902344 79.441406 147.75 77.460938 145.15625 77.421875 Z M 41.929688 77.421875 "/>
<path style=" stroke:none;fill-rule:nonzero;fill:rgb(18.039216%,76.862745%,71.372549%);fill-opacity:1;" d="M 145.164062 77.21875 L 41.929688 77.21875 C 40.691406 77.203125 39.503906 77.714844 38.664062 78.628906 C 37.828125 79.539062 37.417969 80.765625 37.539062 82 L 150.355469 82 C 150.082031 79.324219 147.855469 77.273438 145.164062 77.21875 Z M 145.164062 77.21875 "/>
<path style=" stroke:none;fill-rule:nonzero;fill:rgb(100%,100%,100%);fill-opacity:1;" d="M 44.34375 79.613281 C 44.375 79.882812 44.285156 80.148438 44.105469 80.34375 C 43.925781 80.542969 43.667969 80.65625 43.398438 80.648438 C 42.820312 80.636719 42.339844 80.195312 42.28125 79.613281 C 42.253906 79.347656 42.339844 79.082031 42.519531 78.886719 C 42.703125 78.6875 42.957031 78.578125 43.226562 78.578125 C 43.808594 78.585938 44.292969 79.035156 44.34375 79.613281 Z M 44.34375 79.613281 "/>
<path style=" stroke:none;fill-rule:nonzero;fill:rgb(100%,100%,100%);fill-opacity:1;" d="M 48.546875 79.613281 C 48.574219 79.882812 48.488281 80.148438 48.304688 80.34375 C 48.125 80.542969 47.867188 80.65625 47.601562 80.648438 C 47.027344 80.628906 46.558594 80.1875 46.5 79.613281 C 46.472656 79.347656 46.5625 79.082031 46.742188 78.886719 C 46.921875 78.6875 47.175781 78.578125 47.445312 78.578125 C 48.019531 78.597656 48.492188 79.042969 48.546875 79.613281 Z M 48.546875 79.613281 "/>
<path style=" stroke:none;fill-rule:nonzero;fill:rgb(100%,100%,100%);fill-opacity:1;" d="M 52.746094 79.613281 C 52.773438 79.882812 52.6875 80.148438 52.507812 80.34375 C 52.324219 80.542969 52.066406 80.65625 51.800781 80.648438 C 51.21875 80.636719 50.738281 80.195312 50.679688 79.613281 C 50.652344 79.347656 50.742188 79.082031 50.921875 78.886719 C 51.101562 78.6875 51.359375 78.578125 51.625 78.578125 C 52.207031 78.585938 52.691406 79.035156 52.746094 79.613281 Z M 52.746094 79.613281 "/>
<path style=" stroke:none;fill-rule:nonzero;fill:rgb(94.117647%,94.117647%,94.117647%);fill-opacity:1;" d="M 142.820312 147.523438 L 56 147.523438 C 53.859375 147.484375 52.085938 145.851562 51.875 143.71875 L 47.796875 95 C 47.695312 94.015625 48.023438 93.039062 48.691406 92.3125 C 49.359375 91.585938 50.308594 91.179688 51.296875 91.195312 L 138.128906 91.195312 C 140.269531 91.234375 142.042969 92.871094 142.253906 95 L 146.308594 143.746094 C 146.402344 144.722656 146.074219 145.691406 145.40625 146.414062 C 144.742188 147.132812 143.800781 147.539062 142.820312 147.523438 Z M 142.820312 147.523438 "/>
<use xlink:href="#surface23" mask="url(#mask6)"/>
<use xlink:href="#surface26" mask="url(#mask7)"/>
<path style=" stroke:none;fill-rule:nonzero;fill:rgb(18.039216%,76.862745%,71.372549%);fill-opacity:1;" d="M 125.238281 91.550781 L 100.089844 128.050781 C 98.492188 130.367188 98.214844 133.351562 99.359375 135.921875 C 100.5 138.496094 102.898438 140.289062 105.691406 140.660156 L 151.921875 146.816406 C 154.882812 147.210938 157.820312 145.9375 159.5625 143.507812 C 161.304688 141.082031 161.566406 137.890625 160.238281 135.210938 L 139.160156 92.539062 C 137.886719 89.96875 135.347656 88.261719 132.484375 88.058594 C 129.621094 87.855469 126.863281 89.183594 125.238281 91.550781 Z M 125.238281 91.550781 "/>
<path style=" stroke:none;fill-rule:nonzero;fill:rgb(100%,100%,100%);fill-opacity:1;" d="M 106.785156 137.398438 C 105.089844 137.167969 103.621094 136.105469 102.875 134.566406 C 102.101562 133.105469 102.195312 131.339844 103.109375 129.964844 L 128.324219 93.355469 C 129.253906 92.023438 130.863281 91.339844 132.46875 91.59375 C 134.167969 91.824219 135.636719 92.886719 136.378906 94.429688 L 157.5 137.203125 C 158.273438 138.664062 158.179688 140.429688 157.265625 141.804688 C 156.335938 143.140625 154.726562 143.828125 153.121094 143.570312 Z M 106.785156 137.398438 "/>
<path style=" stroke:none;fill-rule:nonzero;fill:rgb(18.039216%,76.862745%,71.372549%);fill-opacity:1;" d="M 130.324219 104.535156 L 133.269531 104.925781 C 135.175781 105.195312 136.578125 106.851562 136.523438 108.773438 L 136.324219 112.613281 C 136.320312 112.753906 136.304688 112.894531 136.28125 113.03125 L 134.183594 124.605469 C 133.875 126.265625 132.296875 127.371094 130.628906 127.105469 C 128.878906 126.855469 127.53125 125.433594 127.375 123.671875 L 126.53125 111.710938 C 126.519531 111.570312 126.519531 111.433594 126.53125 111.296875 L 126.726562 107.449219 C 126.769531 106.566406 127.183594 105.742188 127.871094 105.1875 C 128.558594 104.628906 129.453125 104.394531 130.324219 104.535156 Z M 130.089844 130.316406 L 130.890625 130.421875 C 132.597656 130.660156 133.851562 132.144531 133.804688 133.863281 C 133.769531 134.660156 133.398438 135.398438 132.78125 135.898438 C 132.164062 136.402344 131.363281 136.617188 130.578125 136.488281 L 129.78125 136.378906 C 128.074219 136.140625 126.820312 134.660156 126.863281 132.941406 C 126.898438 132.144531 127.269531 131.40625 127.886719 130.902344 C 128.503906 130.402344 129.304688 130.1875 130.089844 130.316406 Z M 130.089844 130.316406 "/>
<path style=" stroke:none;fill-rule:nonzero;fill:rgb(18.039216%,76.862745%,71.372549%);fill-opacity:1;" d="M 65.75 97.128906 L 58.84375 123.316406 C 58.421875 124.933594 58.859375 126.652344 60.003906 127.871094 C 61.148438 129.089844 62.839844 129.636719 64.480469 129.316406 L 91.265625 124.089844 C 92.996094 123.746094 94.402344 122.488281 94.941406 120.808594 C 95.480469 119.128906 95.066406 117.289062 93.859375 116 L 74 95.023438 C 72.785156 93.734375 70.96875 93.207031 69.253906 93.644531 C 67.539062 94.082031 66.195312 95.417969 65.75 97.128906 Z M 65.75 97.128906 "/>
<path style=" stroke:none;fill-rule:nonzero;fill:rgb(100%,100%,100%);fill-opacity:1;" d="M 64.425781 127.203125 C 63.425781 127.386719 62.402344 127.042969 61.714844 126.296875 C 61.003906 125.574219 60.722656 124.535156 60.964844 123.554688 L 67.886719 97.300781 C 68.128906 96.363281 68.894531 95.652344 69.84375 95.476562 C 70.84375 95.296875 71.867188 95.640625 72.554688 96.390625 L 92.484375 117.390625 C 93.195312 118.109375 93.480469 119.148438 93.238281 120.128906 C 92.992188 121.066406 92.230469 121.773438 91.28125 121.949219 Z M 64.425781 127.203125 "/>
<path style=" stroke:none;fill-rule:nonzero;fill:rgb(18.039216%,76.862745%,71.372549%);fill-opacity:1;" d="M 71.144531 103.464844 L 72.851562 103.128906 C 73.988281 102.945312 75.085938 103.652344 75.390625 104.765625 L 76 107.050781 C 76.023438 107.132812 76.042969 107.21875 76.054688 107.304688 L 77.140625 114.5 C 77.316406 115.507812 76.648438 116.46875 75.640625 116.65625 C 74.59375 116.828125 73.570312 116.25 73.179688 115.265625 L 70.410156 108.425781 C 70.375 108.34375 70.347656 108.261719 70.324219 108.179688 L 69.695312 105.890625 C 69.527344 105.375 69.59375 104.8125 69.871094 104.347656 C 70.148438 103.886719 70.613281 103.5625 71.144531 103.464844 Z M 75.96875 118.605469 L 76.433594 118.515625 C 77.457031 118.339844 78.445312 118.972656 78.710938 119.976562 C 78.851562 120.429688 78.792969 120.925781 78.550781 121.335938 C 78.304688 121.746094 77.898438 122.03125 77.429688 122.125 L 76.964844 122.214844 C 75.945312 122.390625 74.957031 121.761719 74.691406 120.761719 C 74.546875 120.304688 74.605469 119.808594 74.851562 119.398438 C 75.09375 118.984375 75.5 118.699219 75.96875 118.605469 Z M 75.96875 118.605469 "/>
<path style=" stroke:none;fill-rule:nonzero;fill:rgb(49.803922%,24.313725%,23.137255%);fill-opacity:1;" d="M 194.179688 103 L 190.300781 104.261719 L 193.421875 107.949219 C 194.304688 107.183594 195.074219 106.289062 195.695312 105.296875 C 196.03125 104.710938 195.835938 103.964844 195.253906 103.621094 Z M 194.179688 103 "/>
<path style=" stroke:none;fill-rule:nonzero;fill:rgb(49.803922%,24.313725%,23.137255%);fill-opacity:1;" d="M 188.515625 107.308594 L 190.839844 110.136719 L 193.425781 107.96875 L 190.300781 104.28125 Z M 188.515625 107.308594 "/>
<path style=" stroke:none;fill-rule:nonzero;fill:rgb(49.803922%,24.313725%,23.137255%);fill-opacity:1;" d="M 195.433594 72.839844 C 196.378906 75.441406 197.25 78.039062 198.074219 80.675781 C 198.898438 83.308594 199.660156 85.953125 200.324219 88.726562 L 200.558594 89.789062 L 200.671875 90.34375 L 200.726562 90.625 L 200.726562 90.800781 L 200.753906 91.011719 C 200.863281 91.960938 200.816406 92.925781 200.613281 93.859375 C 200.296875 95.363281 199.8125 96.824219 199.175781 98.21875 C 198.011719 100.828125 196.574219 103.308594 194.894531 105.621094 L 192.300781 104.183594 C 193.21875 101.683594 194.128906 99.128906 194.800781 96.65625 C 195.128906 95.496094 195.363281 94.308594 195.488281 93.109375 C 195.53125 92.695312 195.511719 92.277344 195.429688 91.871094 L 195.214844 91.089844 L 194.933594 90.164062 C 194.148438 87.664062 193.253906 85.089844 192.371094 82.53125 C 191.484375 79.96875 190.601562 77.386719 189.75 74.820312 Z M 195.433594 72.839844 "/>
<path style=" stroke:none;fill-rule:nonzero;fill:rgb(14.901961%,19.607843%,21.960784%);fill-opacity:1;" d="M 173.839844 57.371094 C 173.90625 57.683594 173.796875 57.976562 173.59375 58.03125 C 173.394531 58.085938 173.175781 57.863281 173.09375 57.53125 C 173.015625 57.195312 173.136719 56.925781 173.339844 56.875 C 173.546875 56.824219 173.773438 57.058594 173.839844 57.371094 Z M 173.839844 57.371094 "/>
<path style=" stroke:none;fill-rule:nonzero;fill:rgb(38.823529%,5.882353%,5.882353%);fill-opacity:1;" d="M 173.824219 57.96875 C 173.65625 59.015625 173.351562 60.039062 172.914062 61.003906 C 173.414062 61.207031 173.972656 61.171875 174.445312 60.914062 Z M 173.824219 57.96875 "/>
<path style=" stroke:none;fill-rule:nonzero;fill:rgb(14.901961%,19.607843%,21.960784%);fill-opacity:1;" d="M 173 55.5 C 172.9375 55.5 172.878906 55.46875 172.84375 55.421875 C 172.816406 55.378906 172.804688 55.328125 172.8125 55.28125 C 172.820312 55.230469 172.847656 55.1875 172.890625 55.160156 C 173.402344 54.84375 174.03125 54.796875 174.585938 55.03125 C 174.632812 55.046875 174.667969 55.085938 174.6875 55.132812 C 174.707031 55.175781 174.703125 55.230469 174.683594 55.273438 C 174.644531 55.371094 174.535156 55.417969 174.441406 55.378906 C 174.007812 55.1875 173.507812 55.222656 173.105469 55.464844 C 173.074219 55.488281 173.039062 55.5 173 55.5 Z M 173 55.5 "/>
<path style=" stroke:none;fill-rule:nonzero;fill:rgb(49.803922%,24.313725%,23.137255%);fill-opacity:1;" d="M 184.554688 58.359375 C 184.90625 61.988281 184.390625 65.503906 185.199219 68.660156 C 185.199219 68.660156 184.300781 71.589844 178.933594 71.589844 C 173.035156 71.589844 176.230469 68.660156 176.230469 68.660156 C 179.480469 67.894531 179.484375 65.503906 179.015625 63.261719 Z M 184.554688 58.359375 "/>
<path style=" stroke:none;fill-rule:nonzero;fill:rgb(14.901961%,19.607843%,21.960784%);fill-opacity:1;" d="M 186.34375 69.664062 C 186.804688 68.738281 187.109375 67.425781 186.160156 67.09375 C 185.113281 66.730469 179.53125 66.59375 177.503906 67.296875 C 176.382812 67.589844 175.699219 68.730469 175.96875 69.859375 Z M 186.34375 69.664062 "/>
<path style=" stroke:none;fill-rule:nonzero;fill:rgb(18.039216%,76.862745%,71.372549%);fill-opacity:1;" d="M 198.398438 201.34375 C 198.769531 201.25 199.125 201.113281 199.460938 200.933594 C 199.496094 200.917969 199.519531 200.878906 199.519531 200.839844 C 199.519531 200.796875 199.492188 200.761719 199.449219 200.75 C 199.273438 200.691406 197.726562 200.175781 197.316406 200.523438 C 197.222656 200.605469 197.183594 200.726562 197.210938 200.84375 C 197.226562 201.058594 197.351562 201.246094 197.539062 201.34375 C 197.820312 201.441406 198.121094 201.441406 198.398438 201.34375 Z M 199.140625 200.84375 C 198.460938 201.15625 197.910156 201.261719 197.640625 201.121094 C 197.511719 201.058594 197.429688 200.929688 197.421875 200.789062 C 197.402344 200.742188 197.417969 200.691406 197.453125 200.660156 C 197.660156 200.5 198.5 200.675781 199.140625 200.863281 Z M 199.140625 200.84375 "/>
<path style=" stroke:none;fill-rule:nonzero;fill:rgb(18.039216%,76.862745%,71.372549%);fill-opacity:1;" d="M 199.441406 200.945312 C 199.46875 200.9375 199.492188 200.921875 199.503906 200.894531 C 199.519531 200.871094 199.523438 200.84375 199.515625 200.816406 C 199.515625 200.765625 199.109375 199.574219 198.515625 199.316406 C 198.375 199.242188 198.210938 199.230469 198.058594 199.285156 C 197.90625 199.320312 197.796875 199.460938 197.804688 199.621094 C 197.804688 200.121094 198.886719 200.828125 199.375 200.964844 Z M 198.191406 199.445312 C 198.273438 199.425781 198.363281 199.4375 198.441406 199.476562 C 198.820312 199.785156 199.101562 200.203125 199.246094 200.675781 C 198.746094 200.449219 198.035156 199.878906 198.023438 199.589844 C 198.023438 199.566406 198.023438 199.503906 198.144531 199.453125 Z M 198.191406 199.445312 "/>
<path style=" stroke:none;fill-rule:nonzero;fill:rgb(18.039216%,76.862745%,71.372549%);fill-opacity:1;" d="M 171.089844 204.398438 C 171.46875 204.390625 171.847656 204.335938 172.214844 204.246094 C 172.253906 204.234375 172.285156 204.199219 172.296875 204.160156 C 172.296875 204.117188 172.28125 204.078125 172.246094 204.054688 C 172.089844 203.960938 170.699219 203.105469 170.21875 203.351562 C 170.109375 203.40625 170.042969 203.519531 170.046875 203.640625 C 170.023438 203.84375 170.101562 204.042969 170.253906 204.179688 C 170.5 204.34375 170.796875 204.421875 171.089844 204.398438 Z M 171.921875 204.101562 C 171.191406 204.246094 170.625 204.21875 170.390625 204.019531 C 170.28125 203.929688 170.230469 203.789062 170.25 203.648438 C 170.25 203.570312 170.285156 203.546875 170.316406 203.53125 C 170.558594 203.40625 171.355469 203.769531 171.921875 204.101562 Z M 171.921875 204.101562 "/>
<path style=" stroke:none;fill-rule:nonzero;fill:rgb(18.039216%,76.862745%,71.372549%);fill-opacity:1;" d="M 172.191406 204.246094 C 172.210938 204.25 172.230469 204.25 172.25 204.246094 C 172.28125 204.222656 172.296875 204.1875 172.296875 204.148438 C 172.296875 204.101562 172.183594 202.855469 171.683594 202.445312 C 171.566406 202.339844 171.40625 202.292969 171.25 202.316406 C 171.09375 202.3125 170.957031 202.425781 170.925781 202.578125 C 170.835938 203.078125 171.695312 204.003906 172.144531 204.25 Z M 171.320312 202.5 C 171.40625 202.5 171.488281 202.527344 171.554688 202.585938 C 171.855469 202.976562 172.027344 203.449219 172.054688 203.941406 C 171.609375 203.601562 171.054688 202.890625 171.113281 202.605469 C 171.113281 202.605469 171.113281 202.515625 171.265625 202.5 Z M 171.320312 202.5 "/>
<path style=" stroke:none;fill-rule:nonzero;fill:rgb(49.803922%,24.313725%,23.137255%);fill-opacity:1;" d="M 176.835938 204.089844 L 172.886719 204.089844 L 172.84375 194.949219 L 176.796875 194.949219 Z M 176.835938 204.089844 "/>
<path style=" stroke:none;fill-rule:nonzero;fill:rgb(49.803922%,24.313725%,23.137255%);fill-opacity:1;" d="M 204.328125 200.710938 L 200.53125 201.40625 L 197.804688 192.410156 L 201.605469 191.714844 Z M 204.328125 200.710938 "/>
<path style=" stroke:none;fill-rule:nonzero;fill:rgb(14.901961%,19.607843%,21.960784%);fill-opacity:1;" d="M 199.808594 200.394531 L 204.125 199.394531 C 204.28125 199.355469 204.441406 199.433594 204.503906 199.578125 L 205.933594 202.84375 C 206.003906 203.011719 205.996094 203.199219 205.914062 203.355469 C 205.832031 203.515625 205.683594 203.628906 205.511719 203.671875 C 204.011719 204 203.25 204.078125 201.351562 204.53125 C 200.183594 204.804688 197.804688 205.5 196.191406 205.878906 C 194.574219 206.261719 194.054688 204.699219 194.691406 204.378906 C 197.519531 203.023438 198.460938 201.878906 199.234375 200.78125 C 199.375 200.585938 199.578125 200.449219 199.808594 200.394531 Z M 199.808594 200.394531 "/>
<path style=" stroke:none;fill-rule:nonzero;fill:rgb(14.901961%,19.607843%,21.960784%);fill-opacity:1;" d="M 172.929688 203.628906 L 177.238281 203.628906 C 177.398438 203.628906 177.535156 203.742188 177.566406 203.898438 L 178.210938 207.398438 C 178.242188 207.574219 178.191406 207.753906 178.078125 207.890625 C 177.960938 208.027344 177.792969 208.101562 177.613281 208.101562 C 176.058594 208.074219 173.820312 207.984375 171.863281 207.984375 C 169.578125 207.984375 168.765625 208.109375 166.085938 208.109375 C 164.464844 208.109375 164.085938 206.46875 164.765625 206.324219 C 167.875 205.644531 169.234375 205.574219 171.96875 203.929688 C 172.257812 203.742188 172.589844 203.640625 172.929688 203.628906 Z M 172.929688 203.628906 "/>
<path style=" stroke:none;fill-rule:nonzero;fill:rgb(18.039216%,76.862745%,71.372549%);fill-opacity:1;" d="M 194 69.679688 C 197.683594 72.273438 198.796875 78.953125 198.796875 78.953125 L 190.445312 83.183594 C 189.125 80.542969 188.101562 77.765625 187.394531 74.898438 C 186.5 70.949219 191.378906 67.839844 194 69.679688 Z M 194 69.679688 "/>
<use xlink:href="#surface29" mask="url(#mask8)"/>
<path style=" stroke:none;fill-rule:nonzero;fill:rgb(18.039216%,76.862745%,71.372549%);fill-opacity:1;" d="M 169.445312 87 C 169.476562 91.40625 169.738281 96.886719 170.394531 103.683594 L 191.5 103.683594 C 191.753906 100.585938 190.460938 85.96875 193.605469 71.335938 C 193.71875 70.8125 193.609375 70.269531 193.308594 69.832031 C 193.007812 69.390625 192.535156 69.097656 192.011719 69.015625 C 190.355469 68.75 188.683594 68.570312 187.011719 68.480469 C 184.019531 68.308594 181.023438 68.308594 178.035156 68.480469 C 176.828125 68.585938 175.628906 68.75 174.441406 68.980469 C 172.636719 69.347656 171.203125 70.714844 170.75 72.5 C 170.09375 75.195312 169.707031 77.953125 169.59375 80.726562 C 169.5 82.523438 169.429688 84.609375 169.445312 87 Z M 169.445312 87 "/>
<use xlink:href="#surface32" mask="url(#mask9)"/>
<use xlink:href="#surface35" mask="url(#mask10)"/>
<path style=" stroke:none;fill-rule:nonzero;fill:rgb(49.803922%,24.313725%,23.137255%);fill-opacity:1;" d="M 184 54.109375 C 184.574219 57.996094 185.109375 60.234375 183.609375 62.683594 C 182.640625 64.308594 180.847656 65.261719 178.957031 65.15625 C 177.070312 65.050781 175.394531 63.90625 174.609375 62.183594 C 173.066406 58.953125 172.378906 53.140625 175.765625 50.683594 C 177.226562 49.566406 179.171875 49.316406 180.871094 50.019531 C 182.570312 50.726562 183.761719 52.285156 184 54.109375 Z M 184 54.109375 "/>
<path style=" stroke:none;fill-rule:nonzero;fill:rgb(14.901961%,19.607843%,21.960784%);fill-opacity:1;" d="M 175.921875 56.949219 C 174.453125 56.304688 174.59375 54 175.039062 53.03125 C 173.34375 53.609375 170.894531 53.945312 170.453125 52.21875 C 170.015625 50.496094 171.511719 49.945312 170.59375 48.46875 C 169.679688 46.996094 172.59375 45.390625 173.953125 47.46875 C 175.316406 49.550781 178.675781 48.621094 180.84375 46.636719 C 182.425781 45.191406 184.734375 47.054688 183.820312 48.941406 C 183.820312 48.941406 188.570312 48.636719 187.625 51.859375 C 186.679688 55.085938 185.34375 55.195312 185.648438 57.488281 C 185.859375 59.039062 186.039062 62.191406 184.179688 62.636719 C 181.929688 63.148438 176.320312 61.15625 175.921875 56.949219 Z M 175.921875 56.949219 "/>
<use xlink:href="#surface38" mask="url(#mask11)"/>
<path style=" stroke:none;fill-rule:nonzero;fill:rgb(49.803922%,24.313725%,23.137255%);fill-opacity:1;" d="M 177.125 56.894531 C 177.234375 57.757812 177.101562 58.636719 176.746094 59.429688 C 176.296875 60.34375 175.585938 59.761719 175.308594 58.636719 C 175.058594 57.636719 174.996094 55.929688 175.644531 55.429688 C 176.296875 54.929688 177 55.753906 177.125 56.894531 Z M 177.125 56.894531 "/>
<path style=" stroke:none;fill-rule:nonzero;fill:rgb(18.039216%,76.862745%,71.372549%);fill-opacity:1;" d="M 177.886719 103.699219 C 177.886719 103.699219 181.199219 133.859375 183.21875 145.160156 C 185.433594 157.535156 196.90625 196.375 196.90625 196.375 L 203.976562 194.875 C 203.976562 194.875 196.078125 158.535156 195 146.285156 C 193.84375 132.984375 191.5 103.699219 191.5 103.699219 Z M 177.886719 103.699219 "/>
<use xlink:href="#surface41" mask="url(#mask12)"/>
<path style=" stroke:none;fill-rule:nonzero;fill:rgb(14.901961%,19.607843%,21.960784%);fill-opacity:1;" d="M 195.324219 194 C 195.296875 194 196.523438 196.578125 196.523438 196.578125 L 204.5 194.875 L 203.933594 192.464844 Z M 195.324219 194 "/>
<use xlink:href="#surface44" mask="url(#mask13)"/>
<path style=" stroke:none;fill-rule:nonzero;fill:rgb(18.039216%,76.862745%,71.372549%);fill-opacity:1;" d="M 170.394531 103.699219 C 170.394531 103.699219 168.714844 133.199219 168.679688 145.246094 C 168.640625 157.746094 171.429688 198.746094 171.429688 198.746094 L 178.121094 198.746094 C 178.121094 198.746094 179.921875 158.488281 180.691406 146.195312 C 181.53125 132.789062 184.273438 103.695312 184.273438 103.695312 Z M 170.394531 103.699219 "/>
<use xlink:href="#surface47" mask="url(#mask14)"/>
<path style=" stroke:none;fill-rule:nonzero;fill:rgb(14.901961%,19.607843%,21.960784%);fill-opacity:1;" d="M 170.25 196.089844 C 170.21875 196.089844 170.519531 198.863281 170.519531 198.863281 L 178.648438 198.863281 L 178.964844 196.363281 Z M 170.25 196.089844 "/>
<path style=" stroke:none;fill-rule:nonzero;fill:rgb(49.803922%,24.313725%,23.137255%);fill-opacity:1;" d="M 178.761719 75.871094 C 177.960938 75.945312 177.285156 75.988281 176.550781 76.011719 C 175.816406 76.03125 175.113281 76.046875 174.398438 76.039062 C 172.960938 76.039062 171.519531 75.949219 170.070312 75.789062 C 168.597656 75.636719 167.136719 75.386719 165.699219 75.039062 C 164.175781 74.683594 162.699219 74.15625 161.289062 73.476562 L 161.125 73.390625 C 160.5 73.085938 160.023438 72.542969 159.800781 71.886719 C 159.578125 71.230469 159.625 70.511719 159.933594 69.890625 C 160.003906 69.75 160.085938 69.613281 160.179688 69.484375 C 160.777344 68.695312 161.457031 67.96875 162.203125 67.320312 C 162.878906 66.71875 163.554688 66.183594 164.234375 65.675781 C 165.59375 64.648438 166.984375 63.746094 168.378906 62.863281 C 169.773438 61.984375 171.199219 61.171875 172.636719 60.363281 C 174.070312 59.558594 175.515625 58.835938 177.015625 58.140625 C 177.695312 57.867188 178.472656 58.128906 178.855469 58.753906 C 179.234375 59.382812 179.105469 60.191406 178.550781 60.671875 C 177.296875 61.636719 176 62.589844 174.746094 63.570312 C 173.488281 64.550781 172.246094 65.515625 171 66.503906 C 169.753906 67.496094 168.570312 68.503906 167.433594 69.503906 C 166.871094 70.003906 166.324219 70.503906 165.839844 71.050781 C 165.402344 71.492188 165.007812 71.976562 164.660156 72.488281 L 163.554688 68.488281 C 164.644531 68.894531 165.769531 69.195312 166.914062 69.386719 C 168.140625 69.59375 169.378906 69.738281 170.621094 69.816406 C 171.886719 69.894531 173.164062 69.941406 174.449219 69.941406 C 175.09375 69.941406 175.738281 69.941406 176.378906 69.941406 C 177.019531 69.941406 177.695312 69.890625 178.253906 69.859375 L 178.320312 69.859375 C 179.886719 69.859375 181.195312 71.066406 181.3125 72.628906 C 181.433594 74.191406 180.332031 75.585938 178.78125 75.824219 Z M 178.761719 75.871094 "/>
<path style=" stroke:none;fill-rule:nonzero;fill:rgb(49.803922%,24.313725%,23.137255%);fill-opacity:1;" d="M 181.558594 57.359375 L 179.058594 57.914062 C 179.058594 57.914062 175.714844 57.5 174.949219 60.019531 L 176.949219 61.710938 L 180.011719 62.210938 C 180.492188 62.285156 180.988281 62.203125 181.425781 61.980469 L 182.203125 61.574219 C 182.566406 61.390625 182.804688 61.035156 182.84375 60.628906 L 183.03125 58.628906 C 183.066406 58.246094 182.914062 57.867188 182.625 57.613281 C 182.332031 57.363281 181.933594 57.265625 181.558594 57.359375 Z M 181.558594 57.359375 "/>
<path style=" stroke:none;fill-rule:nonzero;fill:rgb(18.039216%,76.862745%,71.372549%);fill-opacity:1;" d="M 176.679688 78.789062 C 172.476562 79.960938 167.679688 78.5 167.679688 78.5 L 169.445312 69.085938 C 169.445312 69.085938 173.621094 68.714844 176.230469 68.660156 C 182.945312 68.5 184.261719 76.691406 176.679688 78.789062 Z M 176.679688 78.789062 "/>
</g>
</svg>
